<svg width="528" height="516" viewBox="0 0 528 516" fill="none" xmlns="http://www.w3.org/2000/svg">
<path d="M252.86 480.334C306.942 458.199 311.368 403.493 360.273 398.118C402.886 393.434 419.671 432.756 449.511 425.249C494.964 413.816 522.097 305.952 502.513 217.849C482.29 126.875 401.08 6.69916 269.307 0.266139C121.363 -6.95562 11.5231 134.166 6.4511 256.729C5.90219 269.984 3.13416 381.016 89.9181 445.365C94.2553 448.581 179.748 510.258 252.86 480.334Z" fill="#F4F7FA"/>
<mask id="mask0_91_44" style="mask-type:luminance" maskUnits="userSpaceOnUse" x="153" y="234" width="159" height="237">
<path d="M184.862 470.96L153.608 445.396C153.608 445.396 160.995 424.739 178.018 419.821C212.751 409.788 201.437 380.423 198.559 367.423C194.22 347.819 199.047 328.672 222.157 337.521C245.267 346.37 250.298 303.739 238.673 273.075C227.296 243.069 274.702 205.768 305.36 268.478C323.669 305.929 293.185 333.04 281.084 350.348C268.982 367.655 292.163 388.866 267.328 401.789C246.116 412.827 222.332 414.073 222.93 434.08C223.529 454.088 213.719 467.946 184.863 470.96H184.862Z" fill="white"/>
</mask>
<g mask="url(#mask0_91_44)">
<path d="M184.862 470.96L153.608 445.396C153.608 445.396 160.995 424.739 178.018 419.821C212.751 409.788 201.437 380.423 198.559 367.423C194.22 347.819 199.101 331.068 220.602 335.199C244.931 339.875 250.298 303.739 238.671 273.076C227.294 243.07 274.701 205.77 305.358 268.48C323.668 305.93 293.183 333.042 281.082 350.349C268.98 367.657 292.161 388.867 267.326 401.79C246.114 412.829 222.33 414.075 222.928 434.082C223.527 454.09 213.717 467.948 184.862 470.962V470.96Z" fill="url(#paint0_linear_91_44)"/>
<g style="mix-blend-mode:soft-light" opacity="0.5">
<path d="M168.932 462.764L168.382 462.116C168.788 461.779 209.35 427.895 239.312 382.322C266.917 340.337 290.908 279.55 248.456 228.393L249.119 227.856C268.016 250.629 275.546 277.168 271.499 306.737C268.265 330.358 257.675 355.947 240.022 382.796C209.989 428.472 169.34 462.425 168.932 462.764Z" fill="#BEB8F2"/>
<path d="M269.269 319.021L268.683 318.405C289.433 299.089 306.751 261.704 306.922 261.329L307.702 261.679C307.529 262.055 290.141 299.592 269.269 319.023V319.021Z" fill="#BEB8F2"/>
<path d="M271.418 299.246C260.66 267.402 234.414 256.989 234.15 256.889L234.46 256.101C234.728 256.202 261.341 266.743 272.232 298.978L271.42 299.246H271.418Z" fill="#BEB8F2"/>
<path d="M218.083 411.061C236.452 374.283 200.457 332.137 200.072 331.755L200.637 331.12C201.051 331.459 237.384 374.331 218.853 411.435L218.085 411.061H218.083Z" fill="#BEB8F2"/>
<path d="M229.195 398.2L228.661 397.538C249.346 381.196 282.387 385.336 282.718 385.38L282.604 386.219C282.275 386.176 249.59 382.086 229.195 398.2Z" fill="#BEB8F2"/>
<path d="M174.647 456.643C183.717 443.898 174.365 420.284 174.27 420.047L175.064 419.735C175.461 420.72 184.685 444.011 175.346 457.13L174.645 456.643H174.647Z" fill="#BEB8F2"/>
<path d="M184.361 448.747L183.803 448.105C193.254 440.071 216.29 441.354 223.86 441.775C224.928 441.834 225.853 441.886 226.019 441.863L226.149 442.699C225.914 442.735 225.3 442.703 223.811 442.619C216.326 442.203 193.55 440.935 184.361 448.745V448.747Z" fill="#BEB8F2"/>
</g>
</g>
<path d="M137.2 408.475C146.283 407.165 152.743 413.218 156.723 418.322C156.434 419.146 156.481 419.692 156.376 420.585C155.435 428.632 153.299 431.87 151.105 439.659C150.634 441.334 147.733 445.84 146.429 447.605L143.944 450.858C143.944 450.858 122.824 451.318 121.235 439.541C119.646 427.763 99.531 425.686 89.0116 423.286C82.5511 421.814 80.0756 419.094 77.7896 418.177C53.5942 408.463 43.7571 413.365 37.8527 405.429C31.3344 396.669 41.4586 388.186 34.8789 378.285C27.4487 367.106 9.5495 370.418 4.90903 358.285C4.11275 356.204 3.35258 354.047 3.47897 351.083C3.79135 343.768 9.5694 339.678 5.66198 333.074C-2.19251 319.799 -0.646891 302.8 14.329 297.135C29.1099 291.544 47.9679 310.04 56.3875 343.799C65.1448 367.131 69.6336 368.879 81.3359 370.982C89.5317 372.454 112.741 371.08 116.9 384.854C121.06 398.628 126.816 409.974 137.2 408.477V408.475Z" fill="url(#paint1_linear_91_44)"/>
<mask id="mask1_91_44" style="mask-type:luminance" maskUnits="userSpaceOnUse" x="1" y="296" width="161" height="155">
<path d="M161.323 425.203L144.847 450.462C144.847 450.462 122.824 451.317 121.235 439.539C119.646 427.762 99.531 425.685 89.0116 423.284C60.47 416.777 74.2271 386.067 38.3926 374.638C28.8625 371.599 9.4863 369.152 4.90903 358.285C-0.307431 345.903 10.687 341.568 5.66198 333.074C-2.19251 319.799 -0.646891 302.8 14.329 297.135C29.1099 291.544 47.9679 310.04 56.3875 343.797C65.1448 367.129 69.6336 368.878 81.3359 370.98C89.5317 372.452 112.741 371.078 116.901 384.852C121.062 398.627 126.818 409.972 137.2 408.475C153 406.198 161.323 425.201 161.323 425.201V425.203Z" fill="white"/>
</mask>
<g mask="url(#mask1_91_44)">
<g style="mix-blend-mode:soft-light" opacity="0.5">
<path d="M152.815 435.781L152.552 436.317C149.547 434.901 146.537 433.435 143.603 431.957C121.887 421.016 102.082 408.316 84.743 394.207C70.0506 382.251 56.9164 369.119 45.7071 355.175C36.6916 343.961 28.866 332.164 22.4488 320.112C17.9365 311.639 14.1609 303.127 11.2286 294.815C10.7176 293.366 10.2752 291.851 9.84729 290.384C9.27669 288.43 8.68809 286.41 7.92969 284.535L8.45689 284.281C9.22429 286.182 9.81839 288.216 10.3926 290.183C10.8187 291.642 11.2575 293.15 11.7648 294.585C14.69 302.872 18.4529 311.357 22.9525 319.805C29.3553 331.829 37.1628 343.597 46.1567 354.784C57.3443 368.699 70.4514 381.804 85.1149 393.737C102.425 407.824 122.197 420.504 143.881 431.427C146.81 432.903 149.816 434.368 152.817 435.781H152.815Z" fill="#FCFDFE"/>
<path d="M60.5096 371.121L60.1016 371.556C43.0329 354.748 1.55943 351.561 1.14233 351.531L1.21817 350.946C1.63708 350.976 43.302 354.177 60.5078 371.119L60.5096 371.121Z" fill="#FCFDFE"/>
<path d="M112.548 413.552L112.191 414.03C99.199 404.094 98.166 371.207 98.157 370.875L98.726 370.819C98.735 371.148 99.761 403.77 112.55 413.55L112.548 413.552Z" fill="#FCFDFE"/>
<path d="M120.435 418.502L120.16 419.032C110.598 414.269 94.7462 413.209 75.5217 416.048C74.8777 416.144 74.5238 416.176 74.46 416.145L74.729 415.611L74.5954 415.877L74.6261 415.586C74.6911 415.584 75.0558 415.531 75.4783 415.468C94.8112 412.615 110.777 413.693 120.437 418.502H120.435Z" fill="#FCFDFE"/>
<path d="M147.371 433.117L146.965 433.554C138.533 425.323 140.582 406.998 140.604 406.814L141.169 406.846C141.147 407.028 139.132 425.073 147.371 433.117Z" fill="#FCFDFE"/>
<path d="M152.553 436.643C142.947 435.942 132.652 438.076 121.076 443.165L120.881 442.628C132.545 437.5 142.931 435.351 152.631 436.058L152.553 436.641V436.643Z" fill="#FCFDFE"/>
<path d="M26.8474 326.832L26.4176 327.244C17.4689 317.319 5.69262 309.182 1.82135 306.509C0.884229 305.861 0.555609 305.632 0.456299 305.531L0.869789 305.101C0.947429 305.177 1.4819 305.547 2.16081 306.014C6.04292 308.696 17.859 316.86 26.8474 326.83V326.832Z" fill="#FCFDFE"/>
<path d="M38.9306 345.344L38.4105 345.617C33.223 333.995 42.4551 308.946 42.8506 307.886L43.3796 308.065C43.2839 308.322 33.8405 333.941 38.9306 345.346V345.344Z" fill="#FCFDFE"/>
</g>
</g>
<path d="M170.626 390.725C169.413 392.401 161.177 385.272 146.297 384.092C142.579 383.798 122.414 380.8 114.659 393.871C113.153 396.409 111.647 398.946 110.143 401.484C103.047 400.574 96.5303 398.418 98.563 389.367C101.721 375.313 81.1409 364.324 71.9701 363.896C60.6199 363.366 34.2451 361.583 38.7916 339.796C42.5762 321.659 48.6594 310.533 29.8104 299.408C10.9597 288.284 4.84219 271.014 15.9992 253.306C27.7394 234.673 11.6584 206.141 28.5447 194.622C57.9674 174.55 87.2222 221.557 81.3702 261.395C75.5181 301.236 97.612 288.039 114.021 295.343C115.506 296.107 117.748 297.403 120.099 299.43C134.58 311.907 128.132 330.437 134.992 349.807C144.347 376.224 172.668 387.904 170.626 390.727V390.725Z" fill="url(#paint2_linear_91_44)"/>
<mask id="mask2_91_44" style="mask-type:luminance" maskUnits="userSpaceOnUse" x="10" y="189" width="129" height="214">
<path d="M138.838 360.658L115.591 402.461C108.536 401.899 96.2919 399.478 98.563 389.367C101.721 375.312 81.1409 364.324 71.9701 363.895C60.6199 363.365 34.2451 361.583 38.7917 339.794C42.5763 321.657 48.6594 310.531 29.8087 299.406C10.9579 288.282 4.84222 271.012 15.9974 253.304C27.7376 234.671 11.6567 206.139 28.5429 194.62C57.9656 174.549 87.2205 221.553 81.3684 261.393C75.5164 301.234 97.61 288.037 114.02 295.341C136.424 305.311 115.126 333.401 119.265 345.853C122.51 355.615 132.385 359.204 138.836 360.655L138.838 360.658Z" fill="white"/>
</mask>
<g mask="url(#mask2_91_44)">
<g style="mix-blend-mode:soft-light" opacity="0.5">
<path d="M121.558 377.009L120.895 377.811C65.4174 332.096 33.7286 258.215 38.1957 184.998L39.2014 185.006C34.7542 257.914 66.3112 331.486 121.558 377.009Z" fill="#FCFDFE"/>
<path d="M93.5744 349.354L93.0742 350.262C67.9398 337.191 36.0524 349.332 35.7328 349.455L35.415 348.51C35.7382 348.383 68.0428 336.075 93.5726 349.352L93.5744 349.354Z" fill="#FCFDFE"/>
<path d="M111.595 368.307L110.739 368.89C95.2266 344.67 118.51 294.968 118.749 294.469L119.653 294.865C119.418 295.359 96.3786 344.546 111.595 368.305V368.307Z" fill="#FCFDFE"/>
<path d="M56.8841 288.794L56.077 289.447C42.1303 271.452 6.67675 269.174 6.32104 269.152L6.43299 268.139C6.79412 268.16 42.6792 270.467 56.8841 288.794Z" fill="#FCFDFE"/>
<path d="M43.3148 244.484L42.3073 244.571C41.4604 217.933 65.4915 189.856 65.7353 189.574L66.4792 190.218C66.2391 190.495 42.4806 218.259 43.3148 244.484Z" fill="#FCFDFE"/>
</g>
</g>
<path d="M217.912 101.267C232.642 224.308 247.373 346.065 262.105 466.538C262.766 471.94 258.99 476.717 253.707 477.161C194.506 482.711 135.303 488.384 76.0997 494.178C65.5385 494.685 59.7407 488.853 59.0599 483.014C43.8981 352.962 28.7362 221.55 13.5725 88.7742C12.8918 82.8105 18.0035 77.6855 28.5647 78.1941C88.0583 82.3858 147.552 86.5222 207.046 90.6051C212.363 90.953 217.251 95.7479 217.912 101.267Z" fill="#26264F"/>
<path d="M226.135 101.016C240.959 224.594 255.782 346.872 270.606 467.848C271.27 473.268 267.471 478.071 262.155 478.521C200.681 483.666 139.208 488.912 77.7338 494.262C72.1237 494.754 66.9669 490.363 66.2843 484.497C51.025 353.849 35.7674 221.825 20.508 88.421C19.8237 82.4323 23.89 77.8355 29.538 78.2138C91.4259 82.2931 153.312 86.3242 215.2 90.3072C220.552 90.6587 225.469 95.4714 226.133 101.016H226.135Z" fill="url(#paint3_linear_91_44)"/>
<path d="M222.563 121.232C236.293 235.726 250.023 349.102 263.753 461.365C264.374 466.438 260.825 470.919 255.857 471.319C198.045 475.992 140.232 480.753 82.4194 485.604C77.1957 486.046 72.3945 481.935 71.7553 476.485C57.6479 355.814 43.5406 233.963 29.4314 110.936C28.794 105.37 32.5786 101.062 37.8348 101.369C96.0085 104.717 154.181 108.031 212.354 111.307C217.352 111.589 221.944 116.061 222.565 121.232H222.563Z" fill="url(#paint4_linear_91_44)"/>
<path style="mix-blend-mode:multiply" opacity="0.3" d="M212.352 111.307C154.868 108.07 97.384 104.793 39.9004 101.487C41.6771 111.583 44.7756 122.572 49.9993 133.775C69.0667 174.657 97.077 176.909 108.038 212.535C119.328 249.238 93.8652 260.724 106.306 293.864C119.805 329.823 152.909 324.619 170.408 364.063C185.49 398.061 166.074 413.602 181.669 434.263C198.763 456.907 230.385 449.231 263.208 456.9C249.66 346.095 236.111 234.209 222.563 121.232C221.944 116.061 217.35 111.589 212.352 111.307Z" fill="url(#paint5_linear_91_44)"/>
<path d="M128.389 96.2155C128.622 98.2051 127.269 99.7309 125.364 99.622C123.459 99.5078 121.724 97.7965 121.49 95.7961C121.255 93.8011 122.611 92.2682 124.518 92.3913C126.423 92.5073 128.154 94.2204 128.389 96.2155Z" fill="#DE8BDF"/>
<path d="M149.157 206.858C156.506 206.858 162.463 199.913 162.463 191.346C162.463 182.778 156.506 175.833 149.157 175.833C141.809 175.833 135.852 182.778 135.852 191.346C135.852 199.913 141.809 206.858 149.157 206.858Z" fill="url(#paint6_linear_91_44)"/>
<path d="M202.12 206.858C209.468 206.858 215.426 199.913 215.426 191.346C215.426 182.778 209.468 175.833 202.12 175.833C194.771 175.833 188.814 182.778 188.814 191.346C188.814 199.913 194.771 206.858 202.12 206.858Z" fill="url(#paint7_linear_91_44)"/>
<path d="M175.492 206.858C182.946 206.858 188.988 199.913 188.988 191.346C188.988 182.778 182.946 175.833 175.492 175.833C168.039 175.833 161.997 182.778 161.997 191.346C161.997 199.913 168.039 206.858 175.492 206.858Z" fill="#D8DEE8"/>
<path d="M255.081 206.858C262.429 206.858 268.387 199.913 268.387 191.346C268.387 182.778 262.429 175.833 255.081 175.833C247.732 175.833 241.775 182.778 241.775 191.346C241.775 199.913 247.732 206.858 255.081 206.858Z" fill="url(#paint8_linear_91_44)"/>
<path d="M228.453 206.858C235.907 206.858 241.949 199.913 241.949 191.346C241.949 182.778 235.907 175.833 228.453 175.833C221 175.833 214.958 182.778 214.958 191.346C214.958 199.913 221 206.858 228.453 206.858Z" fill="#D8DEE8"/>
<path d="M281.416 206.858C288.869 206.858 294.911 199.913 294.911 191.346C294.911 182.778 288.869 175.833 281.416 175.833C273.963 175.833 267.921 182.778 267.921 191.346C267.921 199.913 273.963 206.858 281.416 206.858Z" fill="#D8DEE8"/>
<path d="M122.53 206.858C129.983 206.858 136.025 199.913 136.025 191.346C136.025 182.778 129.983 175.833 122.53 175.833C115.076 175.833 109.034 182.778 109.034 191.346C109.034 199.913 115.076 206.858 122.53 206.858Z" fill="#D8DEE8"/>
<path d="M26.7607 99.8344L109.323 193.446H322.418L219.16 111.69L26.7607 99.8344Z" fill="url(#paint9_linear_91_44)"/>
<path d="M26.7607 99.8344L109.323 193.446H136.025L48.97 101.203L26.7607 99.8344Z" fill="#F4F7FA"/>
<path d="M72.8152 102.672L162.336 193.446H188.711L96.8391 104.153L72.8152 102.672Z" fill="#F4F7FA"/>
<path d="M121.04 105.643L215.149 193.446H241.65L145.423 107.147L121.04 105.643Z" fill="#F4F7FA"/>
<path d="M194.753 110.186L169.994 108.66L268.217 193.446H294.848L194.753 110.186Z" fill="#F4F7FA"/>
<path d="M294.875 193.446C295.756 201.018 301.308 206.858 308.043 206.858C314.778 206.858 320.331 201.018 321.212 193.446H294.875Z" fill="url(#paint10_linear_91_44)"/>
<path opacity="0.63" d="M193.592 251.925C182.067 225.677 152.83 212.929 128.29 223.452C103.749 233.977 93.197 263.786 104.721 290.036C116.246 316.286 145.483 329.032 170.023 318.509C194.563 307.984 205.115 278.175 193.592 251.925ZM157.404 289.331L158.386 296.724L151.198 297.657L150.282 290.771C145.34 291.194 140.398 290.507 137.399 289.274L138.471 280.507C141.774 281.772 146.304 282.734 151.071 282.115C155.253 281.572 157.9 279.606 157.515 276.706C157.149 273.951 154.57 272.516 148.903 271.41C140.707 269.82 134.871 266.89 133.936 259.859C133.089 253.481 136.971 247.888 144.616 245.346L143.701 238.459L150.889 237.526L151.736 243.905C156.679 243.484 160.116 244.07 162.69 244.916L161.652 253.383C159.639 252.833 156.044 251.604 150.762 252.291C145.996 252.91 144.724 255.141 144.995 257.169C145.313 259.561 148.083 260.751 154.626 262.261C163.759 264.172 167.811 267.701 168.678 274.224C169.536 280.676 165.647 286.785 157.404 289.331Z" fill="#F4F7FA"/>
<g opacity="0.63">
<path d="M219.923 394.454L107.593 397.818C103.554 397.94 100.06 395.061 99.454 391.114L94.9017 361.518C94.1776 356.813 97.8 352.55 102.614 352.439L215.066 349.864C219.084 349.771 222.545 352.644 223.148 356.57L227.579 385.377C228.3 390.059 224.714 394.312 219.923 394.454Z" fill="#F4F7FA"/>
<path d="M223.699 418.784L111.436 422.579C107.386 422.717 103.874 419.835 103.265 415.875L103.222 415.597C102.502 410.918 106.08 406.669 110.867 406.519L223.174 403.004C227.216 402.877 230.716 405.757 231.324 409.708C232.043 414.378 228.477 418.623 223.699 418.786V418.784Z" fill="#F4F7FA"/>
</g>
<path d="M468.004 253.94C469.266 254.247 471.424 254.595 473.945 254.045C476.644 253.456 480.532 251.673 480.539 249.566C480.543 248.556 479.651 248.208 478.417 246.739C475.852 243.683 476.48 241.341 475.136 239.022C472.186 233.927 462.011 232.881 460.415 235.372C459.751 236.411 460.572 238.063 462.089 241.109C463.642 244.232 464.745 244.942 466.056 247.558C466.739 248.922 467.593 251.029 468.002 253.938L468.004 253.94Z" fill="url(#paint11_linear_91_44)"/>
<path d="M522.251 426.2L522.794 425.267C522.794 425.267 523.771 424.689 524.233 425.884C524.696 427.08 527.317 433.329 527.456 436.165C526.768 437.86 524.822 436.423 524.421 435.271C524.02 434.118 522.628 429.842 522.628 429.842L522.251 426.198V426.2Z" fill="url(#paint12_linear_91_44)"/>
<path d="M516.061 430.661C516.873 430.649 517.682 430.656 518.5 430.619C519.992 430.553 521.49 430.447 522.996 430.299C522.745 428.752 522.493 427.205 522.242 425.658C521.474 425.369 520.725 425.078 519.99 424.785C519.616 424.635 519.257 424.485 518.89 424.337C518.545 424.196 518.193 424.055 517.856 423.914C517.359 423.706 516.881 423.497 516.4 423.288C516.209 423.204 516.012 423.122 515.823 423.04C515.259 422.79 514.712 422.54 514.17 422.29C514.08 422.248 513.984 422.207 513.892 422.164C513.307 421.891 512.737 421.618 512.179 421.345C512.139 421.325 512.096 421.305 512.054 421.286C511.466 420.997 510.891 420.708 510.332 420.417C510.324 420.413 510.315 420.41 510.308 420.404C509.169 419.814 508.087 419.221 507.06 418.629C494.336 411.28 490.128 403.818 488.832 397.95C485.185 381.442 503.044 370.842 498.431 352.942C494.955 339.453 480.281 327.903 471.245 330.595C461.042 333.638 459.442 353.183 458.458 365.212C457.349 378.756 456.116 393.844 464.88 407.36C473.179 420.158 488.173 428.035 505.428 430.13C505.428 430.13 505.428 430.13 505.428 430.133C505.837 430.183 506.258 430.206 506.672 430.249C507.672 430.354 508.67 430.463 509.685 430.529C510.149 430.56 510.621 430.561 511.088 430.583C512.078 430.629 513.064 430.685 514.062 430.694C514.725 430.701 515.395 430.67 516.061 430.66V430.661Z" fill="url(#paint13_linear_91_44)"/>
<path style="mix-blend-mode:multiply" opacity="0.25" d="M516.061 430.661C516.873 430.649 517.682 430.656 518.5 430.619C519.992 430.553 521.49 430.447 522.996 430.299C522.745 428.752 522.493 427.205 522.242 425.658C521.474 425.369 520.725 425.078 519.99 424.785C519.616 424.635 519.257 424.485 518.89 424.337C518.545 424.196 518.193 424.055 517.856 423.914C517.359 423.706 516.881 423.497 516.4 423.288C516.209 423.204 516.012 423.122 515.823 423.04C515.259 422.79 514.712 422.54 514.17 422.29C514.08 422.248 513.984 422.207 513.892 422.164C513.307 421.891 512.737 421.618 512.179 421.345C512.139 421.325 512.096 421.305 512.054 421.286C511.466 420.997 510.891 420.708 510.332 420.417C510.324 420.413 510.315 420.41 510.308 420.404C509.169 419.814 508.087 419.221 507.06 418.629C494.336 411.28 490.128 403.818 488.832 397.95C485.185 381.442 503.044 370.842 498.431 352.942C494.955 339.453 480.281 327.903 471.245 330.595C461.042 333.638 459.442 353.183 458.458 365.212C457.349 378.756 456.116 393.844 464.88 407.36C473.179 420.158 488.173 428.035 505.428 430.13C505.428 430.13 505.428 430.13 505.428 430.133C505.837 430.183 506.258 430.206 506.672 430.249C507.672 430.354 508.67 430.463 509.685 430.529C510.149 430.56 510.621 430.561 511.088 430.583C512.078 430.629 513.064 430.685 514.062 430.694C514.725 430.701 515.395 430.67 516.061 430.66V430.661Z" fill="url(#paint14_linear_91_44)"/>
<path d="M432.969 334.71C431.019 331.652 440.114 327.139 443.072 314.587C445.569 303.989 440.474 301.305 443.254 287.117C444.802 279.215 447.445 274.625 450.524 271.295C453.063 268.549 456.36 264.984 459.33 265.45C468.649 266.911 479.686 308.802 461.067 327.067C451.499 336.454 435.324 338.401 432.971 334.71H432.969Z" fill="url(#paint15_linear_91_44)"/>
<path d="M481.884 467.343C481.46 466.378 479.127 468.805 476.955 471.369C477.235 475.059 477.514 478.748 477.794 482.438C477.023 481.953 476.05 481.424 474.952 481.173C473.634 480.873 471.354 481.342 471.178 481.965C470.097 485.811 479.8 486.649 480.864 485.441C481.927 484.233 481.684 482.82 481.684 482.82C480.7 477.279 480.83 473.526 481.295 470.935C481.624 469.115 482.115 467.877 481.882 467.343H481.884Z" fill="url(#paint16_linear_91_44)"/>
<path d="M506.74 343.592C501.202 335.524 495.805 327.362 490.396 319.212C489.332 317.612 488.716 315.752 488.42 313.802C486.272 315.486 484.215 317.505 482.317 319.865C480.793 327.415 478.441 338.765 475.337 352.519C467.448 387.474 464.127 396.227 462.455 407.221C459.881 424.136 460.794 449.061 477.794 482.44C479.091 482.566 480.387 482.695 481.685 482.822C484.417 454.272 487.552 428.504 489.134 415.262C489.67 410.768 491.253 397.29 498.555 386.433C498.673 386.258 509.478 371.656 513.206 365.823C514.447 363.881 516 361.362 517.765 357.991C513.58 353.644 510.225 348.667 506.742 343.594L506.74 343.592Z" fill="url(#paint17_linear_91_44)"/>
<path style="mix-blend-mode:multiply" opacity="0.25" d="M506.74 343.592C501.204 335.524 495.805 327.364 490.396 319.212C489.332 317.61 488.716 315.752 488.42 313.802C486.272 315.488 484.215 317.505 482.317 319.865C479.901 329.096 478.181 336.991 476.976 343.028C473.632 359.773 473.824 364.404 476.218 368.562C479.51 374.278 483.301 372.732 485.706 377.706C489.924 386.428 478.63 392.386 478.735 409.205C478.793 418.531 482.167 420.872 480.631 429.432C480.234 431.641 479.11 436.497 479.607 443.165C479.826 446.094 480.064 445.457 480.246 448.103C480.763 455.642 478.944 462.573 479.732 467.283C480.015 468.974 480.598 470.156 480.824 470.586C481.431 471.738 482.142 472.565 482.644 473.077C485.121 448.499 487.736 426.977 489.135 415.262C489.672 410.768 491.255 397.29 498.557 386.433C498.675 386.259 509.479 371.656 513.208 365.823C514.448 363.881 516.001 361.362 517.767 357.992C513.582 353.645 510.227 348.669 506.744 343.595L506.74 343.592Z" fill="url(#paint18_linear_91_44)"/>
<path d="M449.446 273.044C445.964 279.352 446.362 285.634 446.743 288.383C447.889 296.653 452.777 302.165 454.418 304.249C459.922 311.237 464.214 325.058 457.383 355.353C461.217 354.744 467.524 354.161 474.874 355.676C493.568 359.527 501.031 373.246 509.999 370.744C513.311 369.822 517.807 366.413 520.943 353.688C523.684 347.071 532.223 324.112 523.469 297.113C517.207 277.802 505.162 265.874 499.196 260.687C494.066 258.979 478.05 254.364 462.811 261.657C459.014 263.474 453.115 266.397 449.449 273.042L449.446 273.044Z" fill="url(#paint19_linear_91_44)"/>
<path d="M470.068 248.051C470.062 249.384 470.115 256.52 473.323 257.693C474.024 257.949 474.587 257.785 477.698 257.866C479.472 257.912 480.914 258.005 481.844 258.076C481.687 259.291 481.377 260.922 480.717 262.757C476.725 273.86 463.802 281.574 459.424 278.796C457.143 277.348 456.968 273.009 456.894 271.206C456.784 268.501 457.445 266.358 457.927 265.13C459.53 263.979 461.17 262.826 462.847 261.672C463.943 260.919 465.032 260.18 466.115 259.456C466.043 258.09 465.969 256.725 465.895 255.358C467.285 252.923 468.676 250.487 470.066 248.051H470.068Z" fill="url(#paint20_linear_91_44)"/>
<path d="M471.227 252.839C471.227 252.839 467.369 257.305 462.508 255.699C458.156 254.263 460.426 243.195 463.808 241.85C464.936 241.4 467.034 241.529 468.457 242.355C469.458 242.935 473.073 245.965 471.666 249.621C472.735 248.995 473.836 248.936 474.465 249.457C474.566 249.541 474.815 249.825 474.903 250.178C475.223 251.459 473.807 252.621 471.227 252.839Z" fill="url(#paint21_linear_91_44)"/>
<path style="mix-blend-mode:multiply" opacity="0.3" d="M523.466 297.115C518.567 282.006 510.139 271.438 503.839 265.059C496.618 269.775 489.271 276.167 489.885 283.021C490.584 290.819 501.125 294.042 500.141 298.975C498.714 306.123 475.75 303.414 473.071 311.282C469.913 320.552 497.142 337.988 495.684 339.962C494.643 341.374 482.119 331.397 467.903 333.722C465.146 334.173 462.674 335.235 460.473 336.636C459.967 342.055 458.983 348.246 457.38 355.353C461.213 354.745 467.52 354.161 474.871 355.676C493.565 359.527 501.027 373.246 509.996 370.744C513.307 369.822 517.803 366.413 520.94 353.688C523.681 347.071 532.22 324.112 523.466 297.113V297.115Z" fill="url(#paint22_linear_91_44)"/>
<path d="M489.027 261.222C493.366 260.153 493.389 258.758 499.193 260.69C515.859 266.235 533.503 291.092 524.385 308.646C519.313 318.409 507.161 327.212 493.763 325.181C482.857 323.529 476.451 315.502 474.822 313.325C474.19 310.829 473.56 308.334 472.928 305.838C480.035 309.819 485.042 309.819 488.397 308.957C494.108 307.492 495.376 303.446 504.812 299.91C508.488 298.532 510.696 298.245 510.81 297.101C511.043 294.736 501.8 293.949 495.973 288.989C491.725 285.373 487.487 278.005 489.029 261.222H489.027Z" fill="url(#paint23_linear_91_44)"/>
<path d="M473.43 307.824L471.444 307.258C471.444 307.258 468.903 305.5 467.271 304.79C466.634 304.514 466.047 304.376 465.393 304.394V304.39C465.393 304.39 459.51 301.981 460.778 303.377C462.046 304.772 463.514 305.529 463.514 305.529C463.514 305.529 463.508 305.573 463.459 305.65C463.436 305.684 463.423 305.709 463.398 305.745C463.25 305.963 463.172 306.178 463.133 306.393C462.775 307.495 462.844 309.382 466.74 310.409V310.404C467.677 310.647 468.855 310.666 469.875 310.613C470.94 310.558 474.438 311.819 474.438 311.819L473.428 307.825L473.43 307.824Z" fill="url(#paint24_linear_91_44)"/>
<path d="M277.73 486.821C277.73 491.018 275.114 494.419 271.886 494.419C268.657 494.419 266.041 491.018 266.041 486.821C266.041 482.624 268.657 479.222 271.886 479.222C275.114 479.222 277.73 482.624 277.73 486.821Z" fill="url(#paint25_linear_91_44)"/>
<path d="M279.359 487.679C279.359 491.876 276.743 495.277 273.514 495.277C270.286 495.277 267.669 491.876 267.669 487.679C267.669 483.482 270.286 480.081 273.514 480.081C276.743 480.081 279.359 483.482 279.359 487.679Z" fill="url(#paint26_linear_91_44)"/>
<path d="M275.963 487.831C275.963 489.588 274.867 491.014 273.514 491.014C272.162 491.014 271.066 489.588 271.066 487.831C271.066 486.073 272.162 484.647 273.514 484.647C274.867 484.647 275.963 486.073 275.963 487.831Z" fill="url(#paint27_linear_91_44)"/>
<path d="M271.885 478.403V486.747C271.885 487.973 272.891 488.966 274.13 488.966C274.847 488.966 275.52 488.628 275.943 488.056L283.535 477.781L271.885 478.403Z" fill="#C2C2C2"/>
<path d="M340.306 480.157C340.306 484.354 337.69 487.756 334.462 487.756C331.233 487.756 328.617 484.354 328.617 480.157C328.617 475.96 331.233 472.559 334.462 472.559C337.69 472.559 340.306 475.962 340.306 480.157Z" fill="url(#paint28_linear_91_44)"/>
<path d="M341.935 481.016C341.935 485.213 339.319 488.614 336.09 488.614C332.862 488.614 330.245 485.211 330.245 481.016C330.245 476.82 332.862 473.417 336.09 473.417C339.319 473.417 341.935 476.819 341.935 481.016Z" fill="url(#paint29_linear_91_44)"/>
<path d="M338.539 481.169C338.539 482.927 337.443 484.353 336.09 484.353C334.738 484.353 333.642 482.927 333.642 481.169C333.642 479.411 334.738 477.986 336.09 477.986C337.443 477.986 338.539 479.411 338.539 481.169Z" fill="url(#paint30_linear_91_44)"/>
<path d="M334.461 471.74V480.084C334.461 481.308 335.467 482.302 336.706 482.302C337.423 482.302 338.096 481.965 338.519 481.392L346.111 471.117L334.461 471.74Z" fill="#C2C2C2"/>
<path d="M271.014 478.905C270.649 478.905 270.335 478.633 270.291 478.266C270.246 477.871 270.533 477.516 270.932 477.472L345.037 469.219C349.425 468.474 353.04 465.218 354.206 460.928L385.249 346.709C386.812 340.956 391.902 336.816 397.917 336.406L420.451 335.078C420.845 335.046 421.197 335.356 421.22 335.753C421.244 336.149 420.939 336.489 420.538 336.513L398.011 337.84C392.623 338.208 388.056 341.921 386.653 347.082L355.611 461.301C354.298 466.13 350.228 469.797 345.241 470.641L271.095 478.899C271.068 478.903 271.041 478.905 271.012 478.905H271.014Z" fill="#C2C2C2"/>
<path d="M322.57 433.941C322.254 433.941 321.961 433.736 321.871 433.42L304.421 373.073C304.311 372.691 304.535 372.293 304.922 372.184C305.308 372.075 305.711 372.297 305.821 372.679L323.27 433.026C323.38 433.408 323.157 433.806 322.77 433.915C322.703 433.934 322.637 433.943 322.57 433.943V433.941Z" fill="#C2C2C2"/>
<path d="M340.422 431.418C340.075 431.418 339.77 431.174 339.707 430.826L328.944 371.048C328.873 370.657 329.137 370.284 329.532 370.214C329.929 370.145 330.305 370.405 330.375 370.796L341.139 430.574C341.209 430.965 340.946 431.338 340.55 431.407C340.507 431.414 340.463 431.418 340.422 431.418Z" fill="#C2C2C2"/>
<path d="M351.514 429.459C351.503 429.459 351.494 429.459 351.483 429.459C351.082 429.443 350.77 429.107 350.786 428.711L353.269 369.565C353.285 369.169 353.603 368.853 354.026 368.876C354.426 368.892 354.739 369.228 354.723 369.624L352.24 428.77C352.224 429.157 351.902 429.459 351.514 429.459Z" fill="#C2C2C2"/>
<path d="M298.219 436.149C297.916 436.149 297.632 435.96 297.529 435.658L277.041 375.284C276.913 374.907 277.118 374.501 277.499 374.374C277.88 374.249 278.292 374.451 278.42 374.827L298.909 435.201C299.037 435.578 298.831 435.985 298.45 436.111C298.374 436.136 298.295 436.149 298.219 436.149Z" fill="#C2C2C2"/>
<path d="M473.101 340.976C473.06 340.976 473.02 340.976 472.977 340.97L421.406 336.873C420.588 336.809 419.978 336.115 420.047 335.322C420.113 334.53 420.834 333.936 421.652 334.007L473.222 338.104C474.04 338.169 474.651 338.863 474.582 339.655C474.519 340.406 473.867 340.976 473.101 340.976Z" fill="url(#paint31_linear_91_44)"/>
<path d="M332.633 507.544C332.633 511.741 330.016 515.142 326.788 515.142C323.559 515.142 320.943 511.741 320.943 507.544C320.943 503.347 323.559 499.945 326.788 499.945C330.016 499.945 332.633 503.347 332.633 507.544Z" fill="url(#paint32_linear_91_44)"/>
<path d="M334.259 508.402C334.259 512.599 331.643 516 328.415 516C325.186 516 322.57 512.597 322.57 508.402C322.57 504.207 325.186 500.804 328.415 500.804C331.643 500.804 334.259 504.205 334.259 508.402Z" fill="url(#paint33_linear_91_44)"/>
<path d="M330.863 508.555C330.863 510.313 329.767 511.739 328.415 511.739C327.062 511.739 325.966 510.313 325.966 508.555C325.966 506.798 327.062 505.372 328.415 505.372C329.767 505.372 330.863 506.798 330.863 508.555Z" fill="url(#paint34_linear_91_44)"/>
<path d="M326.788 499.128V507.472C326.788 508.698 327.793 509.69 329.032 509.69C329.749 509.69 330.422 509.353 330.845 508.78L338.438 498.505L326.788 499.128Z" fill="#999999"/>
<path d="M386.809 502.185C386.809 506.382 384.192 509.783 380.964 509.783C377.735 509.783 375.119 506.382 375.119 502.185C375.119 497.988 377.735 494.587 380.964 494.587C384.192 494.587 386.809 497.988 386.809 502.185Z" fill="url(#paint35_linear_91_44)"/>
<path d="M388.437 503.041C388.437 507.238 385.821 510.64 382.592 510.64C379.364 510.64 376.748 507.238 376.748 503.041C376.748 498.844 379.364 495.443 382.592 495.443C385.821 495.443 388.437 498.844 388.437 503.041Z" fill="url(#paint36_linear_91_44)"/>
<path d="M385.041 503.195C385.041 504.953 383.945 506.378 382.592 506.378C381.24 506.378 380.144 504.953 380.144 503.195C380.144 501.437 381.24 500.011 382.592 500.011C383.945 500.011 385.041 501.437 385.041 503.195Z" fill="url(#paint37_linear_91_44)"/>
<path d="M380.964 493.768V502.112C380.964 503.338 381.97 504.33 383.208 504.33C383.925 504.33 384.599 503.991 385.021 503.42L392.614 493.145L380.964 493.768Z" fill="#999999"/>
<path d="M247.957 377.16C247.58 377.16 247.26 376.87 247.233 376.492C247.204 376.096 247.506 375.752 247.907 375.723L379.888 366.335C379.945 366.331 380.005 366.335 380.063 366.344L434.701 375.541C435.096 375.607 435.364 375.978 435.295 376.371C435.228 376.762 434.853 377.027 434.455 376.958L379.904 367.775L248.01 377.158C247.992 377.158 247.974 377.158 247.957 377.158V377.16Z" fill="#C2C2C2"/>
<path d="M292.804 390.616C292.732 390.616 292.661 390.605 292.593 390.586L247.748 377.129C247.363 377.013 247.147 376.612 247.264 376.232C247.381 375.851 247.79 375.639 248.172 375.753L292.88 389.169L434.511 375.536C434.918 375.496 435.268 375.785 435.306 376.182C435.346 376.576 435.053 376.929 434.652 376.967L292.876 390.614C292.853 390.616 292.829 390.618 292.806 390.618L292.804 390.616Z" fill="#999999"/>
<path d="M417.508 438.224C417.472 438.224 417.434 438.22 417.396 438.215L363.53 430.048L281.633 437.839C281.237 437.874 280.878 437.587 280.838 437.193C280.8 436.798 281.093 436.447 281.492 436.407L363.48 428.608C363.539 428.602 363.601 428.604 363.66 428.613L417.616 436.795C418.014 436.855 418.286 437.221 418.225 437.614C418.171 437.969 417.86 438.224 417.506 438.224H417.508Z" fill="#C2C2C2"/>
<path d="M320.02 447.386C319.742 447.386 319.484 447.227 319.363 446.975L292.147 390.206C291.975 389.847 292.13 389.419 292.493 389.248C292.854 389.078 293.289 389.23 293.463 389.59L320.461 445.905L417.439 436.791C417.847 436.756 418.194 437.045 418.232 437.439C418.27 437.833 417.977 438.185 417.576 438.222L320.09 447.384C320.067 447.386 320.043 447.387 320.022 447.387L320.02 447.386Z" fill="#999999"/>
<path d="M320.02 447.386C319.961 447.386 319.903 447.378 319.841 447.364L281.383 437.821C281.186 437.773 281.02 437.644 280.923 437.469L247.318 376.786C247.125 376.438 247.255 376.001 247.607 375.81C247.959 375.621 248.402 375.748 248.595 376.096L282.046 436.504L320.195 445.97C320.585 446.067 320.822 446.458 320.723 446.843C320.639 447.17 320.343 447.387 320.018 447.387L320.02 447.386Z" fill="#999999"/>
<path d="M302.702 411.264C302.634 411.264 302.563 411.254 302.498 411.236L260.263 399.001C259.878 398.889 259.656 398.491 259.77 398.109C259.884 397.729 260.288 397.51 260.673 397.622L302.776 409.819L427.643 399.057C428.047 399.017 428.396 399.315 428.43 399.71C428.464 400.106 428.168 400.454 427.769 400.488L302.767 411.262C302.746 411.262 302.726 411.266 302.704 411.266L302.702 411.264Z" fill="#999999"/>
<path d="M313.022 432.787C312.955 432.787 312.89 432.778 312.825 432.76L272.362 421.557C271.976 421.45 271.75 421.054 271.859 420.67C271.967 420.288 272.368 420.064 272.754 420.172L313.088 431.34L421.531 421.964C421.939 421.927 422.284 422.223 422.318 422.617C422.352 423.012 422.056 423.361 421.657 423.395L313.083 432.783C313.061 432.783 313.04 432.787 313.02 432.787H313.022Z" fill="#999999"/>
<path d="M339.925 445.515C339.613 445.515 339.322 445.314 339.229 445.002L321.873 387.452C321.757 387.072 321.978 386.671 322.362 386.558C322.747 386.444 323.153 386.662 323.267 387.042L340.622 444.591C340.738 444.971 340.518 445.373 340.133 445.485C340.065 445.505 339.994 445.515 339.925 445.515Z" fill="#999999"/>
<path d="M359.127 443.709C358.78 443.709 358.473 443.465 358.411 443.115L348.002 384.811C347.932 384.42 348.197 384.047 348.592 383.978C348.988 383.91 349.365 384.17 349.436 384.561L359.845 442.865C359.916 443.256 359.65 443.629 359.255 443.699C359.211 443.706 359.169 443.709 359.127 443.709Z" fill="#999999"/>
<path d="M380.78 441.276C380.397 441.276 380.075 440.979 380.054 440.597L376.773 382.704C376.751 382.308 377.058 381.969 377.459 381.945C377.854 381.924 378.203 382.227 378.226 382.624L381.507 440.517C381.529 440.913 381.222 441.252 380.821 441.276C380.807 441.276 380.794 441.276 380.78 441.276Z" fill="#999999"/>
<path d="M401.297 439.004C401.284 439.004 401.272 439.004 401.259 439.004C400.858 438.982 400.549 438.645 400.571 438.249L403.693 379.433C403.715 379.037 404.054 378.728 404.457 378.753C404.858 378.774 405.166 379.112 405.145 379.508L402.023 438.324C402.003 438.708 401.682 439.006 401.297 439.006V439.004Z" fill="#999999"/>
<path d="M308.39 444.498C308.119 444.498 307.859 444.348 307.735 444.091L279.682 386.467C279.509 386.11 279.661 385.68 280.022 385.507C280.383 385.336 280.818 385.486 280.993 385.843L309.045 443.467C309.219 443.824 309.067 444.254 308.706 444.427C308.605 444.475 308.497 444.498 308.392 444.498H308.39Z" fill="#999999"/>
<path d="M292.804 440.631C292.537 440.631 292.28 440.485 292.152 440.233L262.374 381.281C262.193 380.926 262.339 380.495 262.699 380.318C263.058 380.139 263.495 380.286 263.674 380.639L293.452 439.591C293.633 439.946 293.486 440.378 293.127 440.555C293.022 440.606 292.912 440.629 292.802 440.629L292.804 440.631Z" fill="#999999"/>
<path d="M326.493 500.665C326.401 500.665 326.311 500.647 326.224 500.615L270.746 478.855C270.373 478.709 270.19 478.291 270.338 477.922C270.486 477.552 270.909 477.372 271.283 477.518L326.587 499.21L393.715 491.105C398.805 490.491 402.973 486.937 404.334 482.053L441.019 350.428C442.603 344.745 447.664 340.64 453.613 340.214L473.078 338.818C473.475 338.792 473.827 339.088 473.856 339.484C473.885 339.88 473.584 340.225 473.183 340.253L453.718 341.649C448.382 342.03 443.843 345.712 442.42 350.81L405.735 482.435C404.217 487.884 399.567 491.848 393.89 492.533L326.578 500.659C326.549 500.663 326.52 500.665 326.49 500.665H326.493Z" fill="#999999"/>
<path d="M437.877 334.819C437.877 334.819 432.733 330.344 427.683 331.982C426.962 332.216 425.691 332.705 425.019 333.968C424.293 335.331 424.559 337.105 425.473 338.222C426.778 339.819 429.286 339.821 431.724 337.694C431.509 337.639 430.088 338.308 429.734 337.13C429.734 337.13 429.568 336.575 429.748 336.015C430.389 334.039 437.392 334.805 437.877 334.821V334.819Z" fill="url(#paint38_linear_91_44)"/>
<path d="M209.779 86.7221L365.24 89.8289L400.51 90.5284C407.814 90.6747 413.745 84.8216 413.745 77.789V40.7077C413.745 33.6751 407.866 27.7364 400.562 27.458L210.122 20.2041C207.661 20.1095 205.052 20.5735 203.003 21.4764C198.261 23.5607 194.731 27.9773 194.731 33.1933V72.6105C194.731 80.0857 201.62 86.5597 209.779 86.7239V86.7221Z" fill="#97A6B7"/>
<path d="M416.593 40.6167V77.7283C416.593 84.7663 410.663 90.3749 403.347 90.2268L212.699 86.4009C204.525 86.2367 197.848 80.016 197.848 72.5337V33.0844C197.848 27.8648 201.1 23.4411 205.85 21.3568C207.902 20.4539 210.233 19.9881 212.699 20.0827L403.347 27.3491C410.663 27.6275 416.593 33.5805 416.593 40.6184V40.6167Z" fill="#D8DEE8"/>
<path d="M415.052 40.2188C415.052 34.0873 409.487 28.9231 403.115 28.6822L212.154 21.4997C205.04 21.232 198.653 26.2892 198.653 32.7989V71.7326C198.653 78.2423 204.827 83.6404 211.943 83.7885L402.928 87.7446C409.3 87.8767 415.052 83.014 415.052 76.8826V40.2188Z" fill="white"/>
<path d="M278.348 47.0319L282.088 53.7576L290.383 54.9585C291.273 55.087 291.629 56.0613 290.984 56.6056L284.996 61.677L286.414 68.9755C286.567 69.7625 285.63 70.3567 284.827 69.9802L277.357 66.4737L269.811 69.8856C268.991 70.2568 268.033 69.6429 268.19 68.8471L269.64 61.4932L263.477 56.1827C262.809 55.6063 263.177 54.6266 264.1 54.5249L272.595 53.5916L276.364 46.9855C276.77 46.2735 277.942 46.3002 278.346 47.0283L278.348 47.0319Z" fill="url(#paint39_linear_91_44)"/>
<path d="M309.519 47.7046L313.105 54.2893L321.058 55.4635C321.913 55.5902 322.254 56.5431 321.636 57.0767L315.894 62.0446L317.254 69.1914C317.4 69.9623 316.503 70.5441 315.732 70.1765L308.569 66.7449L301.336 70.0872C300.55 70.4495 299.631 69.8499 299.781 69.0719L301.171 61.8715L295.265 56.6751C294.624 56.1113 294.978 55.1512 295.863 55.0513L304.006 54.1341L307.619 47.6653C308.009 46.9676 309.132 46.9926 309.521 47.7064L309.519 47.7046Z" fill="url(#paint40_linear_91_44)"/>
<path d="M339.416 48.3489L342.858 54.7979L350.492 55.9454C351.312 56.0685 351.639 57.0018 351.046 57.5264L345.534 62.3944L346.839 69.3967C346.98 70.1516 346.117 70.7226 345.379 70.3621L338.505 67.002L331.564 70.2765C330.811 70.6316 329.928 70.0445 330.072 69.2825L331.405 62.2303L325.739 57.1427C325.125 56.5913 325.463 55.6509 326.313 55.5528L334.124 54.6516L337.591 48.3132C337.965 47.6297 339.043 47.6547 339.415 48.3524L339.416 48.3489Z" fill="url(#paint41_linear_91_44)"/>
<path d="M368.119 48.968L371.423 55.2869L378.756 56.4093C379.543 56.5306 379.857 57.4443 379.288 57.9582L373.994 62.7317L375.247 69.5948C375.383 70.3353 374.554 70.8939 373.844 70.5405L367.243 67.2482L360.578 70.4585C359.854 70.8064 359.007 70.2318 359.146 69.4841L360.427 62.5729L354.988 57.5888C354.398 57.0481 354.724 56.1274 355.539 56.031L363.039 55.1459L366.367 48.9324C366.726 48.2632 367.761 48.2864 368.119 48.9698V48.968Z" fill="url(#paint42_linear_91_44)"/>
<path d="M395.694 49.5623L398.87 55.7562L405.92 56.8536C406.676 56.9714 406.979 57.869 406.431 58.3722L401.34 63.0529L402.545 69.7804C402.675 70.5066 401.879 71.0545 401.196 70.7083L394.849 67.4802L388.445 70.628C387.75 70.9706 386.935 70.4049 387.069 69.6733L388.298 62.8976L383.071 58.0135C382.504 57.4836 382.817 56.5806 383.6 56.486L390.806 55.617L394.006 49.5248C394.351 48.8681 395.346 48.8895 395.689 49.5605L395.694 49.5623Z" fill="#D8DEE8"/>
<path d="M362.75 40.4561C362.75 41.848 361.732 42.9383 360.268 42.8902L267.702 39.8191C266.16 39.7673 264.683 38.5646 264.683 37.1352V36.6713C264.683 35.2401 266.247 34.1248 267.789 34.1784L360.114 37.3922C361.577 37.4439 362.75 38.6128 362.75 40.0047V40.4561Z" fill="url(#paint43_linear_91_44)"/>
<path d="M233.049 75.3907C219.976 75.0874 209.27 65.039 209.27 52.9938C209.27 40.9486 219.976 31.523 233.049 31.9816C246.029 32.4367 256.52 42.4797 256.52 54.3696C256.52 66.2596 246.027 75.6923 233.049 75.3907Z" fill="url(#paint44_linear_91_44)"/>
<path d="M254.629 54.3143C254.629 65.2656 244.998 73.915 233.049 73.6313C221.019 73.3457 211.209 64.1307 211.209 53.0491C211.209 41.9676 221.019 33.3236 233.049 33.7394C245 34.1534 254.629 43.363 254.629 54.3143Z" fill="url(#paint45_linear_91_44)"/>
<mask id="mask3_91_44" style="mask-type:luminance" maskUnits="userSpaceOnUse" x="211" y="33" width="44" height="41">
<path d="M254.629 54.3143C254.629 65.2656 244.998 73.915 233.049 73.6313C221.019 73.3457 211.209 64.1307 211.209 53.0491C211.209 41.9676 221.019 33.3236 233.049 33.7394C245 34.1534 254.629 43.363 254.629 54.3143Z" fill="white"/>
</mask>
<g mask="url(#mask3_91_44)">
<path d="M243.44 49.7372C243.44 54.9835 238.818 59.1092 233.101 58.9504C227.366 58.7916 222.702 54.3857 222.702 49.1091C222.702 43.8324 227.365 39.7085 233.101 39.8976C238.818 40.085 243.44 44.4908 243.44 49.7372Z" fill="white"/>
<path d="M248.021 74.6039C247.328 67.4963 240.903 61.8592 233.047 61.6486C225.156 61.4362 218.654 66.7664 217.95 73.8972L248.021 74.6039Z" fill="white"/>
</g>
<g style="mix-blend-mode:multiply" opacity="0.3">
<path d="M368.303 89.5237L212.697 86.4008C204.523 86.2367 197.846 80.016 197.846 72.5337V33.0844C197.846 27.8648 201.098 23.4411 205.849 21.3568C206.354 21.6834 206.856 22.0171 207.347 22.3633C207.454 22.4382 207.56 22.5167 207.667 22.5935C212.408 25.9875 216.431 30.3202 218.813 35.8521C219.057 36.4249 219.29 37.0102 219.497 37.6116C219.501 37.6205 219.504 37.6294 219.506 37.6383C220.644 40.8879 221.864 43.9679 223.211 46.8587C227.408 55.8418 232.841 62.9475 240.912 67.3837C242.586 68.3027 244.372 69.1111 246.282 69.7928C246.975 70.0408 247.689 70.2746 248.416 70.4887C256.273 72.8192 266.113 73.2314 278.651 71.306C279.578 71.1632 280.493 71.0223 281.412 70.8831C281.927 70.8028 282.44 70.726 282.956 70.6493C288.723 69.7803 294.368 68.979 299.907 68.4205C300.292 68.3848 300.678 68.3456 301.063 68.3099C302.733 68.151 304.391 68.019 306.043 67.9137C307.289 67.8334 308.529 67.771 309.764 67.7228C310.028 67.7156 310.29 67.7049 310.553 67.6996C311.87 67.6585 313.181 67.6389 314.482 67.646C315.311 67.6496 316.14 67.6639 316.967 67.6853C319.061 67.746 321.147 67.8673 323.218 68.0672C325.533 68.2902 327.831 68.6061 330.117 69.0361C331.063 69.211 332.01 69.4073 332.95 69.6215C344.302 72.2125 355.398 77.6694 366.459 87.7963C367.051 88.3388 367.646 88.8938 368.238 89.4648C368.259 89.4844 368.283 89.5058 368.303 89.529V89.5237Z" fill="#D8DEE8"/>
</g>
<path d="M414.957 220.484L223.908 223.472C221.438 223.511 219.145 224.105 217.09 225.119C212.333 227.462 209.117 232.066 209.117 237.291V276.774C209.117 284.261 215.787 290.384 223.975 290.107L379.761 284.847L414.877 283.662C422.204 283.414 428.132 277.24 428.132 270.196V233.054C428.132 226.011 422.288 220.37 414.96 220.484H414.957Z" fill="#97A6B7"/>
<path d="M431.799 233.11V270.28C431.799 277.329 425.85 283.266 418.51 283.514L227.227 289.956C219.026 290.232 212.325 284.36 212.325 276.865V237.348C212.325 232.119 215.588 227.514 220.355 225.169C222.413 224.153 224.752 223.561 227.227 223.523L418.51 220.533C425.85 220.419 431.799 226.061 431.799 233.11Z" fill="#D8DEE8"/>
<path d="M429.436 232.833C429.436 226.693 424.265 221.798 417.871 221.901L226.754 224.963C219.614 225.078 213.69 230.46 213.69 236.98V275.978C213.69 282.498 219.609 287.593 226.747 287.358L417.815 281.058C424.209 280.848 429.434 275.696 429.434 269.556V232.833H429.436Z" fill="white"/>
<path d="M293.102 246.982L296.854 253.517L305.176 254.273C306.07 254.356 306.426 255.31 305.779 255.892L299.772 261.294L301.195 268.528C301.348 269.309 300.408 269.954 299.602 269.62L292.107 266.511L284.536 270.335C283.713 270.751 282.752 270.189 282.909 269.383L284.364 261.938L278.182 256.952C277.51 256.411 277.88 255.408 278.809 255.258L287.333 253.867L291.114 247.046C291.522 246.311 292.697 246.274 293.104 246.982H293.102Z" fill="url(#paint46_linear_91_44)"/>
<path d="M324.375 245.976L327.972 252.378L335.953 253.126C336.811 253.206 337.152 254.143 336.533 254.711L330.771 259.996L332.136 267.082C332.284 267.848 331.381 268.478 330.61 268.151L323.424 265.1L316.167 268.836C315.378 269.241 314.457 268.69 314.607 267.903L316.001 260.615L310.075 255.728C309.432 255.198 309.786 254.218 310.674 254.07L318.845 252.714L322.469 246.038C322.859 245.319 323.985 245.283 324.375 245.977V245.976Z" fill="url(#paint47_linear_91_44)"/>
<path d="M354.372 245.01L357.825 251.284L365.484 252.021C366.308 252.1 366.634 253.017 366.04 253.574L360.51 258.747L361.819 265.69C361.96 266.44 361.095 267.057 360.354 266.736L353.459 263.74L346.496 267.395C345.74 267.791 344.855 267.25 344.999 266.479L346.337 259.343L340.653 254.552C340.036 254.032 340.377 253.072 341.229 252.928L349.066 251.606L352.543 245.069C352.917 244.364 353.999 244.33 354.374 245.01H354.372Z" fill="url(#paint48_linear_91_44)"/>
<path d="M383.169 244.084L386.484 250.235L393.842 250.963C394.633 251.042 394.947 251.941 394.376 252.485L389.064 257.551L390.323 264.357C390.458 265.093 389.627 265.696 388.916 265.38L382.293 262.437L375.607 266.012C374.881 266.401 374.03 265.869 374.169 265.112L375.453 258.121L369.997 253.422C369.404 252.912 369.731 251.973 370.549 251.832L378.073 250.542L381.412 244.139C381.771 243.449 382.809 243.417 383.169 244.082V244.084Z" fill="#D8DEE8"/>
<path d="M410.834 243.194L414.021 249.225L421.094 249.944C421.854 250.021 422.158 250.904 421.607 251.438L416.5 256.4L417.71 263.074C417.84 263.795 417.042 264.386 416.358 264.075L409.991 261.185L403.565 264.682C402.868 265.062 402.05 264.541 402.184 263.799L403.419 256.946L398.175 252.335C397.606 251.836 397.921 250.913 398.706 250.778L405.936 249.518L409.144 243.244C409.491 242.567 410.488 242.535 410.833 243.19L410.834 243.194Z" fill="#D8DEE8"/>
<path d="M377.788 235.843C377.788 237.237 376.764 238.386 375.296 238.417L282.915 240.315C281.367 240.347 280.378 239.209 280.378 237.776V237.312C280.378 235.879 281.454 234.692 283.001 234.662L375.388 232.911C376.856 232.883 377.79 233.996 377.79 235.392V235.843H377.788Z" fill="url(#paint49_linear_91_44)"/>
<path d="M247.647 277.83C234.529 278.232 223.787 268.742 223.787 256.675C223.787 244.609 234.529 234.591 247.647 234.346C260.671 234.103 271.2 243.597 271.2 255.508C271.2 267.42 260.671 277.432 247.647 277.83Z" fill="url(#paint50_linear_91_44)"/>
<path d="M269.302 255.556C269.302 266.526 259.638 275.708 247.647 276.069C235.576 276.431 225.734 267.728 225.734 256.629C225.734 245.529 235.578 236.341 247.647 236.109C259.638 235.879 269.302 244.587 269.302 255.556Z" fill="url(#paint51_linear_91_44)"/>
<mask id="mask4_91_44" style="mask-type:luminance" maskUnits="userSpaceOnUse" x="225" y="236" width="45" height="41">
<path d="M269.302 255.556C269.302 266.526 259.638 275.708 247.647 276.069C235.576 276.431 225.734 267.728 225.734 256.629C225.734 245.529 235.578 236.341 247.647 236.109C259.638 235.879 269.302 244.587 269.302 255.556Z" fill="white"/>
</mask>
<g mask="url(#mask4_91_44)">
<path d="M258.075 251.573C258.075 256.829 253.438 261.21 247.701 261.359C241.947 261.509 237.268 257.346 237.268 252.062C237.268 246.778 241.947 242.396 247.701 242.274C253.438 242.155 258.075 246.318 258.075 251.573Z" fill="white"/>
<path d="M262.672 276.233C261.977 269.15 255.53 263.85 247.647 264.061C239.729 264.273 233.206 269.964 232.498 277.145L262.672 276.233Z" fill="white"/>
</g>
<g style="mix-blend-mode:multiply" opacity="0.3">
<path d="M383.354 284.697L227.229 289.954C219.028 290.23 212.327 284.358 212.327 276.863V237.346C212.327 232.117 215.59 227.512 220.357 225.167C220.864 225.467 221.366 225.775 221.861 226.095C221.967 226.164 222.075 226.236 222.182 226.309C226.94 229.453 230.977 233.577 233.366 238.989C233.612 239.55 233.843 240.122 234.052 240.715C234.056 240.724 234.059 240.733 234.061 240.742C235.202 243.936 236.427 246.955 237.779 249.778C241.99 258.551 247.441 265.376 255.539 269.384C257.218 270.216 259.01 270.928 260.927 271.508C261.622 271.718 262.337 271.915 263.069 272.089C270.952 274.001 280.825 273.883 293.405 271.279C294.335 271.087 295.252 270.896 296.175 270.706C296.691 270.599 297.206 270.494 297.724 270.389C303.511 269.208 309.174 268.101 314.731 267.243C315.118 267.186 315.506 267.125 315.891 267.07C317.566 266.822 319.229 266.599 320.887 266.406C322.138 266.26 323.382 266.129 324.621 266.013C324.884 265.992 325.148 265.967 325.412 265.947C326.733 265.835 328.048 265.744 329.353 265.681C330.186 265.64 331.016 265.61 331.845 265.587C333.947 265.533 336.04 265.544 338.116 265.633C340.438 265.731 342.744 265.924 345.039 266.231C345.989 266.356 346.937 266.5 347.881 266.665C359.271 268.649 370.403 273.517 381.5 283.064C382.094 283.576 382.692 284.099 383.286 284.64C383.307 284.659 383.331 284.677 383.351 284.7L383.354 284.697Z" fill="#D8DEE8"/>
</g>
<path d="M480.201 125.838L297.712 124.002C295.355 123.979 292.862 124.498 290.903 125.436C286.365 127.606 282.992 132.018 282.992 137.121V175.678C282.992 182.991 289.581 189.144 297.39 189.081L446.317 187.886L480.147 187.616C487.155 187.559 492.851 181.672 492.851 174.784V138.46C492.851 131.571 487.207 125.911 480.199 125.84L480.201 125.838Z" fill="#97A6B7"/>
<path d="M495.813 138.441V174.791C495.813 181.685 490.123 187.34 483.105 187.395L300.431 188.851C292.609 188.914 286.219 183.009 286.219 175.691V137.101C286.219 131.994 289.332 127.579 293.876 125.408C295.839 124.467 298.071 123.948 300.431 123.971L483.105 125.811C490.123 125.882 495.813 131.548 495.813 138.441Z" fill="#D8DEE8"/>
<path d="M493.505 138.117C493.505 132.112 488.581 127.194 482.469 127.135L300.312 125.368C293.503 125.302 288.221 130.41 288.221 136.778V174.861C288.221 181.23 293.513 186.353 300.323 186.303L482.588 184.981C488.702 184.936 493.505 180.034 493.505 174.029V138.115V138.117Z" fill="white"/>
<path d="M363.288 148.531L366.871 155.01L374.816 155.958C375.668 156.06 376.009 157.002 375.392 157.553L369.655 162.68L371.013 169.786C371.159 170.553 370.262 171.16 369.493 170.814L362.337 167.587L355.109 171.133C354.324 171.519 353.404 170.944 353.556 170.162L354.945 162.925L349.044 157.898C348.403 157.352 348.757 156.383 349.642 156.258L357.778 155.11L361.387 148.542C361.775 147.833 362.898 147.828 363.287 148.529L363.288 148.531Z" fill="url(#paint52_linear_91_44)"/>
<path d="M393.152 148.331L396.588 154.678L404.209 155.608C405.027 155.708 405.354 156.631 404.762 157.171L399.258 162.191L400.562 169.151C400.703 169.902 399.842 170.496 399.105 170.157L392.242 166.993L385.312 170.462C384.559 170.839 383.678 170.277 383.822 169.511L385.155 162.425L379.496 157.5C378.882 156.966 379.221 156.017 380.068 155.896L387.87 154.775L391.332 148.344C391.705 147.651 392.782 147.644 393.154 148.331H393.152Z" fill="url(#paint53_linear_91_44)"/>
<path d="M421.804 148.14L425.102 154.359L432.421 155.273C433.206 155.371 433.52 156.276 432.952 156.806L427.668 161.724L428.92 168.544C429.055 169.279 428.228 169.863 427.52 169.529L420.931 166.427L414.28 169.823C413.557 170.193 412.712 169.641 412.849 168.89L414.128 161.948L408.698 157.123C408.11 156.6 408.435 155.671 409.247 155.551L416.733 154.455L420.056 148.154C420.413 147.476 421.446 147.469 421.804 148.142V148.14Z" fill="url(#paint54_linear_91_44)"/>
<path d="M449.319 147.955L452.488 154.05L459.521 154.948C460.276 155.044 460.577 155.931 460.032 156.451L454.955 161.27L456.157 167.957C456.287 168.678 455.493 169.249 454.812 168.922L448.482 165.88L442.091 169.206C441.398 169.566 440.586 169.026 440.719 168.291L441.947 161.488L436.732 156.757C436.167 156.244 436.48 155.333 437.26 155.217L444.45 154.145L447.642 147.971C447.985 147.305 448.978 147.3 449.321 147.96L449.319 147.955Z" fill="url(#paint55_linear_91_44)"/>
<path d="M475.765 147.778L478.811 153.756L485.573 154.637C486.299 154.732 486.589 155.603 486.064 156.111L481.182 160.837L482.337 167.393C482.462 168.101 481.698 168.66 481.044 168.339L474.958 165.351L468.815 168.61C468.149 168.963 467.367 168.433 467.495 167.712L468.674 161.044L463.662 156.404C463.118 155.901 463.418 155.009 464.169 154.894L471.081 153.845L474.149 147.79C474.479 147.137 475.434 147.132 475.763 147.78L475.765 147.778Z" fill="url(#paint56_linear_91_44)"/>
<path d="M444.473 139.759C444.473 141.122 443.347 142.221 441.944 142.214L353.235 141.757C351.758 141.75 350.33 140.611 350.33 139.211V138.757C350.33 137.357 351.763 136.227 353.24 136.238L441.83 136.834C443.233 136.843 444.473 137.954 444.473 139.316V139.759Z" fill="url(#paint57_linear_91_44)"/>
<path d="M319.91 177.525C307.395 177.586 297.15 168.048 297.15 156.263C297.15 144.478 307.395 134.964 319.91 135.051C332.336 135.138 342.385 144.676 342.385 156.313C342.385 167.95 332.338 177.464 319.91 177.525Z" fill="url(#paint58_linear_91_44)"/>
<path d="M340.574 156.311C340.574 167.027 331.352 175.755 319.91 175.805C308.396 175.855 299.005 167.107 299.005 156.267C299.005 145.426 308.394 136.698 319.91 136.773C331.352 136.848 340.574 145.595 340.574 156.311Z" fill="url(#paint59_linear_91_44)"/>
<mask id="mask5_91_44" style="mask-type:luminance" maskUnits="userSpaceOnUse" x="299" y="136" width="42" height="40">
<path d="M340.574 156.311C340.574 167.027 331.352 175.755 319.91 175.805C308.396 175.855 299.005 167.107 299.005 156.267C299.005 145.426 308.394 136.698 319.91 136.773C331.352 136.848 340.574 145.595 340.574 156.311Z" fill="white"/>
</mask>
<g mask="url(#mask5_91_44)">
<path d="M329.859 152.139C329.859 157.273 325.434 161.436 319.961 161.438C314.47 161.44 310.006 157.257 310.006 152.095C310.006 146.932 314.47 142.769 319.961 142.796C325.434 142.822 329.859 147.005 329.859 152.139Z" fill="white"/>
<path d="M334.247 176.344C333.584 169.408 327.433 164.068 319.91 164.077C312.357 164.086 306.132 169.479 305.458 176.476L334.247 176.346V176.344Z" fill="white"/>
</g>
<g style="mix-blend-mode:multiply" opacity="0.3">
<path d="M449.498 187.664L300.431 188.853C292.609 188.915 286.219 183.011 286.219 175.692V137.103C286.219 131.996 289.332 127.581 293.876 125.41C294.36 125.715 294.841 126.029 295.31 126.354C295.413 126.423 295.514 126.496 295.617 126.569C300.156 129.758 304.006 133.888 306.285 139.232C306.519 139.785 306.74 140.351 306.94 140.934C306.944 140.943 306.946 140.952 306.949 140.961C308.038 144.109 309.206 147.089 310.495 149.88C314.513 158.554 319.713 165.357 327.439 169.475C329.041 170.33 330.751 171.071 332.582 171.684C333.246 171.908 333.927 172.118 334.624 172.305C342.148 174.372 351.57 174.504 363.579 172.277C364.468 172.113 365.343 171.949 366.223 171.786C366.716 171.693 367.207 171.604 367.701 171.515C373.227 170.505 378.633 169.568 383.939 168.869C384.308 168.822 384.678 168.774 385.046 168.728C386.648 168.526 388.235 168.351 389.819 168.205C391.014 168.092 392.2 167.998 393.385 167.916C393.637 167.901 393.888 167.884 394.141 167.871C395.403 167.796 396.658 167.739 397.906 167.71C398.7 167.693 399.495 167.682 400.286 167.68C402.292 167.68 404.291 167.744 406.277 167.884C408.494 168.039 410.699 168.285 412.889 168.642C413.795 168.788 414.702 168.952 415.605 169.138C426.485 171.363 437.122 176.403 447.727 186.016C448.296 186.531 448.864 187.058 449.433 187.6C449.453 187.62 449.477 187.638 449.496 187.661L449.498 187.664Z" fill="#D8DEE8"/>
</g>
<path d="M89.2519 410.243C88.5926 410.243 88.0358 409.733 87.9699 409.05C86.8418 396.917 82.9812 385.392 77.1061 376.593C71.8976 368.8 65.7002 364.145 60.5138 364.145H60.4991C41.6285 364.183 37.68 408.584 37.6434 409.035C37.5848 409.763 36.9621 410.296 36.2515 410.236C35.541 410.176 35.0208 409.53 35.0795 408.809C35.2406 406.88 39.2843 361.547 60.4991 361.51H60.5211C66.6452 361.51 73.4653 366.465 79.2378 375.107C85.362 384.266 89.3764 396.234 90.5412 408.802C90.6071 409.53 90.087 410.176 89.3837 410.243C89.3398 410.243 89.3031 410.243 89.2592 410.243H89.2519Z" fill="#3C11DE"/>
<path d="M10.6425 501.621L35.4835 514.512L50.5301 467.175L25.7331 403.719L18.7006 405.483L8.03463 496.628C7.79289 498.693 8.83312 500.69 10.6425 501.629V501.621Z" fill="#FFC614"/>
<path d="M50.5294 467.183L25.7324 403.719L21.5861 404.763C21.0074 413.231 21.2638 420.206 21.6521 425.281C23.315 446.889 28.8384 452.895 26.1573 467.971C23.9303 480.502 19.0735 482.206 19.4983 490.637C19.9599 499.819 26.2085 507.507 33.6366 513.559L35.468 514.512L50.5147 467.175L50.5294 467.183Z" fill="#B27822"/>
<path d="M25.7327 403.719H118.35L149 505.135L35.483 514.512L25.7327 403.719Z" fill="#FDCD45"/>
<path d="M118.35 403.719H72.4041C70.1405 406.084 68.5289 408.802 68.3751 411.857C67.6498 426.205 99.8383 430.92 102.944 450.583C105.186 464.773 91.4066 481.14 79.1143 488.43C66.1628 496.11 57.3868 492.221 48.6254 500.75C44.7795 504.497 42.4353 509.182 41.0361 514.047L149 505.127L118.35 403.711V403.719Z" fill="#FDB235"/>
<path d="M54.4273 412.413C53.8413 412.413 53.3138 412 53.1747 411.392C52.9109 410.243 46.8234 383.065 55.4089 369.731C57.8703 365.909 61.306 363.574 65.6208 362.794C87.8025 358.792 101.457 407.608 102.029 409.695C102.219 410.401 101.824 411.129 101.135 411.324C100.446 411.52 99.7358 411.114 99.5454 410.408C99.4135 409.92 85.9711 361.795 66.0676 365.399C62.4268 366.06 59.6431 367.952 57.5627 371.187C49.5851 383.583 55.6287 410.521 55.6873 410.791C55.8485 411.505 55.4163 412.21 54.7277 412.375C54.6251 412.398 54.5299 412.413 54.4346 412.413H54.4273Z" fill="#260B8E"/>
<path d="M54.4333 416.302C56.4198 416.302 58.0301 414.652 58.0301 412.616C58.0301 410.58 56.4198 408.93 54.4333 408.93C52.4468 408.93 50.8364 410.58 50.8364 412.616C50.8364 414.652 52.4468 416.302 54.4333 416.302Z" fill="#260B8E"/>
<path d="M101.383 415.957C103.37 415.957 104.98 414.307 104.98 412.271C104.98 410.235 103.37 408.584 101.383 408.584C99.397 408.584 97.7866 410.235 97.7866 412.271C97.7866 414.307 99.397 415.957 101.383 415.957Z" fill="#260B8E"/>
<defs>
<linearGradient id="paint0_linear_91_44" x1="280.058" y1="245.962" x2="197.657" y2="472.263" gradientUnits="userSpaceOnUse">
<stop stop-color="#FFC444"/>
<stop offset="1" stop-color="#F36F56"/>
</linearGradient>
<linearGradient id="paint1_linear_91_44" x1="-6.94284" y1="314.087" x2="165.421" y2="478.014" gradientUnits="userSpaceOnUse">
<stop stop-color="#AA80F9"/>
<stop offset="1" stop-color="#6165D7"/>
</linearGradient>
<linearGradient id="paint2_linear_91_44" x1="22.9712" y1="225.934" x2="132.347" y2="415.298" gradientUnits="userSpaceOnUse">
<stop stop-color="#FF9085"/>
<stop offset="1" stop-color="#FB6FBB"/>
</linearGradient>
<linearGradient id="paint3_linear_91_44" x1="15.7502" y1="285.566" x2="391.407" y2="271.034" gradientUnits="userSpaceOnUse">
<stop stop-color="#444B8C"/>
<stop offset="1" stop-color="#26264F"/>
</linearGradient>
<linearGradient id="paint4_linear_91_44" x1="29.361" y1="293.494" x2="263.824" y2="293.494" gradientUnits="userSpaceOnUse">
<stop stop-color="#E38DDD"/>
<stop offset="1" stop-color="#9571F6"/>
</linearGradient>
<linearGradient id="paint5_linear_91_44" x1="216.885" y1="145.274" x2="-137.704" y2="889.477" gradientUnits="userSpaceOnUse">
<stop stop-color="#E38DDD"/>
<stop offset="1" stop-color="#9571F6"/>
</linearGradient>
<linearGradient id="paint6_linear_91_44" x1="135.852" y1="191.346" x2="162.463" y2="191.346" gradientUnits="userSpaceOnUse">
<stop stop-color="#FF9085"/>
<stop offset="1" stop-color="#FB6FBB"/>
</linearGradient>
<linearGradient id="paint7_linear_91_44" x1="188.814" y1="191.346" x2="215.424" y2="191.346" gradientUnits="userSpaceOnUse">
<stop stop-color="#FF9085"/>
<stop offset="1" stop-color="#FB6FBB"/>
</linearGradient>
<linearGradient id="paint8_linear_91_44" x1="241.777" y1="191.346" x2="268.387" y2="191.346" gradientUnits="userSpaceOnUse">
<stop stop-color="#FF9085"/>
<stop offset="1" stop-color="#FB6FBB"/>
</linearGradient>
<linearGradient id="paint9_linear_91_44" x1="26.7607" y1="146.639" x2="322.418" y2="146.639" gradientUnits="userSpaceOnUse">
<stop stop-color="#FF9085"/>
<stop offset="1" stop-color="#FB6FBB"/>
</linearGradient>
<linearGradient id="paint10_linear_91_44" x1="294.875" y1="200.152" x2="321.212" y2="200.152" gradientUnits="userSpaceOnUse">
<stop stop-color="#FF9085"/>
<stop offset="1" stop-color="#FB6FBB"/>
</linearGradient>
<linearGradient id="paint11_linear_91_44" x1="459.715" y1="236.093" x2="478.597" y2="252.491" gradientUnits="userSpaceOnUse">
<stop stop-color="#311944"/>
<stop offset="1" stop-color="#6B3976"/>
</linearGradient>
<linearGradient id="paint12_linear_91_44" x1="493.023" y1="409.623" x2="540.984" y2="442.628" gradientUnits="userSpaceOnUse">
<stop stop-color="#AB316D"/>
<stop offset="1" stop-color="#792D3D"/>
</linearGradient>
<linearGradient id="paint13_linear_91_44" x1="448.59" y1="399.139" x2="490.549" y2="382.581" gradientUnits="userSpaceOnUse">
<stop stop-color="#40447E"/>
<stop offset="1" stop-color="#3C3B6B"/>
</linearGradient>
<linearGradient id="paint14_linear_91_44" x1="448.59" y1="399.139" x2="490.549" y2="382.581" gradientUnits="userSpaceOnUse">
<stop stop-color="#40447E"/>
<stop offset="1" stop-color="#3C3B6B"/>
</linearGradient>
<linearGradient id="paint15_linear_91_44" x1="423.138" y1="277.98" x2="457.841" y2="311.357" gradientUnits="userSpaceOnUse">
<stop stop-color="#AA80F9"/>
<stop offset="1" stop-color="#6165D7"/>
</linearGradient>
<linearGradient id="paint16_linear_91_44" x1="473.509" y1="456.822" x2="482.387" y2="511.318" gradientUnits="userSpaceOnUse">
<stop stop-color="#AB316D"/>
<stop offset="1" stop-color="#792D3D"/>
</linearGradient>
<linearGradient id="paint17_linear_91_44" x1="469.01" y1="364.21" x2="495.93" y2="417.763" gradientUnits="userSpaceOnUse">
<stop stop-color="#40447E"/>
<stop offset="1" stop-color="#3C3B6B"/>
</linearGradient>
<linearGradient id="paint18_linear_91_44" x1="481.36" y1="354.556" x2="498.513" y2="413.378" gradientUnits="userSpaceOnUse">
<stop stop-color="#40447E"/>
<stop offset="1" stop-color="#3C3B6B"/>
</linearGradient>
<linearGradient id="paint19_linear_91_44" x1="462.846" y1="298.992" x2="560.614" y2="357.57" gradientUnits="userSpaceOnUse">
<stop stop-color="#AA80F9"/>
<stop offset="1" stop-color="#6165D7"/>
</linearGradient>
<linearGradient id="paint20_linear_91_44" x1="477.616" y1="284.356" x2="458.471" y2="241.491" gradientUnits="userSpaceOnUse">
<stop stop-color="#311944"/>
<stop offset="1" stop-color="#893976"/>
</linearGradient>
<linearGradient id="paint21_linear_91_44" x1="451.921" y1="274.719" x2="465.573" y2="251.519" gradientUnits="userSpaceOnUse">
<stop stop-color="#311944"/>
<stop offset="1" stop-color="#A03976"/>
</linearGradient>
<linearGradient id="paint22_linear_91_44" x1="460.631" y1="298.523" x2="561.012" y2="358.666" gradientUnits="userSpaceOnUse">
<stop stop-color="#AA80F9"/>
<stop offset="1" stop-color="#6165D7"/>
</linearGradient>
<linearGradient id="paint23_linear_91_44" x1="487.411" y1="288.057" x2="538.142" y2="320.583" gradientUnits="userSpaceOnUse">
<stop stop-color="#AA80F9"/>
<stop offset="1" stop-color="#6165D7"/>
</linearGradient>
<linearGradient id="paint24_linear_91_44" x1="460.599" y1="307.379" x2="483.681" y2="307.379" gradientUnits="userSpaceOnUse">
<stop stop-color="#311944"/>
<stop offset="1" stop-color="#A03976"/>
</linearGradient>
<linearGradient id="paint25_linear_91_44" x1="265.571" y1="481.574" x2="268.774" y2="484.299" gradientUnits="userSpaceOnUse">
<stop stop-color="#AA80F9"/>
<stop offset="1" stop-color="#6165D7"/>
</linearGradient>
<linearGradient id="paint26_linear_91_44" x1="267.669" y1="487.679" x2="279.359" y2="487.679" gradientUnits="userSpaceOnUse">
<stop stop-color="#AA80F9"/>
<stop offset="1" stop-color="#6165D7"/>
</linearGradient>
<linearGradient id="paint27_linear_91_44" x1="271.064" y1="487.831" x2="275.963" y2="487.831" gradientUnits="userSpaceOnUse">
<stop stop-color="#40447E"/>
<stop offset="1" stop-color="#3C3B6B"/>
</linearGradient>
<linearGradient id="paint28_linear_91_44" x1="328.147" y1="474.911" x2="331.349" y2="477.636" gradientUnits="userSpaceOnUse">
<stop stop-color="#AA80F9"/>
<stop offset="1" stop-color="#6165D7"/>
</linearGradient>
<linearGradient id="paint29_linear_91_44" x1="330.245" y1="481.016" x2="341.935" y2="481.016" gradientUnits="userSpaceOnUse">
<stop stop-color="#AA80F9"/>
<stop offset="1" stop-color="#6165D7"/>
</linearGradient>
<linearGradient id="paint30_linear_91_44" x1="333.64" y1="481.169" x2="338.539" y2="481.169" gradientUnits="userSpaceOnUse">
<stop stop-color="#40447E"/>
<stop offset="1" stop-color="#3C3B6B"/>
</linearGradient>
<linearGradient id="paint31_linear_91_44" x1="420.041" y1="337.489" x2="474.587" y2="337.489" gradientUnits="userSpaceOnUse">
<stop stop-color="#40447E"/>
<stop offset="1" stop-color="#3C3B6B"/>
</linearGradient>
<linearGradient id="paint32_linear_91_44" x1="320.473" y1="502.297" x2="323.676" y2="505.022" gradientUnits="userSpaceOnUse">
<stop stop-color="#AA80F9"/>
<stop offset="1" stop-color="#6165D7"/>
</linearGradient>
<linearGradient id="paint33_linear_91_44" x1="322.57" y1="508.402" x2="334.259" y2="508.402" gradientUnits="userSpaceOnUse">
<stop stop-color="#AA80F9"/>
<stop offset="1" stop-color="#6165D7"/>
</linearGradient>
<linearGradient id="paint34_linear_91_44" x1="325.964" y1="508.555" x2="330.863" y2="508.555" gradientUnits="userSpaceOnUse">
<stop stop-color="#40447E"/>
<stop offset="1" stop-color="#3C3B6B"/>
</linearGradient>
<linearGradient id="paint35_linear_91_44" x1="374.651" y1="496.937" x2="377.852" y2="499.661" gradientUnits="userSpaceOnUse">
<stop stop-color="#AA80F9"/>
<stop offset="1" stop-color="#6165D7"/>
</linearGradient>
<linearGradient id="paint36_linear_91_44" x1="376.748" y1="503.041" x2="388.437" y2="503.041" gradientUnits="userSpaceOnUse">
<stop stop-color="#AA80F9"/>
<stop offset="1" stop-color="#6165D7"/>
</linearGradient>
<linearGradient id="paint37_linear_91_44" x1="380.142" y1="503.195" x2="385.041" y2="503.195" gradientUnits="userSpaceOnUse">
<stop stop-color="#40447E"/>
<stop offset="1" stop-color="#3C3B6B"/>
</linearGradient>
<linearGradient id="paint38_linear_91_44" x1="436.855" y1="326.12" x2="431.056" y2="335.19" gradientUnits="userSpaceOnUse">
<stop stop-color="#311944"/>
<stop offset="1" stop-color="#A03976"/>
</linearGradient>
<linearGradient id="paint39_linear_91_44" x1="271.232" y1="25.8413" x2="301.117" y2="178.314" gradientUnits="userSpaceOnUse">
<stop stop-color="#FFC444"/>
<stop offset="1" stop-color="#F36F56"/>
</linearGradient>
<linearGradient id="paint40_linear_91_44" x1="301.462" y1="21.4015" x2="331.067" y2="172.448" gradientUnits="userSpaceOnUse">
<stop stop-color="#FFC444"/>
<stop offset="1" stop-color="#F36F56"/>
</linearGradient>
<linearGradient id="paint41_linear_91_44" x1="330.457" y1="17.1491" x2="359.795" y2="166.831" gradientUnits="userSpaceOnUse">
<stop stop-color="#FFC444"/>
<stop offset="1" stop-color="#F36F56"/>
</linearGradient>
<linearGradient id="paint42_linear_91_44" x1="358.292" y1="13.0752" x2="387.374" y2="161.447" gradientUnits="userSpaceOnUse">
<stop stop-color="#FFC444"/>
<stop offset="1" stop-color="#F36F56"/>
</linearGradient>
<linearGradient id="paint43_linear_91_44" x1="311.12" y1="25.6022" x2="316.214" y2="51.5945" gradientUnits="userSpaceOnUse">
<stop stop-color="#FF9085"/>
<stop offset="1" stop-color="#FB6FBB"/>
</linearGradient>
<linearGradient id="paint44_linear_91_44" x1="236.636" y1="36.4464" x2="202.522" y2="197.335" gradientUnits="userSpaceOnUse">
<stop stop-color="#FF9085"/>
<stop offset="1" stop-color="#FB6FBB"/>
</linearGradient>
<linearGradient id="paint45_linear_91_44" x1="211.208" y1="53.6826" x2="254.629" y2="53.6826" gradientUnits="userSpaceOnUse">
<stop stop-color="#FF9085"/>
<stop offset="1" stop-color="#FB6FBB"/>
</linearGradient>
<linearGradient id="paint46_linear_91_44" x1="286.047" y1="226.197" x2="315.449" y2="376.2" gradientUnits="userSpaceOnUse">
<stop stop-color="#FFC444"/>
<stop offset="1" stop-color="#F36F56"/>
</linearGradient>
<linearGradient id="paint47_linear_91_44" x1="316.396" y1="220.151" x2="345.531" y2="368.802" gradientUnits="userSpaceOnUse">
<stop stop-color="#FFC444"/>
<stop offset="1" stop-color="#F36F56"/>
</linearGradient>
<linearGradient id="paint48_linear_91_44" x1="345.505" y1="214.353" x2="374.388" y2="361.711" gradientUnits="userSpaceOnUse">
<stop stop-color="#FFC444"/>
<stop offset="1" stop-color="#F36F56"/>
</linearGradient>
<linearGradient id="paint49_linear_91_44" x1="326.958" y1="226" x2="331.098" y2="247.122" gradientUnits="userSpaceOnUse">
<stop stop-color="#FF9085"/>
<stop offset="1" stop-color="#FB6FBB"/>
</linearGradient>
<linearGradient id="paint50_linear_91_44" x1="251.289" y1="238.606" x2="216.679" y2="401.843" gradientUnits="userSpaceOnUse">
<stop stop-color="#FF9085"/>
<stop offset="1" stop-color="#FB6FBB"/>
</linearGradient>
<linearGradient id="paint51_linear_91_44" x1="225.734" y1="256.092" x2="269.302" y2="256.092" gradientUnits="userSpaceOnUse">
<stop stop-color="#FF9085"/>
<stop offset="1" stop-color="#FB6FBB"/>
</linearGradient>
<linearGradient id="paint52_linear_91_44" x1="356.395" y1="128.047" x2="385.327" y2="275.666" gradientUnits="userSpaceOnUse">
<stop stop-color="#FFC444"/>
<stop offset="1" stop-color="#F36F56"/>
</linearGradient>
<linearGradient id="paint53_linear_91_44" x1="385.342" y1="122.886" x2="414.017" y2="269.183" gradientUnits="userSpaceOnUse">
<stop stop-color="#FFC444"/>
<stop offset="1" stop-color="#F36F56"/>
</linearGradient>
<linearGradient id="paint54_linear_91_44" x1="413.118" y1="117.94" x2="441.544" y2="262.97" gradientUnits="userSpaceOnUse">
<stop stop-color="#FFC444"/>
<stop offset="1" stop-color="#F36F56"/>
</linearGradient>
<linearGradient id="paint55_linear_91_44" x1="439.791" y1="113.191" x2="467.98" y2="257.013" gradientUnits="userSpaceOnUse">
<stop stop-color="#FFC444"/>
<stop offset="1" stop-color="#F36F56"/>
</linearGradient>
<linearGradient id="paint56_linear_91_44" x1="465.428" y1="108.634" x2="493.387" y2="251.291" gradientUnits="userSpaceOnUse">
<stop stop-color="#FFC444"/>
<stop offset="1" stop-color="#F36F56"/>
</linearGradient>
<linearGradient id="paint57_linear_91_44" x1="395.136" y1="127.967" x2="399.567" y2="150.574" gradientUnits="userSpaceOnUse">
<stop stop-color="#FF9085"/>
<stop offset="1" stop-color="#FB6FBB"/>
</linearGradient>
<linearGradient id="paint58_linear_91_44" x1="323.446" y1="139.337" x2="289.895" y2="297.575" gradientUnits="userSpaceOnUse">
<stop stop-color="#FF9085"/>
<stop offset="1" stop-color="#FB6FBB"/>
</linearGradient>
<linearGradient id="paint59_linear_91_44" x1="299.005" y1="156.288" x2="340.574" y2="156.288" gradientUnits="userSpaceOnUse">
<stop stop-color="#FF9085"/>
<stop offset="1" stop-color="#FB6FBB"/>
</linearGradient>
</defs>
</svg>
