<svg width="120" height="28" viewBox="0 0 120 28" fill="none" xmlns="http://www.w3.org/2000/svg">
<path d="M15.2766 9.29288C16.493 10.0742 17.4357 11.1821 18.1029 12.613C18.7702 14.044 19.1047 15.6986 19.1047 17.5753C19.1047 19.4519 18.7648 21.1174 18.085 22.5735C17.4053 24.0297 16.4572 25.1593 15.2408 25.9659C14.0244 26.7725 12.6416 27.1749 11.0907 27.1749C9.82602 27.1749 8.68833 26.9042 7.67406 26.3629C6.6598 25.8215 5.8906 25.0817 5.36648 24.1434C5.36648 25.6573 4.14829 26.8861 2.64746 26.8861H0V5.77423C0 2.76443 2.41849 0.324829 5.40225 0.324829V11.1515C5.92638 10.2131 6.69558 9.47333 7.70984 8.932C8.7241 8.39066 9.85106 8.12 11.0907 8.12C12.6649 8.12 14.0602 8.51156 15.2766 9.29288ZM12.6291 21.6172C13.3446 20.6789 13.7024 19.331 13.7024 17.5753C13.7024 15.8195 13.3446 14.5925 12.6291 13.6777C11.9136 12.7628 10.8886 12.3063 9.55233 12.3063C8.21608 12.3063 7.18571 12.77 6.45766 13.6957C5.72961 14.6214 5.36648 15.9386 5.36648 17.6474C5.36648 19.3562 5.72961 20.7096 6.45766 21.6352C7.18571 22.5609 8.21608 23.0247 9.55233 23.0247C10.8886 23.0247 11.9136 22.5555 12.6291 21.6172Z" fill="#0F172A"/>
<path d="M23.87 0H26.8645V2.33494C26.8645 3.87593 25.6266 5.1246 24.099 5.1246H21.1045V2.78966C21.1045 1.24867 22.3424 0 23.87 0ZM21.2834 26.8861V14.0385C21.2834 11.0287 23.7019 8.58912 26.6856 8.58912V21.4367C26.6856 24.4465 24.2671 26.8861 21.2834 26.8861Z" fill="#0F172A"/>
<path d="M47.9336 0.324829V21.5089C47.9336 24.479 45.5473 26.8861 42.6029 26.8861V24.1795C42.0538 25.1178 41.2792 25.8522 40.2775 26.3809C39.2757 26.9096 38.1434 27.1749 36.8787 27.1749C35.3278 27.1749 33.945 26.7725 32.7286 25.9659C31.5122 25.1593 30.5641 24.0297 29.8844 22.5735C29.2046 21.1174 28.8647 19.4519 28.8647 17.5753C28.8647 15.6986 29.2046 14.044 29.8844 12.613C30.5641 11.1821 31.5068 10.0742 32.7107 9.29288C33.9146 8.51156 35.3045 8.12 36.8787 8.12C38.0951 8.12 39.2042 8.37803 40.2059 8.89591C41.2076 9.41378 41.9822 10.1283 42.5314 11.0432V5.77423C42.5314 2.76443 44.9499 0.324829 47.9336 0.324829ZM41.5296 21.6352C42.2452 20.7096 42.6029 19.3797 42.6029 17.6474C42.6029 15.9152 42.2398 14.6214 41.5117 13.6957C40.7837 12.77 39.7641 12.3063 38.4529 12.3063C37.1416 12.3063 36.0791 12.7628 35.3403 13.6777C34.6015 14.5925 34.2312 15.8917 34.2312 17.5753C34.2312 19.2588 34.6015 20.6482 35.3403 21.5991C36.0791 22.5501 37.1166 23.0247 38.4529 23.0247C39.7891 23.0247 40.8141 22.5609 41.5296 21.6352Z" fill="#0F172A"/>
<path d="M69.5749 20.0112C69.5749 21.2166 68.6054 22.1946 67.4104 22.1946H66.1046C66.1046 24.7857 64.0224 26.8861 61.4536 26.8861H60.6308V22.1946H53.0873C51.345 22.1946 49.9336 20.7709 49.9336 19.0133C49.9336 18.3601 50.1339 17.7214 50.506 17.1854L59.0638 4.8828C60.6737 2.5677 63.3015 1.19092 66.1046 1.19092V17.8278H67.4104C68.6054 17.8278 69.5749 18.8058 69.5749 20.0112ZM55.0496 17.8278H59.418C60.0888 17.8278 60.6308 17.2793 60.6308 16.6044V9.74395L55.0496 17.8278Z" fill="#2B23EC"/>
<path d="M98.3893 10.0147C99.4036 11.2778 99.9098 13.2085 99.9098 15.8069V21.4367C99.9098 24.4465 97.4913 26.8861 94.5076 26.8861V15.9873C94.5076 14.7116 94.3054 13.7913 93.8994 13.2266C93.4933 12.6618 92.8261 12.3785 91.8959 12.3785C90.7993 12.3785 89.9514 12.7628 89.3557 13.5333C88.7601 14.3038 88.4613 15.3865 88.4613 16.7813V21.4367C88.4613 24.4465 86.0428 26.8861 83.0591 26.8861V15.9873C83.0591 14.7369 82.8498 13.822 82.433 13.2446C82.0162 12.6672 81.3525 12.3785 80.4474 12.3785C79.3508 12.3785 78.4976 12.7628 77.8894 13.5333C77.2812 14.3038 76.9771 15.3865 76.9771 16.7813V21.4367C76.9771 24.4465 74.5586 26.8861 71.5748 26.8861V13.822C71.5748 13.6975 71.5748 13.573 71.5748 13.4503C71.5569 10.7689 73.7125 8.58915 76.3707 8.58915L76.6927 11.3319C77.2418 10.298 78.011 9.504 79.0002 8.95004C79.9895 8.39607 81.1289 8.12 82.4169 8.12C85.1127 8.12 86.9015 9.25138 87.7834 11.5123C88.3791 10.4784 89.2091 9.65377 90.2698 9.04026C91.3306 8.42675 92.4934 8.12 93.7581 8.12C95.8331 8.12 97.3768 8.75155 98.3911 10.0147H98.3893Z" fill="#0F172A"/>
<path d="M118.294 18.1888H107.131C107.226 19.8976 107.668 21.1426 108.455 21.9239C109.242 22.7053 110.41 23.0968 111.961 23.0968C112.891 23.0968 113.821 22.9398 114.752 22.6277C115.392 22.4129 115.998 22.1296 116.571 21.776C116.973 21.5288 117.501 21.6984 117.673 22.1423C118.374 23.9449 117.428 25.9893 115.596 26.5668C115.583 26.5704 115.571 26.574 115.558 26.5794C114.283 26.9764 113 27.1749 111.712 27.1749C108.659 27.1749 106.262 26.3268 104.521 24.6306C102.781 22.9344 101.91 20.6193 101.91 17.6835C101.91 15.8304 102.285 14.1775 103.037 12.7213C103.788 11.2651 104.843 10.1356 106.203 9.32897C107.562 8.52238 109.101 8.12 110.818 8.12C113.371 8.12 115.385 8.95545 116.864 10.6282C118.344 12.3009 119.082 14.5564 119.082 17.3948C119.082 17.8333 118.73 18.1888 118.295 18.1888H118.294ZM108.473 12.8476C107.84 13.4485 107.43 14.3273 107.239 15.4821H113.641C114.068 15.4821 114.385 15.0761 114.283 14.6557C113.843 12.8494 112.734 11.9454 110.959 11.9454C109.934 11.9454 109.104 12.2467 108.473 12.8476Z" fill="#0F172A"/>
</svg>
