<svg width="535" height="524" viewBox="0 0 535 524" fill="none" xmlns="http://www.w3.org/2000/svg">
<g filter="url(#filter0_d_50_354)">
<path d="M255.86 480.334C309.942 458.199 314.368 403.493 363.273 398.118C405.886 393.434 422.671 432.756 452.511 425.249C497.964 413.816 525.097 305.952 505.513 217.849C485.29 126.875 404.08 6.69916 272.307 0.26614C124.363 -6.95562 14.5231 134.166 9.4511 256.729C8.90219 269.984 6.13416 381.016 92.9181 445.365C97.2553 448.581 182.748 510.258 255.86 480.334Z" fill="#F4F7FA"/>
<mask id="mask0_50_354" style="mask-type:luminance" maskUnits="userSpaceOnUse" x="156" y="234" width="159" height="237">
<path d="M187.862 470.96L156.608 445.396C156.608 445.396 163.995 424.739 181.018 419.821C215.751 409.788 204.437 380.423 201.559 367.423C197.22 347.819 202.047 328.672 225.157 337.521C248.267 346.37 253.298 303.739 241.673 273.075C230.296 243.069 277.702 205.768 308.36 268.478C326.669 305.929 296.185 333.04 284.084 350.348C271.982 367.655 295.163 388.866 270.328 401.789C249.116 412.827 225.332 414.073 225.93 434.08C226.529 454.088 216.719 467.946 187.863 470.96H187.862Z" fill="white"/>
</mask>
<g mask="url(#mask0_50_354)">
<path d="M187.862 470.96L156.608 445.396C156.608 445.396 163.995 424.739 181.018 419.821C215.751 409.788 204.437 380.423 201.559 367.423C197.22 347.819 202.101 331.068 223.602 335.199C247.931 339.875 253.298 303.739 241.671 273.076C230.294 243.07 277.701 205.77 308.358 268.48C326.668 305.93 296.183 333.042 284.082 350.349C271.98 367.657 295.161 388.867 270.326 401.79C249.114 412.829 225.33 414.075 225.928 434.082C226.527 454.09 216.717 467.948 187.862 470.962V470.96Z" fill="url(#paint0_linear_50_354)"/>
<g style="mix-blend-mode:soft-light" opacity="0.5">
<path d="M171.932 462.764L171.382 462.116C171.788 461.779 212.35 427.895 242.312 382.322C269.917 340.337 293.908 279.55 251.456 228.393L252.119 227.856C271.016 250.629 278.546 277.168 274.499 306.737C271.265 330.358 260.675 355.947 243.022 382.796C212.989 428.472 172.34 462.425 171.932 462.764Z" fill="#BEB8F2"/>
<path d="M272.269 319.021L271.683 318.405C292.433 299.089 309.751 261.704 309.922 261.329L310.702 261.679C310.529 262.055 293.141 299.592 272.269 319.023V319.021Z" fill="#BEB8F2"/>
<path d="M274.418 299.246C263.66 267.402 237.414 256.989 237.15 256.889L237.46 256.101C237.728 256.202 264.341 266.743 275.232 298.978L274.42 299.246H274.418Z" fill="#BEB8F2"/>
<path d="M221.083 411.061C239.452 374.283 203.457 332.137 203.072 331.755L203.637 331.12C204.051 331.459 240.384 374.331 221.853 411.435L221.085 411.061H221.083Z" fill="#BEB8F2"/>
<path d="M232.195 398.2L231.661 397.538C252.346 381.196 285.387 385.336 285.718 385.38L285.604 386.219C285.275 386.176 252.59 382.086 232.195 398.2Z" fill="#BEB8F2"/>
<path d="M177.647 456.643C186.717 443.898 177.365 420.284 177.27 420.047L178.064 419.735C178.461 420.72 187.685 444.011 178.346 457.13L177.645 456.643H177.647Z" fill="#BEB8F2"/>
<path d="M187.361 448.747L186.803 448.105C196.254 440.071 219.29 441.354 226.86 441.775C227.928 441.834 228.853 441.886 229.019 441.863L229.149 442.699C228.914 442.735 228.3 442.703 226.811 442.619C219.326 442.203 196.55 440.935 187.361 448.745V448.747Z" fill="#BEB8F2"/>
</g>
</g>
<path d="M140.2 408.475C149.283 407.165 155.743 413.218 159.723 418.322C159.434 419.146 159.481 419.692 159.376 420.585C158.435 428.632 156.299 431.87 154.105 439.659C153.634 441.334 150.733 445.84 149.429 447.605L146.944 450.858C146.944 450.858 125.824 451.318 124.235 439.541C122.646 427.763 102.531 425.686 92.0116 423.286C85.5511 421.814 83.0756 419.094 80.7896 418.177C56.5942 408.463 46.7571 413.365 40.8527 405.429C34.3344 396.669 44.4586 388.186 37.8789 378.285C30.4487 367.106 12.5495 370.418 7.90903 358.285C7.11275 356.204 6.35258 354.047 6.47897 351.083C6.79135 343.768 12.5694 339.678 8.66198 333.074C0.80749 319.799 2.35311 302.8 17.329 297.135C32.1099 291.544 50.9679 310.04 59.3875 343.799C68.1448 367.131 72.6336 368.879 84.3359 370.982C92.5317 372.454 115.741 371.08 119.9 384.854C124.06 398.628 129.816 409.974 140.2 408.477V408.475Z" fill="url(#paint1_linear_50_354)"/>
<mask id="mask1_50_354" style="mask-type:luminance" maskUnits="userSpaceOnUse" x="4" y="296" width="161" height="155">
<path d="M164.323 425.203L147.847 450.462C147.847 450.462 125.824 451.317 124.235 439.539C122.646 427.762 102.531 425.685 92.0116 423.284C63.47 416.777 77.2271 386.067 41.3926 374.638C31.8625 371.599 12.4863 369.152 7.90903 358.285C2.69257 345.903 13.687 341.568 8.66198 333.074C0.80749 319.799 2.35311 302.8 17.329 297.135C32.1099 291.544 50.9679 310.04 59.3875 343.797C68.1448 367.129 72.6336 368.878 84.3359 370.98C92.5317 372.452 115.741 371.078 119.901 384.852C124.062 398.627 129.818 409.972 140.2 408.475C156 406.198 164.323 425.201 164.323 425.201V425.203Z" fill="white"/>
</mask>
<g mask="url(#mask1_50_354)">
<g style="mix-blend-mode:soft-light" opacity="0.5">
<path d="M155.815 435.781L155.552 436.317C152.547 434.901 149.537 433.435 146.603 431.957C124.887 421.016 105.082 408.316 87.743 394.207C73.0506 382.251 59.9164 369.119 48.7071 355.175C39.6916 343.961 31.866 332.164 25.4488 320.112C20.9365 311.639 17.1609 303.127 14.2286 294.815C13.7176 293.366 13.2752 291.851 12.8473 290.384C12.2767 288.43 11.6881 286.41 10.9297 284.535L11.4569 284.281C12.2243 286.182 12.8184 288.216 13.3926 290.183C13.8187 291.642 14.2575 293.15 14.7648 294.585C17.69 302.872 21.4529 311.357 25.9525 319.805C32.3553 331.829 40.1628 343.597 49.1567 354.784C60.3443 368.699 73.4514 381.804 88.1149 393.737C105.425 407.824 125.197 420.504 146.881 431.427C149.81 432.903 152.816 434.368 155.817 435.781H155.815Z" fill="#FCFDFE"/>
<path d="M63.5096 371.121L63.1016 371.556C46.0329 354.748 4.55943 351.561 4.14233 351.531L4.21817 350.946C4.63708 350.976 46.302 354.177 63.5078 371.119L63.5096 371.121Z" fill="#FCFDFE"/>
<path d="M115.548 413.552L115.191 414.03C102.199 404.094 101.166 371.207 101.157 370.875L101.726 370.819C101.735 371.148 102.761 403.77 115.55 413.55L115.548 413.552Z" fill="#FCFDFE"/>
<path d="M123.435 418.502L123.16 419.032C113.598 414.269 97.7462 413.209 78.5217 416.048C77.8777 416.144 77.5238 416.176 77.46 416.145L77.729 415.611L77.5954 415.877L77.6261 415.586C77.6911 415.584 78.0558 415.531 78.4783 415.468C97.8112 412.615 113.777 413.693 123.437 418.502H123.435Z" fill="#FCFDFE"/>
<path d="M150.371 433.117L149.965 433.554C141.533 425.323 143.582 406.998 143.604 406.814L144.169 406.846C144.147 407.028 142.132 425.073 150.371 433.117Z" fill="#FCFDFE"/>
<path d="M155.553 436.643C145.947 435.942 135.652 438.076 124.076 443.165L123.881 442.628C135.545 437.5 145.931 435.351 155.631 436.058L155.553 436.641V436.643Z" fill="#FCFDFE"/>
<path d="M29.8474 326.832L29.4176 327.244C20.4689 317.319 8.69262 309.182 4.82135 306.509C3.88423 305.861 3.55561 305.632 3.4563 305.531L3.86979 305.101C3.94743 305.177 4.4819 305.547 5.16081 306.014C9.04292 308.696 20.859 316.86 29.8474 326.83V326.832Z" fill="#FCFDFE"/>
<path d="M41.9306 345.344L41.4105 345.617C36.223 333.995 45.4551 308.946 45.8506 307.886L46.3796 308.065C46.2839 308.322 36.8405 333.941 41.9306 345.346V345.344Z" fill="#FCFDFE"/>
</g>
</g>
<path d="M173.626 390.725C172.413 392.401 164.177 385.272 149.297 384.092C145.579 383.798 125.414 380.8 117.659 393.871C116.153 396.409 114.647 398.946 113.143 401.484C106.047 400.574 99.5303 398.418 101.563 389.367C104.721 375.313 84.1409 364.324 74.9701 363.896C63.6199 363.366 37.2451 361.583 41.7916 339.796C45.5762 321.659 51.6594 310.533 32.8104 299.408C13.9597 288.284 7.8422 271.014 18.9992 253.306C30.7394 234.673 14.6584 206.141 31.5447 194.622C60.9674 174.55 90.2222 221.557 84.3702 261.395C78.5181 301.236 100.612 288.039 117.021 295.343C118.506 296.107 120.748 297.403 123.099 299.43C137.58 311.907 131.132 330.437 137.992 349.807C147.347 376.224 175.668 387.904 173.626 390.727V390.725Z" fill="url(#paint2_linear_50_354)"/>
<mask id="mask2_50_354" style="mask-type:luminance" maskUnits="userSpaceOnUse" x="13" y="189" width="129" height="214">
<path d="M141.838 360.658L118.591 402.461C111.536 401.899 99.2919 399.478 101.563 389.367C104.721 375.312 84.1409 364.324 74.9701 363.895C63.6199 363.365 37.2451 361.583 41.7917 339.794C45.5763 321.657 51.6594 310.531 32.8087 299.406C13.9579 288.282 7.84222 271.012 18.9974 253.304C30.7376 234.671 14.6567 206.139 31.5429 194.62C60.9656 174.549 90.2205 221.553 84.3684 261.393C78.5164 301.234 100.61 288.037 117.02 295.341C139.424 305.311 118.126 333.401 122.265 345.853C125.51 355.615 135.385 359.204 141.836 360.655L141.838 360.658Z" fill="white"/>
</mask>
<g mask="url(#mask2_50_354)">
<g style="mix-blend-mode:soft-light" opacity="0.5">
<path d="M124.558 377.009L123.895 377.811C68.4174 332.096 36.7286 258.215 41.1957 184.998L42.2014 185.006C37.7542 257.914 69.3112 331.486 124.558 377.009Z" fill="#FCFDFE"/>
<path d="M96.5744 349.354L96.0742 350.262C70.9398 337.191 39.0524 349.332 38.7328 349.455L38.415 348.51C38.7382 348.383 71.0428 336.075 96.5726 349.352L96.5744 349.354Z" fill="#FCFDFE"/>
<path d="M114.595 368.307L113.739 368.89C98.2266 344.67 121.51 294.968 121.749 294.469L122.653 294.865C122.418 295.359 99.3786 344.546 114.595 368.305V368.307Z" fill="#FCFDFE"/>
<path d="M59.8841 288.794L59.077 289.447C45.1303 271.452 9.67675 269.174 9.32104 269.152L9.43299 268.139C9.79412 268.16 45.6792 270.467 59.8841 288.794Z" fill="#FCFDFE"/>
<path d="M46.3148 244.484L45.3073 244.571C44.4604 217.933 68.4915 189.856 68.7353 189.574L69.4792 190.218C69.2391 190.495 45.4806 218.259 46.3148 244.484Z" fill="#FCFDFE"/>
</g>
</g>
<path d="M220.912 101.267C235.642 224.308 250.373 346.065 265.105 466.538C265.766 471.94 261.99 476.717 256.707 477.161C197.506 482.711 138.303 488.384 79.0997 494.178C68.5385 494.685 62.7407 488.853 62.0599 483.014C46.8981 352.962 31.7362 221.55 16.5725 88.7742C15.8918 82.8105 21.0035 77.6855 31.5647 78.1941C91.0583 82.3858 150.552 86.5222 210.046 90.6051C215.363 90.953 220.251 95.7479 220.912 101.267Z" fill="#26264F"/>
<path d="M229.135 101.016C243.959 224.594 258.782 346.872 273.606 467.848C274.27 473.268 270.471 478.071 265.155 478.521C203.681 483.666 142.208 488.912 80.7338 494.262C75.1237 494.754 69.9669 490.363 69.2843 484.497C54.025 353.849 38.7674 221.825 23.508 88.421C22.8237 82.4323 26.89 77.8355 32.538 78.2138C94.4259 82.2931 156.312 86.3242 218.2 90.3072C223.552 90.6587 228.469 95.4714 229.133 101.016H229.135Z" fill="url(#paint3_linear_50_354)"/>
<path d="M225.563 121.232C239.293 235.726 253.023 349.102 266.753 461.365C267.374 466.438 263.825 470.919 258.857 471.319C201.045 475.992 143.232 480.753 85.4194 485.604C80.1957 486.046 75.3945 481.935 74.7553 476.485C60.6479 355.814 46.5406 233.963 32.4314 110.936C31.794 105.37 35.5786 101.062 40.8348 101.369C99.0085 104.717 157.181 108.031 215.354 111.307C220.352 111.589 224.944 116.061 225.565 121.232H225.563Z" fill="url(#paint4_linear_50_354)"/>
<path style="mix-blend-mode:multiply" opacity="0.3" d="M215.352 111.307C157.868 108.07 100.384 104.793 42.9004 101.487C44.6771 111.583 47.7756 122.572 52.9993 133.775C72.0667 174.657 100.077 176.909 111.038 212.535C122.328 249.238 96.8652 260.724 109.306 293.864C122.805 329.823 155.909 324.619 173.408 364.063C188.49 398.061 169.074 413.602 184.669 434.263C201.763 456.907 233.385 449.231 266.208 456.9C252.66 346.095 239.111 234.209 225.563 121.232C224.944 116.061 220.35 111.589 215.352 111.307Z" fill="url(#paint5_linear_50_354)"/>
<path d="M131.389 96.2155C131.622 98.2051 130.269 99.7309 128.364 99.622C126.459 99.5078 124.724 97.7965 124.49 95.7961C124.255 93.8011 125.611 92.2682 127.518 92.3913C129.423 92.5073 131.154 94.2204 131.389 96.2155Z" fill="#DE8BDF"/>
<path d="M152.157 206.858C159.506 206.858 165.463 199.913 165.463 191.346C165.463 182.778 159.506 175.833 152.157 175.833C144.809 175.833 138.852 182.778 138.852 191.346C138.852 199.913 144.809 206.858 152.157 206.858Z" fill="url(#paint6_linear_50_354)"/>
<path d="M205.12 206.858C212.468 206.858 218.426 199.913 218.426 191.346C218.426 182.778 212.468 175.833 205.12 175.833C197.771 175.833 191.814 182.778 191.814 191.346C191.814 199.913 197.771 206.858 205.12 206.858Z" fill="url(#paint7_linear_50_354)"/>
<path d="M178.492 206.858C185.946 206.858 191.988 199.913 191.988 191.346C191.988 182.778 185.946 175.833 178.492 175.833C171.039 175.833 164.997 182.778 164.997 191.346C164.997 199.913 171.039 206.858 178.492 206.858Z" fill="#D8DEE8"/>
<path d="M258.081 206.858C265.429 206.858 271.387 199.913 271.387 191.346C271.387 182.778 265.429 175.833 258.081 175.833C250.732 175.833 244.775 182.778 244.775 191.346C244.775 199.913 250.732 206.858 258.081 206.858Z" fill="url(#paint8_linear_50_354)"/>
<path d="M231.453 206.858C238.907 206.858 244.949 199.913 244.949 191.346C244.949 182.778 238.907 175.833 231.453 175.833C224 175.833 217.958 182.778 217.958 191.346C217.958 199.913 224 206.858 231.453 206.858Z" fill="#D8DEE8"/>
<path d="M284.416 206.858C291.869 206.858 297.911 199.913 297.911 191.346C297.911 182.778 291.869 175.833 284.416 175.833C276.963 175.833 270.921 182.778 270.921 191.346C270.921 199.913 276.963 206.858 284.416 206.858Z" fill="#D8DEE8"/>
<path d="M125.53 206.858C132.983 206.858 139.025 199.913 139.025 191.346C139.025 182.778 132.983 175.833 125.53 175.833C118.076 175.833 112.034 182.778 112.034 191.346C112.034 199.913 118.076 206.858 125.53 206.858Z" fill="#D8DEE8"/>
<path d="M29.7607 99.8344L112.323 193.446H325.418L222.16 111.69L29.7607 99.8344Z" fill="url(#paint9_linear_50_354)"/>
<path d="M29.7607 99.8344L112.323 193.446H139.025L51.97 101.203L29.7607 99.8344Z" fill="#F4F7FA"/>
<path d="M75.8152 102.672L165.336 193.446H191.711L99.8391 104.153L75.8152 102.672Z" fill="#F4F7FA"/>
<path d="M124.04 105.643L218.149 193.446H244.65L148.423 107.147L124.04 105.643Z" fill="#F4F7FA"/>
<path d="M197.753 110.186L172.994 108.66L271.217 193.446H297.848L197.753 110.186Z" fill="#F4F7FA"/>
<path d="M297.875 193.446C298.756 201.018 304.308 206.858 311.043 206.858C317.778 206.858 323.331 201.018 324.212 193.446H297.875Z" fill="url(#paint10_linear_50_354)"/>
<path opacity="0.63" d="M196.592 251.925C185.067 225.677 155.83 212.929 131.29 223.452C106.749 233.977 96.1971 263.786 107.721 290.036C119.246 316.286 148.483 329.032 173.023 318.509C197.563 307.984 208.115 278.175 196.592 251.925ZM160.404 289.331L161.386 296.724L154.198 297.657L153.282 290.771C148.34 291.194 143.398 290.507 140.399 289.274L141.471 280.507C144.774 281.772 149.304 282.734 154.071 282.115C158.253 281.572 160.9 279.606 160.515 276.706C160.149 273.951 157.57 272.516 151.903 271.41C143.707 269.82 137.871 266.89 136.936 259.859C136.089 253.481 139.971 247.888 147.616 245.346L146.701 238.459L153.889 237.526L154.736 243.905C159.679 243.484 163.116 244.07 165.69 244.916L164.652 253.383C162.639 252.833 159.044 251.604 153.762 252.291C148.996 252.91 147.724 255.141 147.995 257.169C148.313 259.561 151.083 260.751 157.626 262.261C166.759 264.172 170.811 267.701 171.678 274.224C172.536 280.676 168.648 286.785 160.405 289.331H160.404Z" fill="#F4F7FA"/>
<g opacity="0.63">
<path d="M222.923 394.454L110.593 397.818C106.554 397.94 103.06 395.061 102.454 391.114L97.9017 361.518C97.1776 356.813 100.8 352.55 105.614 352.439L218.066 349.864C222.084 349.771 225.545 352.644 226.148 356.57L230.579 385.377C231.3 390.059 227.714 394.312 222.923 394.454Z" fill="#F4F7FA"/>
<path d="M226.699 418.784L114.436 422.579C110.386 422.717 106.874 419.835 106.265 415.875L106.222 415.597C105.502 410.918 109.08 406.669 113.867 406.519L226.174 403.004C230.216 402.877 233.716 405.757 234.324 409.708C235.043 414.378 231.477 418.623 226.699 418.786V418.784Z" fill="#F4F7FA"/>
</g>
<path d="M471.004 253.94C472.266 254.247 474.424 254.595 476.945 254.045C479.644 253.456 483.532 251.673 483.539 249.566C483.543 248.556 482.651 248.208 481.417 246.739C478.852 243.683 479.48 241.341 478.136 239.022C475.186 233.927 465.011 232.881 463.415 235.372C462.751 236.411 463.572 238.063 465.089 241.109C466.642 244.232 467.745 244.942 469.056 247.558C469.739 248.922 470.593 251.029 471.002 253.938L471.004 253.94Z" fill="url(#paint11_linear_50_354)"/>
<path d="M525.251 426.2L525.794 425.267C525.794 425.267 526.771 424.689 527.233 425.884C527.696 427.08 530.317 433.329 530.456 436.165C529.768 437.86 527.822 436.423 527.421 435.271C527.02 434.118 525.628 429.842 525.628 429.842L525.251 426.198V426.2Z" fill="url(#paint12_linear_50_354)"/>
<path d="M519.061 430.661C519.873 430.649 520.682 430.656 521.5 430.619C522.992 430.553 524.49 430.447 525.996 430.299C525.745 428.752 525.493 427.205 525.242 425.658C524.474 425.369 523.725 425.078 522.99 424.785C522.616 424.635 522.257 424.485 521.89 424.337C521.545 424.196 521.193 424.055 520.856 423.914C520.359 423.706 519.881 423.497 519.4 423.288C519.209 423.204 519.012 423.122 518.823 423.04C518.259 422.79 517.712 422.54 517.17 422.29C517.08 422.248 516.984 422.207 516.892 422.164C516.307 421.891 515.737 421.618 515.179 421.345C515.139 421.325 515.096 421.305 515.054 421.286C514.466 420.997 513.891 420.708 513.332 420.417C513.324 420.413 513.315 420.41 513.308 420.404C512.169 419.814 511.087 419.221 510.06 418.629C497.336 411.28 493.128 403.818 491.832 397.95C488.185 381.442 506.044 370.842 501.431 352.942C497.955 339.453 483.281 327.903 474.245 330.595C464.042 333.638 462.442 353.183 461.458 365.212C460.349 378.756 459.116 393.844 467.88 407.36C476.179 420.158 491.173 428.035 508.428 430.13C508.428 430.13 508.428 430.13 508.428 430.133C508.837 430.183 509.258 430.206 509.672 430.249C510.672 430.354 511.67 430.463 512.685 430.529C513.149 430.56 513.621 430.561 514.088 430.583C515.078 430.629 516.064 430.685 517.062 430.694C517.725 430.701 518.395 430.67 519.061 430.66V430.661Z" fill="url(#paint13_linear_50_354)"/>
<path style="mix-blend-mode:multiply" opacity="0.25" d="M519.061 430.661C519.873 430.649 520.682 430.656 521.5 430.619C522.992 430.553 524.49 430.447 525.996 430.299C525.745 428.752 525.493 427.205 525.242 425.658C524.474 425.369 523.725 425.078 522.99 424.785C522.616 424.635 522.257 424.485 521.89 424.337C521.545 424.196 521.193 424.055 520.856 423.914C520.359 423.706 519.881 423.497 519.4 423.288C519.209 423.204 519.012 423.122 518.823 423.04C518.259 422.79 517.712 422.54 517.17 422.29C517.08 422.248 516.984 422.207 516.892 422.164C516.307 421.891 515.737 421.618 515.179 421.345C515.139 421.325 515.096 421.305 515.054 421.286C514.466 420.997 513.891 420.708 513.332 420.417C513.324 420.413 513.315 420.41 513.308 420.404C512.169 419.814 511.087 419.221 510.06 418.629C497.336 411.28 493.128 403.818 491.832 397.95C488.185 381.442 506.044 370.842 501.431 352.942C497.955 339.453 483.281 327.903 474.245 330.595C464.042 333.638 462.442 353.183 461.458 365.212C460.349 378.756 459.116 393.844 467.88 407.36C476.179 420.158 491.173 428.035 508.428 430.13C508.428 430.13 508.428 430.13 508.428 430.133C508.837 430.183 509.258 430.206 509.672 430.249C510.672 430.354 511.67 430.463 512.685 430.529C513.149 430.56 513.621 430.561 514.088 430.583C515.078 430.629 516.064 430.685 517.062 430.694C517.725 430.701 518.395 430.67 519.061 430.66V430.661Z" fill="url(#paint14_linear_50_354)"/>
<path d="M435.969 334.71C434.019 331.652 443.114 327.139 446.072 314.587C448.569 303.989 443.474 301.305 446.254 287.117C447.802 279.215 450.445 274.625 453.524 271.295C456.063 268.549 459.36 264.984 462.33 265.45C471.649 266.911 482.686 308.802 464.067 327.067C454.499 336.454 438.324 338.401 435.971 334.71H435.969Z" fill="url(#paint15_linear_50_354)"/>
<path d="M484.884 467.343C484.46 466.378 482.127 468.805 479.955 471.369C480.235 475.059 480.514 478.748 480.794 482.438C480.023 481.953 479.05 481.424 477.952 481.173C476.634 480.873 474.354 481.342 474.178 481.965C473.097 485.811 482.8 486.649 483.864 485.441C484.927 484.233 484.684 482.82 484.684 482.82C483.7 477.279 483.83 473.526 484.295 470.935C484.624 469.115 485.115 467.877 484.882 467.343H484.884Z" fill="url(#paint16_linear_50_354)"/>
<path d="M509.74 343.592C504.202 335.524 498.805 327.362 493.396 319.212C492.332 317.612 491.716 315.752 491.42 313.802C489.272 315.486 487.215 317.505 485.317 319.865C483.793 327.415 481.441 338.765 478.337 352.519C470.448 387.474 467.127 396.227 465.455 407.221C462.881 424.136 463.794 449.061 480.794 482.44C482.091 482.566 483.387 482.695 484.685 482.822C487.417 454.272 490.552 428.504 492.134 415.262C492.67 410.768 494.253 397.29 501.555 386.433C501.673 386.258 512.478 371.656 516.206 365.823C517.447 363.881 519 361.362 520.765 357.991C516.58 353.644 513.225 348.667 509.742 343.594L509.74 343.592Z" fill="url(#paint17_linear_50_354)"/>
<path style="mix-blend-mode:multiply" opacity="0.25" d="M509.74 343.592C504.204 335.524 498.805 327.364 493.396 319.212C492.332 317.61 491.716 315.752 491.42 313.802C489.272 315.488 487.215 317.505 485.317 319.865C482.901 329.096 481.181 336.991 479.976 343.028C476.632 359.773 476.824 364.404 479.218 368.562C482.51 374.278 486.301 372.732 488.706 377.706C492.924 386.428 481.63 392.386 481.735 409.205C481.793 418.531 485.167 420.872 483.631 429.432C483.234 431.641 482.11 436.497 482.607 443.165C482.826 446.094 483.064 445.457 483.246 448.103C483.763 455.642 481.944 462.573 482.732 467.283C483.015 468.974 483.598 470.156 483.824 470.586C484.431 471.738 485.142 472.565 485.644 473.077C488.121 448.499 490.736 426.977 492.135 415.262C492.672 410.768 494.255 397.29 501.557 386.433C501.675 386.259 512.479 371.656 516.208 365.823C517.448 363.881 519.001 361.362 520.767 357.992C516.582 353.645 513.227 348.669 509.744 343.595L509.74 343.592Z" fill="url(#paint18_linear_50_354)"/>
<path d="M452.446 273.044C448.964 279.352 449.362 285.634 449.743 288.383C450.889 296.653 455.777 302.165 457.418 304.249C462.922 311.237 467.214 325.058 460.383 355.353C464.217 354.744 470.524 354.161 477.874 355.676C496.568 359.527 504.031 373.246 512.999 370.744C516.311 369.822 520.807 366.413 523.943 353.688C526.684 347.071 535.223 324.112 526.469 297.113C520.207 277.802 508.162 265.874 502.196 260.687C497.066 258.979 481.05 254.364 465.811 261.657C462.014 263.474 456.115 266.397 452.449 273.042L452.446 273.044Z" fill="url(#paint19_linear_50_354)"/>
<path d="M473.068 248.051C473.062 249.384 473.115 256.52 476.323 257.693C477.024 257.949 477.587 257.785 480.698 257.866C482.472 257.912 483.914 258.005 484.844 258.076C484.687 259.291 484.377 260.922 483.717 262.757C479.725 273.86 466.802 281.574 462.424 278.796C460.143 277.348 459.968 273.009 459.894 271.206C459.784 268.501 460.445 266.358 460.927 265.13C462.53 263.979 464.17 262.826 465.847 261.672C466.943 260.919 468.032 260.18 469.115 259.456C469.043 258.09 468.969 256.725 468.895 255.358C470.285 252.923 471.676 250.487 473.066 248.051H473.068Z" fill="url(#paint20_linear_50_354)"/>
<path d="M474.227 252.839C474.227 252.839 470.369 257.305 465.508 255.699C461.156 254.263 463.426 243.195 466.808 241.85C467.936 241.4 470.034 241.529 471.457 242.355C472.458 242.935 476.073 245.965 474.666 249.621C475.735 248.995 476.836 248.936 477.465 249.457C477.566 249.541 477.815 249.825 477.903 250.178C478.223 251.459 476.807 252.621 474.227 252.839Z" fill="url(#paint21_linear_50_354)"/>
<path style="mix-blend-mode:multiply" opacity="0.3" d="M526.466 297.115C521.567 282.006 513.139 271.438 506.839 265.059C499.618 269.775 492.271 276.167 492.885 283.021C493.584 290.819 504.125 294.042 503.141 298.975C501.714 306.123 478.75 303.414 476.071 311.282C472.913 320.552 500.142 337.988 498.684 339.962C497.643 341.374 485.119 331.397 470.903 333.722C468.146 334.173 465.674 335.235 463.473 336.636C462.967 342.055 461.983 348.246 460.38 355.353C464.213 354.745 470.52 354.161 477.871 355.676C496.565 359.527 504.027 373.246 512.996 370.744C516.307 369.822 520.803 366.413 523.94 353.688C526.681 347.071 535.22 324.112 526.466 297.113V297.115Z" fill="url(#paint22_linear_50_354)"/>
<path d="M492.027 261.222C496.366 260.153 496.389 258.758 502.193 260.69C518.859 266.235 536.503 291.092 527.385 308.646C522.313 318.409 510.161 327.212 496.763 325.181C485.857 323.529 479.451 315.502 477.822 313.325C477.19 310.829 476.56 308.334 475.928 305.838C483.035 309.819 488.042 309.819 491.397 308.957C497.108 307.492 498.376 303.446 507.812 299.91C511.488 298.532 513.696 298.245 513.81 297.101C514.043 294.736 504.8 293.949 498.973 288.989C494.725 285.373 490.487 278.005 492.029 261.222H492.027Z" fill="url(#paint23_linear_50_354)"/>
<path d="M476.43 307.824L474.444 307.258C474.444 307.258 471.903 305.5 470.271 304.79C469.634 304.514 469.047 304.376 468.393 304.394V304.39C468.393 304.39 462.51 301.981 463.778 303.377C465.046 304.772 466.514 305.529 466.514 305.529C466.514 305.529 466.508 305.573 466.459 305.65C466.436 305.684 466.423 305.709 466.398 305.745C466.25 305.963 466.172 306.178 466.133 306.393C465.775 307.495 465.844 309.382 469.74 310.409V310.404C470.677 310.647 471.855 310.666 472.875 310.613C473.94 310.558 477.438 311.819 477.438 311.819L476.428 307.825L476.43 307.824Z" fill="url(#paint24_linear_50_354)"/>
<path d="M280.73 486.821C280.73 491.018 278.114 494.419 274.886 494.419C271.657 494.419 269.041 491.018 269.041 486.821C269.041 482.624 271.657 479.222 274.886 479.222C278.114 479.222 280.73 482.624 280.73 486.821Z" fill="url(#paint25_linear_50_354)"/>
<path d="M282.359 487.679C282.359 491.876 279.743 495.277 276.514 495.277C273.286 495.277 270.669 491.876 270.669 487.679C270.669 483.482 273.286 480.081 276.514 480.081C279.743 480.081 282.359 483.482 282.359 487.679Z" fill="url(#paint26_linear_50_354)"/>
<path d="M278.963 487.831C278.963 489.588 277.867 491.014 276.514 491.014C275.162 491.014 274.066 489.588 274.066 487.831C274.066 486.073 275.162 484.647 276.514 484.647C277.867 484.647 278.963 486.073 278.963 487.831Z" fill="url(#paint27_linear_50_354)"/>
<path d="M274.885 478.403V486.747C274.885 487.973 275.891 488.966 277.13 488.966C277.847 488.966 278.52 488.628 278.943 488.056L286.535 477.781L274.885 478.403Z" fill="#C2C2C2"/>
<path d="M343.306 480.157C343.306 484.354 340.69 487.756 337.462 487.756C334.233 487.756 331.617 484.354 331.617 480.157C331.617 475.96 334.233 472.559 337.462 472.559C340.69 472.559 343.306 475.962 343.306 480.157Z" fill="url(#paint28_linear_50_354)"/>
<path d="M344.935 481.016C344.935 485.213 342.319 488.614 339.09 488.614C335.862 488.614 333.245 485.211 333.245 481.016C333.245 476.82 335.862 473.417 339.09 473.417C342.319 473.417 344.935 476.819 344.935 481.016Z" fill="url(#paint29_linear_50_354)"/>
<path d="M341.539 481.169C341.539 482.927 340.443 484.353 339.09 484.353C337.738 484.353 336.642 482.927 336.642 481.169C336.642 479.411 337.738 477.986 339.09 477.986C340.443 477.986 341.539 479.411 341.539 481.169Z" fill="url(#paint30_linear_50_354)"/>
<path d="M337.461 471.74V480.084C337.461 481.308 338.467 482.302 339.706 482.302C340.423 482.302 341.096 481.965 341.519 481.392L349.111 471.117L337.461 471.74Z" fill="#C2C2C2"/>
<path d="M274.014 478.905C273.649 478.905 273.335 478.633 273.291 478.266C273.246 477.871 273.533 477.516 273.932 477.472L348.037 469.219C352.425 468.474 356.04 465.218 357.206 460.928L388.249 346.709C389.812 340.956 394.902 336.816 400.917 336.406L423.451 335.078C423.845 335.046 424.197 335.356 424.22 335.753C424.244 336.149 423.939 336.489 423.538 336.513L401.011 337.84C395.623 338.208 391.056 341.921 389.653 347.082L358.611 461.301C357.298 466.13 353.228 469.797 348.241 470.641L274.095 478.899C274.068 478.903 274.041 478.905 274.012 478.905H274.014Z" fill="#C2C2C2"/>
<path d="M325.57 433.941C325.254 433.941 324.961 433.736 324.871 433.42L307.421 373.073C307.311 372.691 307.535 372.293 307.922 372.184C308.308 372.075 308.711 372.297 308.821 372.679L326.27 433.026C326.38 433.408 326.157 433.806 325.77 433.915C325.703 433.934 325.637 433.943 325.57 433.943V433.941Z" fill="#C2C2C2"/>
<path d="M343.422 431.418C343.075 431.418 342.77 431.174 342.707 430.826L331.944 371.048C331.873 370.657 332.137 370.284 332.532 370.214C332.929 370.145 333.305 370.405 333.375 370.796L344.139 430.574C344.209 430.965 343.946 431.338 343.55 431.407C343.507 431.414 343.463 431.418 343.422 431.418Z" fill="#C2C2C2"/>
<path d="M354.514 429.459C354.503 429.459 354.494 429.459 354.483 429.459C354.082 429.443 353.77 429.107 353.786 428.711L356.269 369.565C356.285 369.169 356.603 368.853 357.026 368.876C357.426 368.892 357.739 369.228 357.723 369.624L355.24 428.77C355.224 429.157 354.902 429.459 354.514 429.459Z" fill="#C2C2C2"/>
<path d="M301.219 436.149C300.916 436.149 300.632 435.96 300.529 435.658L280.041 375.284C279.913 374.907 280.118 374.501 280.499 374.374C280.88 374.249 281.292 374.451 281.42 374.827L301.909 435.201C302.037 435.578 301.831 435.985 301.45 436.111C301.374 436.136 301.295 436.149 301.219 436.149Z" fill="#C2C2C2"/>
<path d="M476.101 340.976C476.06 340.976 476.02 340.976 475.977 340.97L424.406 336.873C423.588 336.809 422.978 336.115 423.047 335.322C423.113 334.53 423.834 333.936 424.652 334.007L476.222 338.104C477.04 338.169 477.651 338.863 477.582 339.655C477.519 340.406 476.867 340.976 476.101 340.976Z" fill="url(#paint31_linear_50_354)"/>
<path d="M335.633 507.544C335.633 511.741 333.016 515.142 329.788 515.142C326.559 515.142 323.943 511.741 323.943 507.544C323.943 503.347 326.559 499.945 329.788 499.945C333.016 499.945 335.633 503.347 335.633 507.544Z" fill="url(#paint32_linear_50_354)"/>
<path d="M337.259 508.402C337.259 512.599 334.643 516 331.415 516C328.186 516 325.57 512.597 325.57 508.402C325.57 504.207 328.186 500.804 331.415 500.804C334.643 500.804 337.259 504.205 337.259 508.402Z" fill="url(#paint33_linear_50_354)"/>
<path d="M333.863 508.555C333.863 510.313 332.767 511.739 331.415 511.739C330.062 511.739 328.966 510.313 328.966 508.555C328.966 506.798 330.062 505.372 331.415 505.372C332.767 505.372 333.863 506.798 333.863 508.555Z" fill="url(#paint34_linear_50_354)"/>
<path d="M329.788 499.128V507.472C329.788 508.698 330.793 509.69 332.032 509.69C332.749 509.69 333.422 509.353 333.845 508.78L341.438 498.505L329.788 499.128Z" fill="#999999"/>
<path d="M389.809 502.185C389.809 506.382 387.192 509.783 383.964 509.783C380.735 509.783 378.119 506.382 378.119 502.185C378.119 497.988 380.735 494.587 383.964 494.587C387.192 494.587 389.809 497.988 389.809 502.185Z" fill="url(#paint35_linear_50_354)"/>
<path d="M391.437 503.041C391.437 507.238 388.821 510.64 385.592 510.64C382.364 510.64 379.748 507.238 379.748 503.041C379.748 498.844 382.364 495.443 385.592 495.443C388.821 495.443 391.437 498.844 391.437 503.041Z" fill="url(#paint36_linear_50_354)"/>
<path d="M388.041 503.195C388.041 504.953 386.945 506.378 385.592 506.378C384.24 506.378 383.144 504.953 383.144 503.195C383.144 501.437 384.24 500.011 385.592 500.011C386.945 500.011 388.041 501.437 388.041 503.195Z" fill="url(#paint37_linear_50_354)"/>
<path d="M383.964 493.768V502.112C383.964 503.338 384.97 504.33 386.208 504.33C386.925 504.33 387.599 503.991 388.021 503.42L395.614 493.145L383.964 493.768Z" fill="#999999"/>
<path d="M250.957 377.16C250.58 377.16 250.26 376.87 250.233 376.492C250.204 376.096 250.506 375.752 250.907 375.723L382.888 366.335C382.945 366.331 383.005 366.335 383.063 366.344L437.701 375.541C438.096 375.607 438.364 375.978 438.295 376.371C438.228 376.762 437.853 377.027 437.455 376.958L382.904 367.775L251.01 377.158C250.992 377.158 250.974 377.158 250.957 377.158V377.16Z" fill="#C2C2C2"/>
<path d="M295.804 390.616C295.732 390.616 295.661 390.605 295.593 390.586L250.748 377.129C250.363 377.013 250.147 376.612 250.264 376.232C250.381 375.851 250.79 375.639 251.172 375.753L295.88 389.169L437.511 375.536C437.918 375.496 438.268 375.785 438.306 376.182C438.346 376.576 438.053 376.929 437.652 376.967L295.876 390.614C295.853 390.616 295.829 390.618 295.806 390.618L295.804 390.616Z" fill="#999999"/>
<path d="M420.508 438.224C420.472 438.224 420.434 438.22 420.396 438.215L366.53 430.048L284.633 437.839C284.237 437.874 283.878 437.587 283.838 437.193C283.8 436.798 284.093 436.447 284.492 436.407L366.48 428.608C366.539 428.602 366.601 428.604 366.66 428.613L420.616 436.795C421.014 436.855 421.286 437.221 421.225 437.614C421.171 437.969 420.86 438.224 420.506 438.224H420.508Z" fill="#C2C2C2"/>
<path d="M323.02 447.386C322.742 447.386 322.484 447.227 322.363 446.975L295.147 390.206C294.975 389.847 295.13 389.419 295.493 389.248C295.854 389.078 296.289 389.23 296.463 389.59L323.461 445.905L420.439 436.791C420.847 436.756 421.194 437.045 421.232 437.439C421.27 437.833 420.977 438.185 420.576 438.222L323.09 447.384C323.067 447.386 323.043 447.387 323.022 447.387L323.02 447.386Z" fill="#999999"/>
<path d="M323.02 447.386C322.961 447.386 322.903 447.378 322.841 447.364L284.383 437.821C284.186 437.773 284.02 437.644 283.923 437.469L250.318 376.786C250.125 376.438 250.255 376.001 250.607 375.81C250.959 375.621 251.402 375.748 251.595 376.096L285.046 436.504L323.195 445.97C323.585 446.067 323.822 446.458 323.723 446.843C323.639 447.17 323.343 447.387 323.018 447.387L323.02 447.386Z" fill="#999999"/>
<path d="M305.702 411.264C305.634 411.264 305.563 411.254 305.498 411.236L263.263 399.001C262.878 398.889 262.656 398.491 262.77 398.109C262.884 397.729 263.288 397.51 263.673 397.622L305.776 409.819L430.643 399.057C431.047 399.017 431.396 399.315 431.43 399.71C431.464 400.106 431.168 400.454 430.769 400.488L305.767 411.262C305.746 411.262 305.726 411.266 305.704 411.266L305.702 411.264Z" fill="#999999"/>
<path d="M316.022 432.787C315.955 432.787 315.89 432.778 315.825 432.76L275.362 421.557C274.976 421.45 274.75 421.054 274.859 420.67C274.967 420.288 275.368 420.064 275.754 420.172L316.088 431.34L424.531 421.964C424.939 421.927 425.284 422.223 425.318 422.617C425.352 423.012 425.056 423.361 424.657 423.395L316.083 432.783C316.061 432.783 316.04 432.787 316.02 432.787H316.022Z" fill="#999999"/>
<path d="M342.925 445.515C342.613 445.515 342.322 445.314 342.229 445.002L324.873 387.452C324.757 387.072 324.978 386.671 325.362 386.558C325.747 386.444 326.153 386.662 326.267 387.042L343.622 444.591C343.738 444.971 343.518 445.373 343.133 445.485C343.065 445.505 342.994 445.515 342.925 445.515Z" fill="#999999"/>
<path d="M362.127 443.709C361.78 443.709 361.473 443.465 361.411 443.115L351.002 384.811C350.932 384.42 351.197 384.047 351.592 383.978C351.988 383.91 352.365 384.17 352.436 384.561L362.845 442.865C362.916 443.256 362.65 443.629 362.255 443.699C362.211 443.706 362.17 443.709 362.128 443.709H362.127Z" fill="#999999"/>
<path d="M383.78 441.276C383.397 441.276 383.075 440.979 383.054 440.597L379.773 382.704C379.751 382.308 380.058 381.969 380.459 381.945C380.854 381.924 381.203 382.227 381.226 382.624L384.507 440.517C384.529 440.913 384.222 441.252 383.821 441.276C383.807 441.276 383.794 441.276 383.78 441.276Z" fill="#999999"/>
<path d="M404.297 439.004C404.284 439.004 404.272 439.004 404.259 439.004C403.858 438.982 403.549 438.645 403.571 438.249L406.693 379.433C406.715 379.037 407.054 378.728 407.457 378.753C407.858 378.774 408.166 379.112 408.145 379.508L405.023 438.324C405.003 438.708 404.682 439.006 404.297 439.006V439.004Z" fill="#999999"/>
<path d="M311.39 444.498C311.119 444.498 310.859 444.348 310.735 444.091L282.682 386.467C282.509 386.11 282.661 385.68 283.022 385.507C283.383 385.336 283.818 385.486 283.993 385.843L312.045 443.467C312.219 443.824 312.067 444.254 311.706 444.427C311.605 444.475 311.497 444.498 311.392 444.498H311.39Z" fill="#999999"/>
<path d="M295.804 440.631C295.537 440.631 295.28 440.485 295.152 440.233L265.374 381.281C265.193 380.926 265.339 380.495 265.699 380.318C266.058 380.139 266.495 380.286 266.674 380.639L296.452 439.591C296.633 439.946 296.486 440.378 296.127 440.555C296.022 440.606 295.912 440.629 295.802 440.629L295.804 440.631Z" fill="#999999"/>
<path d="M329.493 500.665C329.401 500.665 329.311 500.647 329.224 500.615L273.746 478.855C273.373 478.709 273.19 478.291 273.338 477.922C273.486 477.552 273.909 477.372 274.283 477.518L329.587 499.21L396.715 491.105C401.805 490.491 405.973 486.937 407.334 482.053L444.019 350.428C445.603 344.745 450.664 340.64 456.613 340.214L476.078 338.818C476.475 338.792 476.827 339.088 476.856 339.484C476.885 339.88 476.584 340.225 476.183 340.253L456.718 341.649C451.382 342.03 446.843 345.712 445.42 350.81L408.735 482.435C407.217 487.884 402.567 491.848 396.89 492.533L329.578 500.659C329.549 500.663 329.52 500.665 329.49 500.665H329.493Z" fill="#999999"/>
<path d="M440.877 334.819C440.877 334.819 435.733 330.344 430.683 331.982C429.962 332.216 428.691 332.705 428.019 333.968C427.293 335.331 427.559 337.105 428.473 338.222C429.778 339.819 432.286 339.821 434.724 337.694C434.509 337.639 433.088 338.308 432.734 337.13C432.734 337.13 432.568 336.575 432.748 336.015C433.389 334.039 440.392 334.805 440.877 334.821V334.819Z" fill="url(#paint38_linear_50_354)"/>
<path d="M93.4921 412.156C92.8276 412.156 92.2589 411.657 92.1957 410.989C91.0545 399.148 87.1471 387.895 81.194 379.306C75.9215 371.697 69.6434 367.156 64.398 367.156H64.38C45.2764 367.193 41.2805 410.54 41.2426 410.977C41.1812 411.685 40.5529 412.212 39.8306 412.151C39.1138 412.09 38.5811 411.466 38.6425 410.757C38.8068 408.873 42.8966 364.62 64.3745 364.579H64.398C70.5949 364.579 77.4997 369.415 83.3445 377.85C89.5414 386.794 93.6077 398.477 94.7904 410.745C94.859 411.453 94.3335 412.083 93.6149 412.151C93.5734 412.155 93.5318 412.156 93.4903 412.156H93.4921Z" fill="url(#paint39_linear_50_354)"/>
<path d="M13.9054 501.368L39.0542 513.95L54.2919 467.739L29.1846 405.788L22.065 407.513L11.2638 496.487C11.02 498.502 12.0745 500.45 13.9072 501.368H13.9054Z" fill="url(#paint40_linear_50_354)"/>
<path style="mix-blend-mode:multiply" opacity="0.52" d="M54.2901 467.739L29.1828 405.788L24.9829 406.805C24.4015 415.076 24.6561 421.884 25.0515 426.841C26.7344 447.933 32.3246 453.802 29.6161 468.517C27.3645 480.752 22.4478 482.413 22.8775 490.645C23.3452 499.61 29.6721 507.117 37.1944 513.02L39.0505 513.948L54.2883 467.737L54.2901 467.739Z" fill="url(#paint41_linear_50_354)"/>
<path d="M29.1846 405.79H122.951L153.984 504.797L39.0523 513.95L29.1846 405.79Z" fill="url(#paint42_linear_50_354)"/>
<path d="M58.2319 414.275C57.6396 414.275 57.1034 413.873 56.9625 413.279C56.6953 412.156 50.5363 385.627 59.2214 372.607C61.7113 368.876 65.189 366.597 69.5604 365.835C92.0152 361.925 105.841 409.589 106.419 411.621C106.614 412.306 106.209 413.018 105.516 413.211C104.823 413.404 104.102 413.004 103.907 412.319C103.772 411.844 90.1626 364.859 70.0136 368.374C66.3265 369.017 63.5079 370.865 61.399 374.026C53.3242 386.128 59.4381 412.426 59.5012 412.692C59.6656 413.384 59.2304 414.078 58.5298 414.241C58.4305 414.264 58.3294 414.275 58.2301 414.275H58.2319Z" fill="url(#paint43_linear_50_354)"/>
<g style="mix-blend-mode:multiply" opacity="0.3">
<path d="M122.951 405.789H76.4344C74.1395 408.095 72.5126 410.754 72.3573 413.736C71.626 427.744 104.212 432.346 107.354 451.545C109.622 465.394 95.6716 481.376 83.2254 488.494C70.1129 495.996 61.2274 492.197 52.3581 500.525C48.4616 504.183 46.089 508.761 44.677 513.502L153.984 504.797L122.951 405.788V405.789Z" fill="url(#paint44_linear_50_354)"/>
</g>
<path d="M58.2408 418.072C60.2542 418.072 61.8863 416.459 61.8863 414.469C61.8863 412.479 60.2542 410.866 58.2408 410.866C56.2274 410.866 54.5952 412.479 54.5952 414.469C54.5952 416.459 56.2274 418.072 58.2408 418.072Z" fill="url(#paint45_linear_50_354)"/>
<path d="M107.172 417.463C109.032 416.702 109.915 414.594 109.145 412.756C108.374 410.918 106.242 410.045 104.382 410.806C102.522 411.568 101.638 413.675 102.409 415.514C103.179 417.352 105.312 418.225 107.172 417.463Z" fill="url(#paint46_linear_50_354)"/>
<path d="M212.779 86.7221L368.24 89.8289L403.51 90.5284C410.814 90.6747 416.745 84.8216 416.745 77.789V40.7077C416.745 33.6751 410.866 27.7364 403.562 27.458L213.122 20.2041C210.661 20.1095 208.052 20.5735 206.003 21.4764C201.261 23.5607 197.731 27.9773 197.731 33.1933V72.6105C197.731 80.0857 204.62 86.5597 212.779 86.7239V86.7221Z" fill="#97A6B7"/>
<path d="M419.593 40.6167V77.7283C419.593 84.7663 413.663 90.3749 406.347 90.2268L215.699 86.4009C207.525 86.2367 200.848 80.016 200.848 72.5337V33.0844C200.848 27.8648 204.1 23.4411 208.85 21.3568C210.902 20.4539 213.233 19.9881 215.699 20.0827L406.347 27.3491C413.663 27.6275 419.593 33.5805 419.593 40.6184V40.6167Z" fill="#D8DEE8"/>
<path d="M418.052 40.2188C418.052 34.0873 412.487 28.9231 406.115 28.6822L215.154 21.4997C208.04 21.232 201.653 26.2892 201.653 32.7989V71.7326C201.653 78.2423 207.827 83.6404 214.943 83.7885L405.928 87.7446C412.3 87.8767 418.052 83.014 418.052 76.8826V40.2188Z" fill="white"/>
<path d="M281.348 47.0319L285.088 53.7576L293.383 54.9585C294.273 55.087 294.629 56.0613 293.984 56.6056L287.996 61.677L289.414 68.9755C289.567 69.7625 288.63 70.3567 287.827 69.9802L280.357 66.4737L272.811 69.8856C271.991 70.2568 271.033 69.6429 271.19 68.8471L272.64 61.4932L266.477 56.1827C265.809 55.6063 266.177 54.6266 267.1 54.5249L275.595 53.5916L279.364 46.9855C279.77 46.2735 280.942 46.3002 281.346 47.0283L281.348 47.0319Z" fill="url(#paint47_linear_50_354)"/>
<path d="M312.519 47.7046L316.105 54.2893L324.058 55.4635C324.913 55.5902 325.254 56.5431 324.636 57.0767L318.894 62.0446L320.254 69.1914C320.4 69.9623 319.503 70.5441 318.732 70.1765L311.569 66.7449L304.336 70.0872C303.55 70.4495 302.631 69.8499 302.781 69.0719L304.171 61.8715L298.265 56.6751C297.624 56.1113 297.978 55.1512 298.863 55.0513L307.006 54.1341L310.619 47.6653C311.009 46.9676 312.132 46.9926 312.521 47.7064L312.519 47.7046Z" fill="url(#paint48_linear_50_354)"/>
<path d="M342.416 48.3489L345.858 54.7979L353.492 55.9454C354.312 56.0685 354.639 57.0018 354.046 57.5264L348.534 62.3944L349.839 69.3967C349.98 70.1516 349.117 70.7226 348.379 70.3621L341.505 67.002L334.564 70.2765C333.811 70.6316 332.928 70.0445 333.072 69.2825L334.405 62.2303L328.739 57.1427C328.125 56.5913 328.463 55.6509 329.313 55.5528L337.124 54.6516L340.591 48.3132C340.965 47.6297 342.043 47.6547 342.415 48.3524L342.416 48.3489Z" fill="url(#paint49_linear_50_354)"/>
<path d="M371.119 48.968L374.423 55.2869L381.756 56.4093C382.543 56.5306 382.857 57.4443 382.288 57.9582L376.994 62.7317L378.247 69.5948C378.383 70.3353 377.554 70.8939 376.844 70.5405L370.243 67.2482L363.578 70.4585C362.854 70.8064 362.007 70.2318 362.146 69.4841L363.427 62.5729L357.988 57.5888C357.398 57.0481 357.724 56.1274 358.539 56.031L366.039 55.1459L369.367 48.9324C369.726 48.2632 370.761 48.2864 371.119 48.9698V48.968Z" fill="url(#paint50_linear_50_354)"/>
<path d="M398.694 49.5623L401.87 55.7562L408.92 56.8536C409.676 56.9714 409.979 57.869 409.431 58.3722L404.34 63.0529L405.545 69.7804C405.675 70.5066 404.879 71.0545 404.196 70.7083L397.849 67.4802L391.445 70.628C390.75 70.9706 389.935 70.4049 390.069 69.6733L391.298 62.8976L386.071 58.0135C385.504 57.4836 385.817 56.5806 386.6 56.486L393.806 55.617L397.006 49.5248C397.351 48.8681 398.346 48.8895 398.689 49.5605L398.694 49.5623Z" fill="#D8DEE8"/>
<path d="M365.75 40.4561C365.75 41.848 364.732 42.9383 363.268 42.8902L270.702 39.8191C269.16 39.7673 267.683 38.5646 267.683 37.1352V36.6713C267.683 35.2401 269.247 34.1248 270.789 34.1784L363.114 37.3922C364.577 37.4439 365.75 38.6128 365.75 40.0047V40.4561Z" fill="url(#paint51_linear_50_354)"/>
<path d="M236.049 75.3907C222.976 75.0874 212.27 65.039 212.27 52.9938C212.27 40.9486 222.976 31.523 236.049 31.9816C249.029 32.4367 259.52 42.4797 259.52 54.3696C259.52 66.2596 249.027 75.6923 236.049 75.3907Z" fill="url(#paint52_linear_50_354)"/>
<path d="M257.629 54.3143C257.629 65.2656 247.998 73.915 236.049 73.6313C224.019 73.3457 214.209 64.1307 214.209 53.0491C214.209 41.9676 224.019 33.3236 236.049 33.7394C248 34.1534 257.629 43.363 257.629 54.3143Z" fill="url(#paint53_linear_50_354)"/>
<mask id="mask3_50_354" style="mask-type:luminance" maskUnits="userSpaceOnUse" x="214" y="33" width="44" height="41">
<path d="M257.629 54.3143C257.629 65.2656 247.998 73.915 236.049 73.6313C224.019 73.3457 214.209 64.1307 214.209 53.0491C214.209 41.9676 224.019 33.3236 236.049 33.7394C248 34.1534 257.629 43.363 257.629 54.3143Z" fill="white"/>
</mask>
<g mask="url(#mask3_50_354)">
<path d="M246.44 49.7372C246.44 54.9835 241.818 59.1092 236.101 58.9504C230.366 58.7916 225.702 54.3857 225.702 49.1091C225.702 43.8324 230.365 39.7085 236.101 39.8976C241.818 40.085 246.44 44.4908 246.44 49.7372Z" fill="white"/>
<path d="M251.021 74.6039C250.328 67.4963 243.903 61.8592 236.047 61.6486C228.156 61.4362 221.654 66.7664 220.95 73.8972L251.021 74.6039Z" fill="white"/>
</g>
<g style="mix-blend-mode:multiply" opacity="0.3">
<path d="M371.303 89.5237L215.697 86.4008C207.523 86.2367 200.846 80.016 200.846 72.5337V33.0844C200.846 27.8648 204.098 23.4411 208.849 21.3568C209.354 21.6834 209.856 22.0171 210.347 22.3633C210.454 22.4382 210.56 22.5167 210.667 22.5935C215.408 25.9875 219.431 30.3202 221.813 35.8521C222.057 36.4249 222.29 37.0102 222.497 37.6116C222.501 37.6205 222.504 37.6294 222.506 37.6383C223.644 40.8879 224.864 43.9679 226.211 46.8587C230.408 55.8418 235.841 62.9475 243.912 67.3837C245.586 68.3027 247.372 69.1111 249.282 69.7928C249.975 70.0408 250.689 70.2746 251.416 70.4887C259.273 72.8192 269.113 73.2314 281.651 71.306C282.578 71.1632 283.493 71.0223 284.412 70.8831C284.927 70.8028 285.44 70.726 285.956 70.6493C291.723 69.7803 297.368 68.979 302.907 68.4205C303.292 68.3848 303.678 68.3456 304.063 68.3099C305.733 68.151 307.391 68.019 309.043 67.9137C310.289 67.8334 311.529 67.771 312.764 67.7228C313.028 67.7156 313.29 67.7049 313.553 67.6996C314.87 67.6585 316.181 67.6389 317.482 67.646C318.311 67.6496 319.14 67.6639 319.967 67.6853C322.061 67.746 324.147 67.8673 326.218 68.0672C328.533 68.2902 330.831 68.6061 333.117 69.0361C334.063 69.211 335.01 69.4073 335.95 69.6215C347.302 72.2125 358.398 77.6694 369.459 87.7963C370.051 88.3388 370.646 88.8938 371.238 89.4648C371.259 89.4844 371.283 89.5058 371.303 89.529V89.5237Z" fill="#D8DEE8"/>
</g>
<path d="M417.957 220.484L226.908 223.472C224.438 223.511 222.145 224.105 220.09 225.119C215.333 227.462 212.117 232.066 212.117 237.291V276.774C212.117 284.261 218.787 290.384 226.975 290.107L382.761 284.847L417.877 283.662C425.204 283.414 431.132 277.24 431.132 270.196V233.054C431.132 226.011 425.288 220.37 417.96 220.484H417.957Z" fill="#97A6B7"/>
<path d="M434.799 233.11V270.28C434.799 277.329 428.85 283.266 421.51 283.514L230.227 289.956C222.026 290.232 215.325 284.36 215.325 276.865V237.348C215.325 232.119 218.588 227.514 223.355 225.169C225.413 224.153 227.752 223.561 230.227 223.523L421.51 220.533C428.85 220.419 434.799 226.061 434.799 233.11Z" fill="#D8DEE8"/>
<path d="M432.436 232.833C432.436 226.693 427.265 221.798 420.871 221.901L229.754 224.963C222.614 225.078 216.69 230.46 216.69 236.98V275.978C216.69 282.498 222.609 287.593 229.747 287.358L420.815 281.058C427.209 280.848 432.434 275.696 432.434 269.556V232.833H432.436Z" fill="white"/>
<path d="M296.102 246.982L299.854 253.517L308.176 254.273C309.07 254.356 309.426 255.31 308.779 255.892L302.772 261.294L304.195 268.528C304.348 269.309 303.408 269.954 302.602 269.62L295.107 266.511L287.536 270.335C286.713 270.751 285.752 270.189 285.909 269.383L287.364 261.938L281.182 256.952C280.51 256.411 280.88 255.408 281.809 255.258L290.333 253.867L294.114 247.046C294.522 246.311 295.697 246.274 296.104 246.982H296.102Z" fill="url(#paint54_linear_50_354)"/>
<path d="M327.375 245.976L330.972 252.378L338.953 253.126C339.811 253.206 340.152 254.143 339.533 254.711L333.771 259.996L335.136 267.082C335.284 267.848 334.381 268.478 333.61 268.151L326.424 265.1L319.167 268.836C318.378 269.241 317.457 268.69 317.607 267.903L319.001 260.615L313.075 255.728C312.432 255.198 312.786 254.218 313.674 254.07L321.845 252.714L325.469 246.038C325.859 245.319 326.985 245.283 327.375 245.977V245.976Z" fill="url(#paint55_linear_50_354)"/>
<path d="M357.372 245.01L360.825 251.284L368.484 252.021C369.308 252.1 369.634 253.017 369.04 253.574L363.51 258.747L364.819 265.69C364.96 266.44 364.095 267.057 363.354 266.736L356.459 263.74L349.496 267.395C348.74 267.791 347.855 267.25 347.999 266.479L349.337 259.343L343.653 254.552C343.036 254.032 343.377 253.072 344.229 252.928L352.066 251.606L355.543 245.069C355.917 244.364 356.999 244.33 357.374 245.01H357.372Z" fill="url(#paint56_linear_50_354)"/>
<path d="M386.169 244.084L389.484 250.235L396.842 250.963C397.633 251.042 397.947 251.941 397.376 252.485L392.064 257.551L393.323 264.357C393.458 265.093 392.627 265.696 391.916 265.38L385.293 262.437L378.607 266.012C377.881 266.401 377.03 265.869 377.169 265.112L378.453 258.121L372.997 253.422C372.404 252.912 372.731 251.973 373.549 251.832L381.073 250.542L384.412 244.139C384.771 243.449 385.809 243.417 386.169 244.082V244.084Z" fill="#D8DEE8"/>
<path d="M413.834 243.194L417.021 249.225L424.094 249.944C424.854 250.021 425.158 250.904 424.607 251.438L419.5 256.4L420.71 263.074C420.84 263.795 420.042 264.386 419.358 264.075L412.991 261.185L406.565 264.682C405.868 265.062 405.05 264.541 405.184 263.799L406.419 256.946L401.175 252.335C400.606 251.836 400.921 250.913 401.706 250.778L408.936 249.518L412.144 243.244C412.491 242.567 413.488 242.535 413.833 243.19L413.834 243.194Z" fill="#D8DEE8"/>
<path d="M380.788 235.843C380.788 237.237 379.764 238.386 378.296 238.417L285.915 240.315C284.367 240.347 283.378 239.209 283.378 237.776V237.312C283.378 235.879 284.454 234.692 286.001 234.662L378.388 232.911C379.856 232.883 380.79 233.996 380.79 235.392V235.843H380.788Z" fill="url(#paint57_linear_50_354)"/>
<path d="M250.647 277.83C237.529 278.232 226.787 268.742 226.787 256.675C226.787 244.609 237.529 234.591 250.647 234.346C263.671 234.103 274.2 243.597 274.2 255.508C274.2 267.42 263.671 277.432 250.647 277.83Z" fill="url(#paint58_linear_50_354)"/>
<path d="M272.302 255.556C272.302 266.526 262.638 275.708 250.647 276.069C238.576 276.431 228.734 267.728 228.734 256.629C228.734 245.529 238.578 236.341 250.647 236.109C262.638 235.879 272.302 244.587 272.302 255.556Z" fill="url(#paint59_linear_50_354)"/>
<mask id="mask4_50_354" style="mask-type:luminance" maskUnits="userSpaceOnUse" x="228" y="236" width="45" height="41">
<path d="M272.302 255.556C272.302 266.526 262.638 275.708 250.647 276.069C238.576 276.431 228.734 267.728 228.734 256.629C228.734 245.529 238.578 236.341 250.647 236.109C262.638 235.879 272.302 244.587 272.302 255.556Z" fill="white"/>
</mask>
<g mask="url(#mask4_50_354)">
<path d="M261.075 251.573C261.075 256.829 256.438 261.21 250.701 261.359C244.947 261.509 240.268 257.346 240.268 252.062C240.268 246.778 244.947 242.396 250.701 242.274C256.438 242.155 261.075 246.318 261.075 251.573Z" fill="white"/>
<path d="M265.672 276.233C264.977 269.15 258.53 263.85 250.647 264.061C242.729 264.273 236.206 269.964 235.498 277.145L265.672 276.233Z" fill="white"/>
</g>
<g style="mix-blend-mode:multiply" opacity="0.3">
<path d="M386.354 284.697L230.229 289.954C222.028 290.23 215.327 284.358 215.327 276.863V237.346C215.327 232.117 218.59 227.512 223.357 225.167C223.864 225.467 224.366 225.775 224.861 226.095C224.967 226.164 225.075 226.236 225.182 226.309C229.94 229.453 233.977 233.577 236.366 238.989C236.612 239.55 236.843 240.122 237.052 240.715C237.056 240.724 237.059 240.733 237.061 240.742C238.202 243.936 239.427 246.955 240.779 249.778C244.99 258.551 250.441 265.376 258.539 269.384C260.218 270.216 262.01 270.928 263.927 271.508C264.622 271.718 265.337 271.915 266.069 272.089C273.952 274.001 283.825 273.883 296.405 271.279C297.335 271.087 298.252 270.896 299.175 270.706C299.691 270.599 300.206 270.494 300.724 270.389C306.511 269.208 312.174 268.101 317.731 267.243C318.118 267.186 318.506 267.125 318.891 267.07C320.566 266.822 322.229 266.599 323.887 266.406C325.138 266.26 326.382 266.129 327.621 266.013C327.884 265.992 328.148 265.967 328.412 265.947C329.733 265.835 331.048 265.744 332.353 265.681C333.186 265.64 334.016 265.61 334.845 265.587C336.947 265.533 339.04 265.544 341.116 265.633C343.438 265.731 345.744 265.924 348.039 266.231C348.989 266.356 349.937 266.5 350.881 266.665C362.271 268.649 373.403 273.517 384.5 283.064C385.094 283.576 385.692 284.099 386.286 284.64C386.307 284.659 386.331 284.677 386.351 284.7L386.354 284.697Z" fill="#D8DEE8"/>
</g>
<path d="M483.201 125.838L300.712 124.002C298.355 123.979 295.862 124.498 293.903 125.436C289.365 127.606 285.992 132.018 285.992 137.121V175.678C285.992 182.991 292.581 189.144 300.39 189.081L449.317 187.886L483.147 187.616C490.155 187.559 495.851 181.672 495.851 174.784V138.46C495.851 131.571 490.207 125.911 483.199 125.84L483.201 125.838Z" fill="#97A6B7"/>
<path d="M498.813 138.441V174.791C498.813 181.685 493.123 187.34 486.105 187.395L303.431 188.851C295.609 188.914 289.219 183.009 289.219 175.691V137.101C289.219 131.994 292.332 127.579 296.876 125.408C298.839 124.467 301.071 123.948 303.431 123.971L486.105 125.811C493.123 125.882 498.813 131.548 498.813 138.441Z" fill="#D8DEE8"/>
<path d="M496.505 138.117C496.505 132.112 491.581 127.194 485.469 127.135L303.312 125.368C296.503 125.302 291.221 130.41 291.221 136.778V174.861C291.221 181.23 296.513 186.353 303.323 186.303L485.588 184.981C491.702 184.936 496.505 180.034 496.505 174.029V138.115V138.117Z" fill="white"/>
<path d="M366.288 148.531L369.871 155.01L377.816 155.958C378.668 156.06 379.009 157.002 378.392 157.553L372.655 162.68L374.013 169.786C374.159 170.553 373.262 171.16 372.493 170.814L365.337 167.587L358.109 171.133C357.324 171.519 356.404 170.944 356.556 170.162L357.945 162.925L352.044 157.898C351.403 157.352 351.757 156.383 352.642 156.258L360.778 155.11L364.387 148.542C364.775 147.833 365.898 147.828 366.287 148.529L366.288 148.531Z" fill="url(#paint60_linear_50_354)"/>
<path d="M396.152 148.331L399.588 154.678L407.209 155.608C408.027 155.708 408.354 156.631 407.762 157.171L402.258 162.191L403.562 169.151C403.703 169.902 402.842 170.496 402.105 170.157L395.242 166.993L388.312 170.462C387.559 170.839 386.678 170.277 386.822 169.511L388.155 162.425L382.496 157.5C381.882 156.966 382.221 156.017 383.068 155.896L390.87 154.775L394.332 148.344C394.705 147.651 395.782 147.644 396.154 148.331H396.152Z" fill="url(#paint61_linear_50_354)"/>
<path d="M424.804 148.14L428.102 154.359L435.421 155.273C436.206 155.371 436.52 156.276 435.952 156.806L430.668 161.724L431.92 168.544C432.055 169.279 431.228 169.863 430.52 169.529L423.931 166.427L417.28 169.823C416.557 170.193 415.712 169.641 415.849 168.89L417.128 161.948L411.698 157.123C411.11 156.6 411.435 155.671 412.247 155.551L419.733 154.455L423.056 148.154C423.413 147.476 424.446 147.469 424.804 148.142V148.14Z" fill="url(#paint62_linear_50_354)"/>
<path d="M452.319 147.955L455.488 154.05L462.521 154.948C463.276 155.044 463.577 155.931 463.032 156.451L457.955 161.27L459.157 167.957C459.287 168.678 458.493 169.249 457.812 168.922L451.482 165.88L445.091 169.206C444.398 169.566 443.586 169.026 443.719 168.291L444.947 161.488L439.732 156.757C439.167 156.244 439.48 155.333 440.26 155.217L447.45 154.145L450.642 147.971C450.985 147.305 451.978 147.3 452.321 147.96L452.319 147.955Z" fill="url(#paint63_linear_50_354)"/>
<path d="M478.765 147.778L481.811 153.756L488.573 154.637C489.299 154.732 489.589 155.603 489.064 156.111L484.182 160.837L485.337 167.393C485.462 168.101 484.698 168.66 484.044 168.339L477.958 165.351L471.815 168.61C471.149 168.963 470.367 168.433 470.495 167.712L471.674 161.044L466.662 156.404C466.118 155.901 466.418 155.009 467.169 154.894L474.081 153.845L477.149 147.79C477.479 147.137 478.434 147.132 478.763 147.78L478.765 147.778Z" fill="url(#paint64_linear_50_354)"/>
<path d="M447.473 139.759C447.473 141.122 446.347 142.221 444.944 142.214L356.235 141.757C354.758 141.75 353.33 140.611 353.33 139.211V138.757C353.33 137.357 354.763 136.227 356.24 136.238L444.83 136.834C446.233 136.843 447.473 137.954 447.473 139.316V139.759Z" fill="url(#paint65_linear_50_354)"/>
<path d="M322.91 177.525C310.395 177.586 300.15 168.048 300.15 156.263C300.15 144.478 310.395 134.964 322.91 135.051C335.336 135.138 345.385 144.676 345.385 156.313C345.385 167.95 335.338 177.464 322.91 177.525Z" fill="url(#paint66_linear_50_354)"/>
<path d="M343.574 156.311C343.574 167.027 334.352 175.755 322.91 175.805C311.396 175.855 302.005 167.107 302.005 156.267C302.005 145.426 311.394 136.698 322.91 136.773C334.352 136.848 343.574 145.595 343.574 156.311Z" fill="url(#paint67_linear_50_354)"/>
<mask id="mask5_50_354" style="mask-type:luminance" maskUnits="userSpaceOnUse" x="302" y="136" width="42" height="40">
<path d="M343.574 156.311C343.574 167.027 334.352 175.755 322.91 175.805C311.396 175.855 302.005 167.107 302.005 156.267C302.005 145.426 311.394 136.698 322.91 136.773C334.352 136.848 343.574 145.595 343.574 156.311Z" fill="white"/>
</mask>
<g mask="url(#mask5_50_354)">
<path d="M332.859 152.139C332.859 157.273 328.434 161.436 322.961 161.438C317.47 161.44 313.006 157.257 313.006 152.095C313.006 146.932 317.47 142.769 322.961 142.796C328.434 142.822 332.859 147.005 332.859 152.139Z" fill="white"/>
<path d="M337.247 176.344C336.584 169.408 330.433 164.068 322.91 164.077C315.357 164.086 309.132 169.479 308.458 176.476L337.247 176.346V176.344Z" fill="white"/>
</g>
<g style="mix-blend-mode:multiply" opacity="0.3">
<path d="M452.498 187.664L303.431 188.853C295.609 188.915 289.219 183.011 289.219 175.692V137.103C289.219 131.996 292.332 127.581 296.876 125.41C297.36 125.715 297.841 126.029 298.31 126.354C298.413 126.423 298.514 126.496 298.617 126.569C303.156 129.758 307.006 133.888 309.285 139.232C309.519 139.785 309.74 140.351 309.94 140.934C309.944 140.943 309.946 140.952 309.949 140.961C311.038 144.109 312.206 147.089 313.495 149.88C317.513 158.554 322.713 165.357 330.439 169.475C332.041 170.33 333.751 171.071 335.582 171.684C336.246 171.908 336.927 172.118 337.624 172.305C345.148 174.372 354.57 174.504 366.579 172.277C367.468 172.113 368.343 171.949 369.223 171.786C369.716 171.693 370.207 171.604 370.701 171.515C376.227 170.505 381.633 169.568 386.939 168.869C387.308 168.822 387.678 168.774 388.046 168.728C389.648 168.526 391.235 168.351 392.819 168.205C394.014 168.092 395.2 167.998 396.385 167.916C396.637 167.901 396.888 167.884 397.141 167.871C398.403 167.796 399.658 167.739 400.906 167.71C401.7 167.693 402.495 167.682 403.286 167.68C405.292 167.68 407.291 167.744 409.277 167.884C411.494 168.039 413.699 168.285 415.889 168.642C416.795 168.788 417.702 168.952 418.605 169.138C429.485 171.363 440.122 176.403 450.727 186.016C451.296 186.531 451.864 187.058 452.433 187.6C452.453 187.62 452.477 187.638 452.496 187.661L452.498 187.664Z" fill="#D8DEE8"/>
</g>
</g>
<defs>
<filter id="filter0_d_50_354" x="0" y="0" width="534.456" height="524" filterUnits="userSpaceOnUse" color-interpolation-filters="sRGB">
<feFlood flood-opacity="0" result="BackgroundImageFix"/>
<feColorMatrix in="SourceAlpha" type="matrix" values="0 0 0 0 0 0 0 0 0 0 0 0 0 0 0 0 0 0 127 0" result="hardAlpha"/>
<feOffset dy="4"/>
<feGaussianBlur stdDeviation="2"/>
<feComposite in2="hardAlpha" operator="out"/>
<feColorMatrix type="matrix" values="0 0 0 0 0 0 0 0 0 0 0 0 0 0 0 0 0 0 0.25 0"/>
<feBlend mode="normal" in2="BackgroundImageFix" result="effect1_dropShadow_50_354"/>
<feBlend mode="normal" in="SourceGraphic" in2="effect1_dropShadow_50_354" result="shape"/>
</filter>
<linearGradient id="paint0_linear_50_354" x1="283.058" y1="245.962" x2="200.657" y2="472.263" gradientUnits="userSpaceOnUse">
<stop stop-color="#FFC444"/>
<stop offset="1" stop-color="#F36F56"/>
</linearGradient>
<linearGradient id="paint1_linear_50_354" x1="-3.94284" y1="314.087" x2="168.421" y2="478.014" gradientUnits="userSpaceOnUse">
<stop stop-color="#AA80F9"/>
<stop offset="1" stop-color="#6165D7"/>
</linearGradient>
<linearGradient id="paint2_linear_50_354" x1="25.9712" y1="225.934" x2="135.347" y2="415.298" gradientUnits="userSpaceOnUse">
<stop stop-color="#FF9085"/>
<stop offset="1" stop-color="#FB6FBB"/>
</linearGradient>
<linearGradient id="paint3_linear_50_354" x1="18.7502" y1="285.566" x2="394.407" y2="271.034" gradientUnits="userSpaceOnUse">
<stop stop-color="#444B8C"/>
<stop offset="1" stop-color="#26264F"/>
</linearGradient>
<linearGradient id="paint4_linear_50_354" x1="32.361" y1="293.494" x2="266.824" y2="293.494" gradientUnits="userSpaceOnUse">
<stop stop-color="#E38DDD"/>
<stop offset="1" stop-color="#9571F6"/>
</linearGradient>
<linearGradient id="paint5_linear_50_354" x1="219.885" y1="145.274" x2="-134.704" y2="889.477" gradientUnits="userSpaceOnUse">
<stop stop-color="#E38DDD"/>
<stop offset="1" stop-color="#9571F6"/>
</linearGradient>
<linearGradient id="paint6_linear_50_354" x1="138.852" y1="191.346" x2="165.463" y2="191.346" gradientUnits="userSpaceOnUse">
<stop stop-color="#FF9085"/>
<stop offset="1" stop-color="#FB6FBB"/>
</linearGradient>
<linearGradient id="paint7_linear_50_354" x1="191.814" y1="191.346" x2="218.424" y2="191.346" gradientUnits="userSpaceOnUse">
<stop stop-color="#FF9085"/>
<stop offset="1" stop-color="#FB6FBB"/>
</linearGradient>
<linearGradient id="paint8_linear_50_354" x1="244.777" y1="191.346" x2="271.387" y2="191.346" gradientUnits="userSpaceOnUse">
<stop stop-color="#FF9085"/>
<stop offset="1" stop-color="#FB6FBB"/>
</linearGradient>
<linearGradient id="paint9_linear_50_354" x1="29.7607" y1="146.639" x2="325.418" y2="146.639" gradientUnits="userSpaceOnUse">
<stop stop-color="#FF9085"/>
<stop offset="1" stop-color="#FB6FBB"/>
</linearGradient>
<linearGradient id="paint10_linear_50_354" x1="297.875" y1="200.152" x2="324.212" y2="200.152" gradientUnits="userSpaceOnUse">
<stop stop-color="#FF9085"/>
<stop offset="1" stop-color="#FB6FBB"/>
</linearGradient>
<linearGradient id="paint11_linear_50_354" x1="462.715" y1="236.093" x2="481.597" y2="252.491" gradientUnits="userSpaceOnUse">
<stop stop-color="#311944"/>
<stop offset="1" stop-color="#6B3976"/>
</linearGradient>
<linearGradient id="paint12_linear_50_354" x1="496.023" y1="409.623" x2="543.984" y2="442.628" gradientUnits="userSpaceOnUse">
<stop stop-color="#AB316D"/>
<stop offset="1" stop-color="#792D3D"/>
</linearGradient>
<linearGradient id="paint13_linear_50_354" x1="451.59" y1="399.139" x2="493.549" y2="382.581" gradientUnits="userSpaceOnUse">
<stop stop-color="#40447E"/>
<stop offset="1" stop-color="#3C3B6B"/>
</linearGradient>
<linearGradient id="paint14_linear_50_354" x1="451.59" y1="399.139" x2="493.549" y2="382.581" gradientUnits="userSpaceOnUse">
<stop stop-color="#40447E"/>
<stop offset="1" stop-color="#3C3B6B"/>
</linearGradient>
<linearGradient id="paint15_linear_50_354" x1="426.138" y1="277.98" x2="460.841" y2="311.357" gradientUnits="userSpaceOnUse">
<stop stop-color="#AA80F9"/>
<stop offset="1" stop-color="#6165D7"/>
</linearGradient>
<linearGradient id="paint16_linear_50_354" x1="476.509" y1="456.822" x2="485.387" y2="511.318" gradientUnits="userSpaceOnUse">
<stop stop-color="#AB316D"/>
<stop offset="1" stop-color="#792D3D"/>
</linearGradient>
<linearGradient id="paint17_linear_50_354" x1="472.01" y1="364.21" x2="498.93" y2="417.763" gradientUnits="userSpaceOnUse">
<stop stop-color="#40447E"/>
<stop offset="1" stop-color="#3C3B6B"/>
</linearGradient>
<linearGradient id="paint18_linear_50_354" x1="484.36" y1="354.556" x2="501.513" y2="413.378" gradientUnits="userSpaceOnUse">
<stop stop-color="#40447E"/>
<stop offset="1" stop-color="#3C3B6B"/>
</linearGradient>
<linearGradient id="paint19_linear_50_354" x1="465.846" y1="298.992" x2="563.614" y2="357.57" gradientUnits="userSpaceOnUse">
<stop stop-color="#AA80F9"/>
<stop offset="1" stop-color="#6165D7"/>
</linearGradient>
<linearGradient id="paint20_linear_50_354" x1="480.616" y1="284.356" x2="461.471" y2="241.491" gradientUnits="userSpaceOnUse">
<stop stop-color="#311944"/>
<stop offset="1" stop-color="#893976"/>
</linearGradient>
<linearGradient id="paint21_linear_50_354" x1="454.921" y1="274.719" x2="468.573" y2="251.519" gradientUnits="userSpaceOnUse">
<stop stop-color="#311944"/>
<stop offset="1" stop-color="#A03976"/>
</linearGradient>
<linearGradient id="paint22_linear_50_354" x1="463.631" y1="298.523" x2="564.012" y2="358.666" gradientUnits="userSpaceOnUse">
<stop stop-color="#AA80F9"/>
<stop offset="1" stop-color="#6165D7"/>
</linearGradient>
<linearGradient id="paint23_linear_50_354" x1="490.411" y1="288.057" x2="541.142" y2="320.583" gradientUnits="userSpaceOnUse">
<stop stop-color="#AA80F9"/>
<stop offset="1" stop-color="#6165D7"/>
</linearGradient>
<linearGradient id="paint24_linear_50_354" x1="463.599" y1="307.379" x2="486.681" y2="307.379" gradientUnits="userSpaceOnUse">
<stop stop-color="#311944"/>
<stop offset="1" stop-color="#A03976"/>
</linearGradient>
<linearGradient id="paint25_linear_50_354" x1="268.571" y1="481.574" x2="271.774" y2="484.299" gradientUnits="userSpaceOnUse">
<stop stop-color="#AA80F9"/>
<stop offset="1" stop-color="#6165D7"/>
</linearGradient>
<linearGradient id="paint26_linear_50_354" x1="270.669" y1="487.679" x2="282.359" y2="487.679" gradientUnits="userSpaceOnUse">
<stop stop-color="#AA80F9"/>
<stop offset="1" stop-color="#6165D7"/>
</linearGradient>
<linearGradient id="paint27_linear_50_354" x1="274.064" y1="487.831" x2="278.963" y2="487.831" gradientUnits="userSpaceOnUse">
<stop stop-color="#40447E"/>
<stop offset="1" stop-color="#3C3B6B"/>
</linearGradient>
<linearGradient id="paint28_linear_50_354" x1="331.147" y1="474.911" x2="334.349" y2="477.636" gradientUnits="userSpaceOnUse">
<stop stop-color="#AA80F9"/>
<stop offset="1" stop-color="#6165D7"/>
</linearGradient>
<linearGradient id="paint29_linear_50_354" x1="333.245" y1="481.016" x2="344.935" y2="481.016" gradientUnits="userSpaceOnUse">
<stop stop-color="#AA80F9"/>
<stop offset="1" stop-color="#6165D7"/>
</linearGradient>
<linearGradient id="paint30_linear_50_354" x1="336.64" y1="481.169" x2="341.539" y2="481.169" gradientUnits="userSpaceOnUse">
<stop stop-color="#40447E"/>
<stop offset="1" stop-color="#3C3B6B"/>
</linearGradient>
<linearGradient id="paint31_linear_50_354" x1="423.041" y1="337.489" x2="477.587" y2="337.489" gradientUnits="userSpaceOnUse">
<stop stop-color="#40447E"/>
<stop offset="1" stop-color="#3C3B6B"/>
</linearGradient>
<linearGradient id="paint32_linear_50_354" x1="323.473" y1="502.297" x2="326.676" y2="505.022" gradientUnits="userSpaceOnUse">
<stop stop-color="#AA80F9"/>
<stop offset="1" stop-color="#6165D7"/>
</linearGradient>
<linearGradient id="paint33_linear_50_354" x1="325.57" y1="508.402" x2="337.259" y2="508.402" gradientUnits="userSpaceOnUse">
<stop stop-color="#AA80F9"/>
<stop offset="1" stop-color="#6165D7"/>
</linearGradient>
<linearGradient id="paint34_linear_50_354" x1="328.964" y1="508.555" x2="333.863" y2="508.555" gradientUnits="userSpaceOnUse">
<stop stop-color="#40447E"/>
<stop offset="1" stop-color="#3C3B6B"/>
</linearGradient>
<linearGradient id="paint35_linear_50_354" x1="377.651" y1="496.937" x2="380.852" y2="499.661" gradientUnits="userSpaceOnUse">
<stop stop-color="#AA80F9"/>
<stop offset="1" stop-color="#6165D7"/>
</linearGradient>
<linearGradient id="paint36_linear_50_354" x1="379.748" y1="503.041" x2="391.437" y2="503.041" gradientUnits="userSpaceOnUse">
<stop stop-color="#AA80F9"/>
<stop offset="1" stop-color="#6165D7"/>
</linearGradient>
<linearGradient id="paint37_linear_50_354" x1="383.142" y1="503.195" x2="388.041" y2="503.195" gradientUnits="userSpaceOnUse">
<stop stop-color="#40447E"/>
<stop offset="1" stop-color="#3C3B6B"/>
</linearGradient>
<linearGradient id="paint38_linear_50_354" x1="439.855" y1="326.12" x2="434.056" y2="335.19" gradientUnits="userSpaceOnUse">
<stop stop-color="#311944"/>
<stop offset="1" stop-color="#A03976"/>
</linearGradient>
<linearGradient id="paint39_linear_50_354" x1="32.525" y1="380.769" x2="43.9037" y2="385.047" gradientUnits="userSpaceOnUse">
<stop stop-color="#AB316D"/>
<stop offset="1" stop-color="#792D3D"/>
</linearGradient>
<linearGradient id="paint40_linear_50_354" x1="0.560001" y1="419.532" x2="31.8003" y2="472.539" gradientUnits="userSpaceOnUse">
<stop stop-color="#FF9085"/>
<stop offset="1" stop-color="#FB6FBB"/>
</linearGradient>
<linearGradient id="paint41_linear_50_354" x1="5.47487" y1="416.634" x2="36.7151" y2="469.642" gradientUnits="userSpaceOnUse">
<stop stop-color="#FF9085"/>
<stop offset="1" stop-color="#FB6FBB"/>
</linearGradient>
<linearGradient id="paint42_linear_50_354" x1="55.8989" y1="440.755" x2="144.61" y2="509.916" gradientUnits="userSpaceOnUse">
<stop stop-color="#FF9085"/>
<stop offset="1" stop-color="#FB6FBB"/>
</linearGradient>
<linearGradient id="paint43_linear_50_354" x1="73.4858" y1="361.333" x2="82.4074" y2="418.884" gradientUnits="userSpaceOnUse">
<stop stop-color="#AB316D"/>
<stop offset="1" stop-color="#792D3D"/>
</linearGradient>
<linearGradient id="paint44_linear_50_354" x1="57.0564" y1="439.27" x2="145.768" y2="508.432" gradientUnits="userSpaceOnUse">
<stop stop-color="#FF9085"/>
<stop offset="1" stop-color="#FB6FBB"/>
</linearGradient>
<linearGradient id="paint45_linear_50_354" x1="53.3222" y1="412.663" x2="54.7878" y2="413.215" gradientUnits="userSpaceOnUse">
<stop stop-color="#AB316D"/>
<stop offset="1" stop-color="#792D3D"/>
</linearGradient>
<linearGradient id="paint46_linear_50_354" x1="100.857" y1="412.329" x2="102.323" y2="412.879" gradientUnits="userSpaceOnUse">
<stop stop-color="#AB316D"/>
<stop offset="1" stop-color="#792D3D"/>
</linearGradient>
<linearGradient id="paint47_linear_50_354" x1="274.232" y1="25.8413" x2="304.117" y2="178.314" gradientUnits="userSpaceOnUse">
<stop stop-color="#FFC444"/>
<stop offset="1" stop-color="#F36F56"/>
</linearGradient>
<linearGradient id="paint48_linear_50_354" x1="304.462" y1="21.4015" x2="334.067" y2="172.448" gradientUnits="userSpaceOnUse">
<stop stop-color="#FFC444"/>
<stop offset="1" stop-color="#F36F56"/>
</linearGradient>
<linearGradient id="paint49_linear_50_354" x1="333.457" y1="17.1491" x2="362.795" y2="166.831" gradientUnits="userSpaceOnUse">
<stop stop-color="#FFC444"/>
<stop offset="1" stop-color="#F36F56"/>
</linearGradient>
<linearGradient id="paint50_linear_50_354" x1="361.292" y1="13.0752" x2="390.374" y2="161.447" gradientUnits="userSpaceOnUse">
<stop stop-color="#FFC444"/>
<stop offset="1" stop-color="#F36F56"/>
</linearGradient>
<linearGradient id="paint51_linear_50_354" x1="314.12" y1="25.6022" x2="319.214" y2="51.5945" gradientUnits="userSpaceOnUse">
<stop stop-color="#FF9085"/>
<stop offset="1" stop-color="#FB6FBB"/>
</linearGradient>
<linearGradient id="paint52_linear_50_354" x1="239.636" y1="36.4464" x2="205.522" y2="197.335" gradientUnits="userSpaceOnUse">
<stop stop-color="#FF9085"/>
<stop offset="1" stop-color="#FB6FBB"/>
</linearGradient>
<linearGradient id="paint53_linear_50_354" x1="214.208" y1="53.6826" x2="257.629" y2="53.6826" gradientUnits="userSpaceOnUse">
<stop stop-color="#FF9085"/>
<stop offset="1" stop-color="#FB6FBB"/>
</linearGradient>
<linearGradient id="paint54_linear_50_354" x1="289.047" y1="226.197" x2="318.449" y2="376.2" gradientUnits="userSpaceOnUse">
<stop stop-color="#FFC444"/>
<stop offset="1" stop-color="#F36F56"/>
</linearGradient>
<linearGradient id="paint55_linear_50_354" x1="319.396" y1="220.151" x2="348.531" y2="368.802" gradientUnits="userSpaceOnUse">
<stop stop-color="#FFC444"/>
<stop offset="1" stop-color="#F36F56"/>
</linearGradient>
<linearGradient id="paint56_linear_50_354" x1="348.505" y1="214.353" x2="377.388" y2="361.711" gradientUnits="userSpaceOnUse">
<stop stop-color="#FFC444"/>
<stop offset="1" stop-color="#F36F56"/>
</linearGradient>
<linearGradient id="paint57_linear_50_354" x1="329.958" y1="226" x2="334.098" y2="247.122" gradientUnits="userSpaceOnUse">
<stop stop-color="#FF9085"/>
<stop offset="1" stop-color="#FB6FBB"/>
</linearGradient>
<linearGradient id="paint58_linear_50_354" x1="254.289" y1="238.606" x2="219.679" y2="401.843" gradientUnits="userSpaceOnUse">
<stop stop-color="#FF9085"/>
<stop offset="1" stop-color="#FB6FBB"/>
</linearGradient>
<linearGradient id="paint59_linear_50_354" x1="228.734" y1="256.092" x2="272.302" y2="256.092" gradientUnits="userSpaceOnUse">
<stop stop-color="#FF9085"/>
<stop offset="1" stop-color="#FB6FBB"/>
</linearGradient>
<linearGradient id="paint60_linear_50_354" x1="359.395" y1="128.047" x2="388.327" y2="275.666" gradientUnits="userSpaceOnUse">
<stop stop-color="#FFC444"/>
<stop offset="1" stop-color="#F36F56"/>
</linearGradient>
<linearGradient id="paint61_linear_50_354" x1="388.342" y1="122.886" x2="417.017" y2="269.183" gradientUnits="userSpaceOnUse">
<stop stop-color="#FFC444"/>
<stop offset="1" stop-color="#F36F56"/>
</linearGradient>
<linearGradient id="paint62_linear_50_354" x1="416.118" y1="117.94" x2="444.544" y2="262.97" gradientUnits="userSpaceOnUse">
<stop stop-color="#FFC444"/>
<stop offset="1" stop-color="#F36F56"/>
</linearGradient>
<linearGradient id="paint63_linear_50_354" x1="442.791" y1="113.191" x2="470.98" y2="257.013" gradientUnits="userSpaceOnUse">
<stop stop-color="#FFC444"/>
<stop offset="1" stop-color="#F36F56"/>
</linearGradient>
<linearGradient id="paint64_linear_50_354" x1="468.428" y1="108.634" x2="496.387" y2="251.291" gradientUnits="userSpaceOnUse">
<stop stop-color="#FFC444"/>
<stop offset="1" stop-color="#F36F56"/>
</linearGradient>
<linearGradient id="paint65_linear_50_354" x1="398.136" y1="127.967" x2="402.567" y2="150.574" gradientUnits="userSpaceOnUse">
<stop stop-color="#FF9085"/>
<stop offset="1" stop-color="#FB6FBB"/>
</linearGradient>
<linearGradient id="paint66_linear_50_354" x1="326.446" y1="139.337" x2="292.895" y2="297.575" gradientUnits="userSpaceOnUse">
<stop stop-color="#FF9085"/>
<stop offset="1" stop-color="#FB6FBB"/>
</linearGradient>
<linearGradient id="paint67_linear_50_354" x1="302.005" y1="156.288" x2="343.574" y2="156.288" gradientUnits="userSpaceOnUse">
<stop stop-color="#FF9085"/>
<stop offset="1" stop-color="#FB6FBB"/>
</linearGradient>
</defs>
</svg>
