<svg width="53" height="58" viewBox="0 0 53 58" fill="none" xmlns="http://www.w3.org/2000/svg">
<path d="M30.5414 18.3184C30.2935 18.3184 30.0843 18.1265 30.0595 17.8697C29.6354 13.3092 28.1843 8.97719 25.9759 5.66966C24.0181 2.74029 21.6885 0.990567 19.739 0.990567H19.7335C12.6402 1.00468 11.156 17.6947 11.1422 17.8641C11.1202 18.1378 10.8861 18.3382 10.619 18.3156C10.3519 18.293 10.1564 18.0503 10.1785 17.7794C10.239 17.0541 11.759 0.0141106 19.7335 0H19.7417C22.0437 0 24.6073 1.86261 26.7772 5.11088C29.0792 8.55387 30.5882 13.0523 31.026 17.7766C31.0508 18.0503 30.8553 18.293 30.5909 18.3184C30.5744 18.3184 30.5606 18.3184 30.5441 18.3184H30.5414Z" fill="#260B8E"/>
<path d="M0.992813 52.6665L10.3303 57.5121L15.9862 39.7186L6.66524 15.866L4.02178 16.5292L0.0125295 50.7898C-0.0783395 51.5659 0.312673 52.3166 0.992813 52.6694V52.6665Z" fill="#FFC614"/>
<path d="M15.9861 39.7214L6.66517 15.866L5.10663 16.2582C4.88909 19.4416 4.98547 22.0634 5.13141 23.9711C5.75648 32.0932 7.8327 34.3509 6.82488 40.0178C5.98778 44.7279 4.16214 45.3685 4.32185 48.5378C4.49533 51.9892 6.84415 54.8791 9.63631 57.1537L10.3247 57.5121L15.9806 39.7186L15.9861 39.7214Z" fill="#B27822"/>
<path d="M6.66504 15.8662H41.4789L53 53.9875L10.3301 57.5124L6.66504 15.8662Z" fill="#FDCD45"/>
<path d="M41.479 15.8661H24.2084C23.3576 16.7551 22.7518 17.7767 22.6939 18.9253C22.4213 24.3184 34.5207 26.0907 35.6882 33.4818C36.5308 38.8157 31.3513 44.9679 26.7307 47.7082C21.8624 50.5952 18.5635 49.1334 15.2702 52.3393C13.8246 53.7475 12.9434 55.5086 12.4175 57.3373L53.0001 53.9846L41.479 15.8633V15.8661Z" fill="#FDB235"/>
<path d="M17.4511 19.134C17.2308 19.134 17.0326 18.9788 16.9803 18.7502C16.8811 18.3184 14.5929 8.10227 17.8201 3.09017C18.7453 1.65371 20.0368 0.776023 21.6586 0.482522C29.9966 -1.02167 35.1293 17.3278 35.3441 18.1124C35.4157 18.3776 35.267 18.6514 35.0081 18.7248C34.7493 18.7981 34.4822 18.6457 34.4106 18.3805C34.361 18.197 29.3082 0.107179 21.8266 1.4618C20.4581 1.71015 19.4117 2.42132 18.6297 3.63766C15.631 8.297 17.9027 18.4228 17.9248 18.5244C17.9853 18.7925 17.8229 19.0578 17.564 19.1199C17.5255 19.1283 17.4897 19.134 17.4539 19.134H17.4511Z" fill="#2925CC"/>
<path d="M17.4536 20.5959C18.2003 20.5959 18.8056 19.9755 18.8056 19.2103C18.8056 18.445 18.2003 17.8246 17.4536 17.8246C16.7069 17.8246 16.1016 18.445 16.1016 19.2103C16.1016 19.9755 16.7069 20.5959 17.4536 20.5959Z" fill="#4B48E5"/>
<path d="M35.1015 20.4662C35.8482 20.4662 36.4536 19.8458 36.4536 19.0805C36.4536 18.3152 35.8482 17.6948 35.1015 17.6948C34.3548 17.6948 33.7495 18.3152 33.7495 19.0805C33.7495 19.8458 34.3548 20.4662 35.1015 20.4662Z" fill="#4B48E5"/>
</svg>
