<svg width="482" height="440" viewBox="0 0 482 440" fill="none" xmlns="http://www.w3.org/2000/svg">
<path d="M241 0C119.677 0 20.9996 98.6771 20.9996 220C20.9996 260.06 31.814 297.388 50.2965 329.688L26.8395 322.52C24.3036 321.661 21.6213 321.32 18.9514 321.518C16.2814 321.715 13.6783 322.446 11.2963 323.668C8.91419 324.89 6.80168 326.578 5.08393 328.632C3.36617 330.685 2.07812 333.062 1.29613 335.623C0.514132 338.183 0.254104 340.875 0.531453 343.538C0.808802 346.2 1.61788 348.78 2.91075 351.125C4.20361 353.469 5.95394 355.53 8.058 357.185C10.1621 358.841 12.577 360.057 15.1598 360.762L112.386 390.469L125.902 290.352C126.321 287.539 126.137 284.67 125.36 281.935C124.583 279.2 123.231 276.661 121.396 274.49C119.561 272.318 117.283 270.563 114.716 269.34C112.149 268.118 109.35 267.458 106.507 267.402C101.554 267.309 96.7426 269.057 93.0045 272.308C89.2663 275.559 86.8677 280.082 86.2731 285L83.3043 306.992C69.172 281.257 60.9996 251.814 60.9996 220C60.9996 120.263 141.262 40 241 40H261V0H241ZM308.207 9.51172L292.601 46.4062L311.097 54.1992V54.1016C329.497 61.8916 311.106 54.1041 329.496 61.9141L345.101 25.1172L308.207 9.51172ZM369.613 49.5312L356.097 149.648C355.666 152.287 355.768 154.985 356.398 157.583C357.027 160.181 358.171 162.627 359.762 164.776C361.352 166.924 363.358 168.732 365.659 170.093C367.961 171.453 370.511 172.338 373.161 172.696C375.81 173.054 378.504 172.877 381.084 172.176C383.664 171.474 386.077 170.263 388.181 168.613C390.284 166.964 392.036 164.909 393.332 162.571C394.628 160.233 395.442 157.658 395.726 155L398.695 133.008C412.827 158.743 421 188.186 421 220C421 319.737 340.737 400 241 400H221V440H241C362.322 440 461 341.323 461 220C461 179.94 450.185 142.612 431.703 110.312L455.16 117.48C457.696 118.339 460.378 118.68 463.048 118.482C465.718 118.285 468.321 117.554 470.703 116.332C473.085 115.11 475.198 113.422 476.915 111.368C478.633 109.315 479.921 106.938 480.703 104.377C481.485 101.817 481.745 99.1253 481.468 96.4625C481.19 93.7997 480.381 91.2197 479.089 88.8753C477.796 86.531 476.045 84.4701 473.941 82.8147C471.837 81.1593 469.422 79.9431 466.839 79.2383L369.613 49.5312ZM152.504 378.105L136.898 414.902L155.297 422.695C173.797 430.495 155.302 422.698 173.812 430.488L189.3 393.594L170.902 385.801V385.898L152.504 378.105Z" fill="white"/>
<path d="M162 146V185.467H320V146H162ZM168.583 192.044V294H313.417V192.044H168.583ZM216.313 201.911H265.688C270.239 201.911 273.917 205.585 273.917 210.133C273.917 214.681 270.239 218.356 265.688 218.356H216.313C211.761 218.356 208.083 214.681 208.083 210.133C208.083 205.585 211.761 201.911 216.313 201.911Z" fill="white"/>
</svg>
