<svg xmlns="http://www.w3.org/2000/svg" width="482" height="440" viewBox="0 0 482 440" fill="none">
  <path d="M20.9996 220C20.9996 98.6771 119.677 0 241 0H261V40H241C141.262 40 60.9996 120.263 60.9996 220C60.9996 251.814 69.1721 281.257 83.3043 306.992L86.2731 285C86.8677 280.082 89.2663 275.559 93.0045 272.308C96.7426 269.057 101.554 267.309 106.507 267.402C109.35 267.458 112.149 268.118 114.716 269.34C117.283 270.563 119.561 272.318 121.396 274.49C123.231 276.661 124.583 279.2 125.36 281.935C126.137 284.67 126.321 287.539 125.902 290.352L112.386 390.469L15.1598 360.762C12.577 360.057 10.1621 358.841 8.058 357.185C5.95394 355.53 4.20361 353.469 2.91075 351.125C1.61788 348.78 0.808801 346.2 0.531453 343.538C0.254104 340.875 0.514132 338.183 1.29613 335.623C2.07812 333.062 3.36617 330.685 5.08393 328.632C6.80168 326.578 8.91419 324.89 11.2963 323.668C13.6783 322.446 16.2814 321.715 18.9514 321.518C21.6213 321.32 24.3036 321.661 26.8395 322.52L50.2965 329.688C31.814 297.388 20.9996 260.06 20.9996 220Z" fill="url(#paint0_linear_110_174)"/>
  <path d="M292.601 46.4062L308.207 9.51172L345.101 25.1172L329.496 61.9141C320.298 58.0078 320.301 58.0034 320.3 58.0003C320.299 57.9972 320.294 57.9953 311.097 54.1016V54.1992L292.601 46.4062Z" fill="url(#paint1_linear_110_174)"/>
  <path d="M356.097 149.648L369.613 49.5312L466.839 79.2383C469.422 79.9431 471.837 81.1593 473.941 82.8147C476.045 84.4701 477.796 86.531 479.089 88.8753C480.381 91.2197 481.19 93.7997 481.468 96.4625C481.745 99.1253 481.485 101.817 480.703 104.377C479.921 106.938 478.633 109.315 476.915 111.368C475.198 113.422 473.085 115.11 470.703 116.332C468.321 117.554 465.718 118.285 463.048 118.482C460.378 118.68 457.696 118.339 455.16 117.48L431.703 110.312C450.185 142.612 461 179.94 461 220C461 341.323 362.322 440 241 440H221V400H241C340.737 400 421 319.737 421 220C421 188.186 412.827 158.743 398.695 133.008L395.726 155C395.442 157.658 394.628 160.233 393.332 162.571C392.036 164.909 390.284 166.964 388.181 168.613C386.077 170.263 383.664 171.474 381.084 172.176C378.504 172.877 375.81 173.054 373.161 172.696C370.511 172.338 367.961 171.453 365.659 170.093C363.358 168.732 361.352 166.924 359.762 164.776C358.171 162.627 357.027 160.181 356.398 157.583C355.768 154.985 355.666 152.287 356.097 149.648Z" fill="url(#paint2_linear_110_174)"/>
  <path d="M136.898 414.902L152.504 378.105L170.902 385.898V385.801L189.3 393.594L173.812 430.488C164.555 426.593 164.553 426.595 164.551 426.596C164.548 426.596 164.545 426.595 155.296 422.695L136.898 414.902Z" fill="url(#paint3_linear_110_174)"/>
  <path d="M162 185.467V146H320V185.467H162Z" fill="url(#paint4_linear_110_174)"/>
  <path fill-rule="evenodd" clip-rule="evenodd" d="M168.583 294V192.044H313.417V294H168.583ZM265.688 201.911H216.312C211.761 201.911 208.083 205.585 208.083 210.133C208.083 214.681 211.761 218.356 216.312 218.356H265.688C270.239 218.356 273.917 214.681 273.917 210.133C273.917 205.585 270.239 201.911 265.688 201.911Z" fill="url(#paint5_linear_110_174)"/>
  <defs>
    <linearGradient id="paint0_linear_110_174" x1="240.179" y1="191.577" x2="241.04" y2="294" gradientUnits="userSpaceOnUse">
      <stop stop-color="#FDB235"/>
      <stop offset="1" stop-color="#F7C95F"/>
    </linearGradient>
    <linearGradient id="paint1_linear_110_174" x1="240.179" y1="191.577" x2="241.04" y2="294" gradientUnits="userSpaceOnUse">
      <stop stop-color="#FDB235"/>
      <stop offset="1" stop-color="#F7C95F"/>
    </linearGradient>
    <linearGradient id="paint2_linear_110_174" x1="240.179" y1="191.577" x2="241.04" y2="294" gradientUnits="userSpaceOnUse">
      <stop stop-color="#FDB235"/>
      <stop offset="1" stop-color="#F7C95F"/>
    </linearGradient>
    <linearGradient id="paint3_linear_110_174" x1="240.179" y1="191.577" x2="241.04" y2="294" gradientUnits="userSpaceOnUse">
      <stop stop-color="#FDB235"/>
      <stop offset="1" stop-color="#F7C95F"/>
    </linearGradient>
    <linearGradient id="paint4_linear_110_174" x1="240.179" y1="191.577" x2="241.04" y2="294" gradientUnits="userSpaceOnUse">
      <stop stop-color="#FDB235"/>
      <stop offset="1" stop-color="#F7C95F"/>
    </linearGradient>
    <linearGradient id="paint5_linear_110_174" x1="240.179" y1="191.577" x2="241.04" y2="294" gradientUnits="userSpaceOnUse">
      <stop stop-color="#FDB235"/>
      <stop offset="1" stop-color="#F7C95F"/>
    </linearGradient>
  </defs>
</svg>