<svg width="22" height="22" viewBox="0 0 22 22" fill="none" xmlns="http://www.w3.org/2000/svg">
<path d="M11 4.62131C12.9529 4.62131 14.2702 5.46486 15.0214 6.16975L17.9565 3.30398C16.1538 1.62842 13.808 0.599976 11 0.599976C6.93246 0.599976 3.41957 2.9342 1.70935 6.33153L5.07202 8.94309C5.91557 6.43553 8.24979 4.62131 11 4.62131Z" fill="#EA4335"/>
<path d="M20.984 11.2311C20.984 10.376 20.9147 9.75197 20.7644 9.10486H11V12.9644H16.7316C16.616 13.9235 15.992 15.368 14.6053 16.3386L17.8871 18.8809C19.8516 17.0666 20.984 14.3973 20.984 11.2311Z" fill="#4285F4"/>
<path d="M5.08356 13.0569C4.86401 12.4098 4.7369 11.7164 4.7369 11C4.7369 10.2835 4.86401 9.59021 5.07201 8.9431L1.70934 6.33154C1.00445 7.74132 0.600006 9.32443 0.600006 11C0.600006 12.6755 1.00445 14.2587 1.70934 15.6684L5.08356 13.0569Z" fill="#FBBC05"/>
<path d="M11 21.4C13.808 21.4 16.1653 20.4756 17.8871 18.8809L14.6053 16.3387C13.7271 16.9511 12.5484 17.3787 11 17.3787C8.24977 17.3787 5.91555 15.5644 5.08355 13.0569L1.72089 15.6684C3.43111 19.0658 6.93244 21.4 11 21.4Z" fill="#34A853"/>
</svg>