<svg xmlns="http://www.w3.org/2000/svg" width="480" height="410" viewBox="0 0 480 410" fill="none">
<path d="M50 0C22.43 0 0 22.43 0 50V70H460V50C460 22.43 437.57 0 410 0H50ZM0 120V270C0 297.57 22.43 320 50 320H230H298.086C325.026 381.77 372.85 406.568 375 408.008L380 410L385 408.008C389 406.008 480 355.004 480 229.004V220.996L471.992 219.004C467.662 218.074 463.75 217.112 460 216.152V150V120H0ZM70 150H230V170H70V150ZM380 209.004C391 209.004 397.008 212.008 408.008 218.008C420.008 223.008 435 230.992 460 236.992C457 329.992 397 375.992 380 386.992C362 376.992 303 333.992 300 236.992C326 230.992 340.992 223.008 351.992 218.008C362.992 212.008 369 209.004 380 209.004Z" fill="url(#paint0_linear_110_139)"/>
<defs>
<linearGradient id="paint0_linear_110_139" x1="240" y1="125" x2="240" y2="389.5" gradientUnits="userSpaceOnUse">
<stop stop-color="#FDB235"/>
<stop offset="1" stop-color="#F7C95F"/>
</linearGradient>
</defs>
</svg>