<svg xmlns="http://www.w3.org/2000/svg" width="500" height="370" viewBox="0 0 500 370" fill="none">
<path d="M0 0V40H180V60H0V80H150V100H0V120H120V140H0V160H90V180H0V290C0 306.523 13.4766 320 30 320H70.9375C75.7031 348.359 100.352 370 130 370C159.648 370 184.297 348.359 189.062 320H310V29.0625C310 13.5938 296.406 0 280.938 0H0ZM330 70V320H340.938C345.703 348.32 370.312 370 400 370C429.688 370 454.258 348.32 459.062 320H470C485.43 320 500 305.43 500 290V194.062C500 174.453 485.859 153.477 484.062 150.938L442.812 95.625C435.117 86.0156 419.336 70 400 70H330ZM380 90H400C407.891 90 417.969 96.9531 426.875 108.125L467.812 162.812C470.82 167.148 478.086 179.375 479.688 190H390C385.508 190 380 184.492 380 180V90ZM130 270C152.227 270 170 287.773 170 310C170 332.227 152.227 350 130 350C107.773 350 90 332.227 90 310C90 287.773 107.773 270 130 270ZM400 270C422.07 270 440 287.93 440 310C440 332.07 422.07 350 400 350C377.93 350 360 332.07 360 310C360 287.93 377.93 270 400 270Z" fill="url(#paint0_linear_110_137)"/>
<defs>
<linearGradient id="paint0_linear_110_137" x1="250" y1="85" x2="250" y2="370" gradientUnits="userSpaceOnUse">
<stop stop-color="#FDB235"/>
<stop offset="1" stop-color="#F7C95F"/>
</linearGradient>
</defs>
</svg>
