<svg xmlns="http://www.w3.org/2000/svg" width="380" height="460" viewBox="0 0 380 460" fill="none">
<path d="M190 0C63.0078 0 13.9844 81.9922 10 160V226.875C3.00781 234.883 0 245.117 0 258.125C0 281.133 14.8828 300 36.875 305C62.8906 373.008 106.016 460 180 460C216.836 460 245.938 437.891 269.062 407.812C272.969 403.438 277.852 396.602 282.5 389.062C320.82 383.086 350 350.039 350 310V300C366.523 300 380 286.523 380 270V230C380 213.477 366.523 200 350 200H330C324.453 200 320 204.492 320 210V290C320 295.547 324.453 300 330 300V310C330 333.906 316.602 354.062 296.875 363.75C301.953 354.375 306.367 346.016 307.812 343.125C307.891 343.047 308.047 343.203 308.125 343.125C312.07 334.57 315.391 326.055 318.75 317.812C311.68 314.961 306.016 309.414 302.812 302.5C296.367 318.516 289.883 333.125 283.438 346.25C282.578 347.578 281.797 348.906 280.938 350.625C277.656 357.227 273.867 363.828 270 370H228.125C223.945 358.438 213.008 350 200 350H180C163.477 350 150 363.477 150 380C150 396.523 163.477 410 180 410H200C213.008 410 223.945 401.562 228.125 390H256.25C253.086 394.258 249.062 400 249.062 400C227.07 426.992 204.062 440 179.062 440C131.055 440 89.8828 391.875 51.875 291.875L50 285.938L44.0625 285C31.0547 285 20 273.125 20 258.125C20 251.445 21.2109 245.625 23.4375 241.562L46.875 249.375C49.9219 250.391 53.3203 250 55.9375 248.125C58.5547 246.25 60 243.203 60 240V179.375C88.8281 176.914 174.648 166.25 218.75 125.625C243.516 156.641 283.438 172.148 300 177.5V210C300 196.992 308.398 186.016 320 181.875C321.523 181.328 323.086 180.898 324.688 180.625C326.406 180.273 328.203 180 330 180H350V160C346.016 71.9922 297.07 21.9922 214.062 20L194.062 0H190Z" fill="white"/>
</svg>