<svg xmlns="http://www.w3.org/2000/svg" width="420" height="430" viewBox="0 0 420 430" fill="none">
<path d="M307.188 0.3125C299.766 0.3125 291.016 1.83594 279.062 5C248.984 12.9297 72.6172 61.7188 70 62.5C43.8281 72.3438 27.2656 82.0312 16.875 93.4375C29.0625 85.1953 43.5938 80 60 80H340V46.5625C340 30.3906 339.883 0.3125 307.188 0.3125ZM60 100C22.8125 100 0 134.961 0 160V373.75C0 404.727 25.2734 430 56.25 430H363.75C394.727 430 420 404.727 420 373.75V158.438C420 127.852 391.406 100 360 100H60ZM345 240C358.789 240 370 251.172 370 265C370 278.828 358.789 290 345 290C331.172 290 320 278.828 320 265C320 251.172 331.172 240 345 240Z" fill="white"/>
</svg>